%TF.GenerationSoftware,KiCad,Pcbnew,10.0.3*%
%TF.CreationDate,2026-08-10T18:04:38+08:00*%
%TF.ProjectId,Renesas ArmSync CAN Connector,52656e65-7361-4732-9041-726d53796e63,rev?*%
%TF.SameCoordinates,Original*%
%TF.FileFunction,Soldermask,Top*%
%TF.FilePolarity,Negative*%
%FSLAX46Y46*%
G04 Gerber Fmt 4.6, Leading zero omitted, Abs format (unit mm)*
G04 Created by KiCad (PCBNEW 10.0.3) date 2026-08-10 18:04:38*
%MOMM*%
%LPD*%
G01*
G04 APERTURE LIST*
G04 Aperture macros list*
%AMRoundRect*
0 Rectangle with rounded corners*
0 $1 Rounding radius*
0 $2 $3 $4 $5 $6 $7 $8 $9 X,Y pos of 4 corners*
0 Add a 4 corners polygon primitive as box body*
4,1,4,$2,$3,$4,$5,$6,$7,$8,$9,$2,$3,0*
0 Add four circle primitives for the rounded corners*
1,1,$1+$1,$2,$3*
1,1,$1+$1,$4,$5*
1,1,$1+$1,$6,$7*
1,1,$1+$1,$8,$9*
0 Add four rect primitives between the rounded corners*
20,1,$1+$1,$2,$3,$4,$5,0*
20,1,$1+$1,$4,$5,$6,$7,0*
20,1,$1+$1,$6,$7,$8,$9,0*
20,1,$1+$1,$8,$9,$2,$3,0*%
G04 Aperture macros list end*
%ADD10R,1.700000X1.700000*%
%ADD11C,1.700000*%
%ADD12RoundRect,0.250000X0.600000X0.750000X-0.600000X0.750000X-0.600000X-0.750000X0.600000X-0.750000X0*%
%ADD13O,1.700000X2.000000*%
%ADD14RoundRect,0.150000X0.150000X0.700000X-0.150000X0.700000X-0.150000X-0.700000X0.150000X-0.700000X0*%
%ADD15RoundRect,0.250000X0.250000X1.100000X-0.250000X1.100000X-0.250000X-1.100000X0.250000X-1.100000X0*%
%ADD16RoundRect,0.250000X-0.600000X-0.750000X0.600000X-0.750000X0.600000X0.750000X-0.600000X0.750000X0*%
%ADD17RoundRect,0.250000X-0.845000X0.620000X-0.845000X-0.620000X0.845000X-0.620000X0.845000X0.620000X0*%
%ADD18O,2.190000X1.740000*%
%ADD19C,3.000000*%
%ADD20RoundRect,0.250000X-1.250000X-1.250000X1.250000X-1.250000X1.250000X1.250000X-1.250000X1.250000X0*%
%ADD21RoundRect,0.249999X1.250001X1.250001X-1.250001X1.250001X-1.250001X-1.250001X1.250001X-1.250001X0*%
%ADD22RoundRect,0.150000X-0.150000X-0.700000X0.150000X-0.700000X0.150000X0.700000X-0.150000X0.700000X0*%
%ADD23RoundRect,0.250000X-0.250000X-1.100000X0.250000X-1.100000X0.250000X1.100000X-0.250000X1.100000X0*%
G04 APERTURE END LIST*
D10*
%TO.C,J1*%
X38000000Y-45390000D03*
D11*
X38000000Y-42850000D03*
X38000000Y-40310000D03*
X38000000Y-37770000D03*
X38000000Y-35230000D03*
X38000000Y-32690000D03*
X38000000Y-30150000D03*
X38000000Y-27610000D03*
%TD*%
D12*
%TO.C,J8*%
X63000000Y-44782500D03*
D13*
X60500000Y-44782500D03*
%TD*%
D14*
%TO.C,CAN*%
X43625000Y-30417500D03*
X42375000Y-30417500D03*
D15*
X45475000Y-27217500D03*
X40525000Y-27217500D03*
%TD*%
D16*
%TO.C,J7*%
X60500000Y-28217500D03*
D13*
X63000000Y-28217500D03*
%TD*%
D17*
%TO.C,GND 5V SIG*%
X64530000Y-33960000D03*
D18*
X64530000Y-36500000D03*
X64530000Y-39040000D03*
%TD*%
D19*
%TO.C,24V*%
X49500000Y-30867500D03*
D20*
X54500000Y-30867500D03*
%TD*%
D21*
%TO.C,J3*%
X54500000Y-42132500D03*
D19*
X49500000Y-42132500D03*
%TD*%
D22*
%TO.C,CAN*%
X42375000Y-42582500D03*
X43625000Y-42582500D03*
D23*
X40525000Y-45782500D03*
X45475000Y-45782500D03*
%TD*%
G36*
X56150039Y-25634685D02*
G01*
X56195794Y-25687489D01*
X56207000Y-25739000D01*
X56207000Y-32243488D01*
X56187315Y-32310527D01*
X56134511Y-32356282D01*
X56083000Y-32367488D01*
X52931000Y-32367488D01*
X52863961Y-32347803D01*
X52818206Y-32294999D01*
X52807000Y-32243488D01*
X52807000Y-25739000D01*
X52826685Y-25671961D01*
X52879489Y-25626206D01*
X52931000Y-25615000D01*
X56083000Y-25615000D01*
X56150039Y-25634685D01*
G37*
G36*
X56143039Y-40652401D02*
G01*
X56188794Y-40705205D01*
X56200000Y-40756716D01*
X56200000Y-47276000D01*
X56180315Y-47343039D01*
X56127511Y-47388794D01*
X56076000Y-47400000D01*
X52924000Y-47400000D01*
X52856961Y-47380315D01*
X52811206Y-47327511D01*
X52800000Y-47276000D01*
X52800000Y-40756716D01*
X52819685Y-40689677D01*
X52872489Y-40643922D01*
X52924000Y-40632716D01*
X56076000Y-40632716D01*
X56143039Y-40652401D01*
G37*
G36*
X51143039Y-42144685D02*
G01*
X51188794Y-42197489D01*
X51200000Y-42249000D01*
X51200000Y-47276000D01*
X51180315Y-47343039D01*
X51127511Y-47388794D01*
X51076000Y-47400000D01*
X47924000Y-47400000D01*
X47856961Y-47380315D01*
X47811206Y-47327511D01*
X47800000Y-47276000D01*
X47800000Y-42249000D01*
X47819685Y-42181961D01*
X47872489Y-42136206D01*
X47924000Y-42125000D01*
X51076000Y-42125000D01*
X51143039Y-42144685D01*
G37*
G36*
X51143039Y-25619685D02*
G01*
X51188794Y-25672489D01*
X51200000Y-25724000D01*
X51200000Y-30751000D01*
X51180315Y-30818039D01*
X51127511Y-30863794D01*
X51076000Y-30875000D01*
X47924000Y-30875000D01*
X47856961Y-30855315D01*
X47811206Y-30802511D01*
X47800000Y-30751000D01*
X47800000Y-25724000D01*
X47819685Y-25656961D01*
X47872489Y-25611206D01*
X47924000Y-25600000D01*
X51076000Y-25600000D01*
X51143039Y-25619685D01*
G37*
M02*
