%TF.GenerationSoftware,KiCad,Pcbnew,10.0.3*%
%TF.CreationDate,2026-08-10T18:04:38+08:00*%
%TF.ProjectId,Renesas ArmSync CAN Connector,52656e65-7361-4732-9041-726d53796e63,rev?*%
%TF.SameCoordinates,Original*%
%TF.FileFunction,Copper,L1,Top*%
%TF.FilePolarity,Positive*%
%FSLAX46Y46*%
G04 Gerber Fmt 4.6, Leading zero omitted, Abs format (unit mm)*
G04 Created by KiCad (PCBNEW 10.0.3) date 2026-08-10 18:04:38*
%MOMM*%
%LPD*%
G01*
G04 APERTURE LIST*
G04 Aperture macros list*
%AMRoundRect*
0 Rectangle with rounded corners*
0 $1 Rounding radius*
0 $2 $3 $4 $5 $6 $7 $8 $9 X,Y pos of 4 corners*
0 Add a 4 corners polygon primitive as box body*
4,1,4,$2,$3,$4,$5,$6,$7,$8,$9,$2,$3,0*
0 Add four circle primitives for the rounded corners*
1,1,$1+$1,$2,$3*
1,1,$1+$1,$4,$5*
1,1,$1+$1,$6,$7*
1,1,$1+$1,$8,$9*
0 Add four rect primitives between the rounded corners*
20,1,$1+$1,$2,$3,$4,$5,0*
20,1,$1+$1,$4,$5,$6,$7,0*
20,1,$1+$1,$6,$7,$8,$9,0*
20,1,$1+$1,$8,$9,$2,$3,0*%
G04 Aperture macros list end*
%TA.AperFunction,ComponentPad*%
%ADD10R,1.700000X1.700000*%
%TD*%
%TA.AperFunction,ComponentPad*%
%ADD11C,1.700000*%
%TD*%
%TA.AperFunction,ComponentPad*%
%ADD12RoundRect,0.250000X0.600000X0.750000X-0.600000X0.750000X-0.600000X-0.750000X0.600000X-0.750000X0*%
%TD*%
%TA.AperFunction,ComponentPad*%
%ADD13O,1.700000X2.000000*%
%TD*%
%TA.AperFunction,SMDPad,CuDef*%
%ADD14RoundRect,0.150000X0.150000X0.700000X-0.150000X0.700000X-0.150000X-0.700000X0.150000X-0.700000X0*%
%TD*%
%TA.AperFunction,SMDPad,CuDef*%
%ADD15RoundRect,0.250000X0.250000X1.100000X-0.250000X1.100000X-0.250000X-1.100000X0.250000X-1.100000X0*%
%TD*%
%TA.AperFunction,ComponentPad*%
%ADD16RoundRect,0.250000X-0.600000X-0.750000X0.600000X-0.750000X0.600000X0.750000X-0.600000X0.750000X0*%
%TD*%
%TA.AperFunction,ComponentPad*%
%ADD17RoundRect,0.250000X-0.845000X0.620000X-0.845000X-0.620000X0.845000X-0.620000X0.845000X0.620000X0*%
%TD*%
%TA.AperFunction,ComponentPad*%
%ADD18O,2.190000X1.740000*%
%TD*%
%TA.AperFunction,ComponentPad*%
%ADD19C,3.000000*%
%TD*%
%TA.AperFunction,ComponentPad*%
%ADD20RoundRect,0.250000X-1.250000X-1.250000X1.250000X-1.250000X1.250000X1.250000X-1.250000X1.250000X0*%
%TD*%
%TA.AperFunction,ComponentPad*%
%ADD21RoundRect,0.249999X1.250001X1.250001X-1.250001X1.250001X-1.250001X-1.250001X1.250001X-1.250001X0*%
%TD*%
%TA.AperFunction,SMDPad,CuDef*%
%ADD22RoundRect,0.150000X-0.150000X-0.700000X0.150000X-0.700000X0.150000X0.700000X-0.150000X0.700000X0*%
%TD*%
%TA.AperFunction,SMDPad,CuDef*%
%ADD23RoundRect,0.250000X-0.250000X-1.100000X0.250000X-1.100000X0.250000X1.100000X-0.250000X1.100000X0*%
%TD*%
%TA.AperFunction,ViaPad*%
%ADD24C,0.600000*%
%TD*%
%TA.AperFunction,Conductor*%
%ADD25C,0.406400*%
%TD*%
%TA.AperFunction,Conductor*%
%ADD26C,0.200000*%
%TD*%
G04 APERTURE END LIST*
D10*
%TO.P,J1,1,Pin_1_1*%
%TO.N,/CAN_L*%
X38000000Y-45390000D03*
D11*
%TO.P,J1,2,Pin_2_2*%
%TO.N,/CAN_H*%
X38000000Y-42850000D03*
%TO.P,J1,3,Pin_3_3*%
%TO.N,unconnected-(J1-Pin_3-Pad3)*%
X38000000Y-40310000D03*
%TO.P,J1,4,Pin_4_4*%
%TO.N,unconnected-(J1-Pin_4-Pad4)*%
X38000000Y-37770000D03*
%TO.P,J1,5,Pin_5_5*%
%TO.N,unconnected-(J1-Pin_5-Pad5)*%
X38000000Y-35230000D03*
%TO.P,J1,6,Pin_6_6*%
%TO.N,unconnected-(J1-Pin_6-Pad6)*%
X38000000Y-32690000D03*
%TO.P,J1,7,Pin_7_7*%
%TO.N,GND*%
X38000000Y-30150000D03*
%TO.P,J1,8,Pin_8_8*%
%TO.N,+24V*%
X38000000Y-27610000D03*
%TD*%
D12*
%TO.P,J8,1,Pin_1_1*%
%TO.N,/SIGNAL*%
X63000000Y-44782500D03*
D13*
%TO.P,J8,2,Pin_2_2*%
%TO.N,+5V*%
X60500000Y-44782500D03*
%TD*%
D14*
%TO.P,CAN,1,Pin_1_1*%
%TO.N,/CAN_H*%
X43625000Y-30417500D03*
%TO.P,CAN,2,Pin_2_2*%
%TO.N,/CAN_L*%
X42375000Y-30417500D03*
D15*
%TO.P,CAN,MP*%
%TO.N,GND*%
X45475000Y-27217500D03*
X40525000Y-27217500D03*
%TD*%
D16*
%TO.P,J7,1,Pin_1_1*%
%TO.N,+5V*%
X60500000Y-28217500D03*
D13*
%TO.P,J7,2,Pin_2_2*%
%TO.N,/SIGNAL*%
X63000000Y-28217500D03*
%TD*%
D17*
%TO.P,GND 5V SIG,1,Pin_1_1*%
%TO.N,/SIGNAL*%
X64530000Y-33960000D03*
D18*
%TO.P,GND 5V SIG,2,Pin_2_2*%
%TO.N,+5V*%
X64530000Y-36500000D03*
%TO.P,GND 5V SIG,3,Pin_3_3*%
%TO.N,GND*%
X64530000Y-39040000D03*
%TD*%
D19*
%TO.P,24V,1,Pin_1_1*%
%TO.N,+24V*%
X49500000Y-30867500D03*
D20*
%TO.P,24V,2,Pin_2_2*%
%TO.N,GND*%
X54500000Y-30867500D03*
%TD*%
D21*
%TO.P,J3,1,Pin_1_1*%
%TO.N,GND*%
X54500000Y-42132500D03*
D19*
%TO.P,J3,2,Pin_2_2*%
%TO.N,+24V*%
X49500000Y-42132500D03*
%TD*%
D22*
%TO.P,CAN,1,Pin_1_1*%
%TO.N,/CAN_L*%
X42375000Y-42582500D03*
%TO.P,CAN,2,Pin_2_2*%
%TO.N,/CAN_H*%
X43625000Y-42582500D03*
D23*
%TO.P,CAN,MP*%
%TO.N,GND*%
X40525000Y-45782500D03*
X45475000Y-45782500D03*
%TD*%
D24*
%TO.N,/CAN_L*%
X42374387Y-43680504D03*
%TO.N,/CAN_H*%
X44403729Y-42850000D03*
%TO.N,GND*%
X40850000Y-35900000D03*
X58350000Y-46150000D03*
X52350000Y-43150000D03*
X42350000Y-45650000D03*
X61600000Y-38150000D03*
X65600000Y-27150000D03*
X40850000Y-38900000D03*
X61600000Y-30150000D03*
X65600000Y-30150000D03*
X46850000Y-43900000D03*
X58350000Y-28400000D03*
X46850000Y-36400000D03*
X66600000Y-34900000D03*
X61600000Y-34900000D03*
X46850000Y-31900000D03*
X41600000Y-46400000D03*
X65600000Y-41400000D03*
X40850000Y-32900000D03*
X66600000Y-33150000D03*
X52350000Y-38650000D03*
X52350000Y-44650000D03*
X52350000Y-26900000D03*
X56850000Y-26900000D03*
X45100000Y-38900000D03*
X41350000Y-41150000D03*
X52350000Y-31400000D03*
X66600000Y-39900000D03*
X52350000Y-32900000D03*
X46850000Y-45400000D03*
X56850000Y-28400000D03*
X56850000Y-46150000D03*
X58350000Y-35900000D03*
X65600000Y-31650000D03*
X40850000Y-40400000D03*
X56850000Y-37150000D03*
X53850000Y-34400000D03*
X45100000Y-32900000D03*
X56850000Y-41650000D03*
X58350000Y-43150000D03*
X56850000Y-44650000D03*
X44350000Y-46400000D03*
X61600000Y-33400000D03*
X52350000Y-37150000D03*
X58350000Y-38650000D03*
X52350000Y-40150000D03*
X46850000Y-39400000D03*
X53850000Y-37150000D03*
X55350000Y-28400000D03*
X64100000Y-30150000D03*
X53850000Y-28400000D03*
X45100000Y-34400000D03*
X41350000Y-38150000D03*
X55350000Y-35900000D03*
X55350000Y-46150000D03*
X61600000Y-39650000D03*
X56850000Y-43150000D03*
X58350000Y-37150000D03*
X44600000Y-32150000D03*
X64100000Y-41400000D03*
X56850000Y-35900000D03*
X55350000Y-44650000D03*
X55350000Y-32900000D03*
X53850000Y-35900000D03*
X55350000Y-26900000D03*
X65600000Y-44400000D03*
X40850000Y-29900000D03*
X44600000Y-39650000D03*
X52350000Y-28400000D03*
X44600000Y-35150000D03*
X41600000Y-44900000D03*
X46850000Y-40900000D03*
X58350000Y-40150000D03*
X53850000Y-46150000D03*
X39600000Y-29900000D03*
X40850000Y-41900000D03*
X46850000Y-34900000D03*
X43600000Y-45650000D03*
X66600000Y-38150000D03*
X45100000Y-35900000D03*
X58350000Y-41650000D03*
X44600000Y-36650000D03*
X52350000Y-29900000D03*
X45100000Y-41900000D03*
X53850000Y-38650000D03*
X58350000Y-29900000D03*
X52350000Y-34400000D03*
X53850000Y-26900000D03*
X41350000Y-35150000D03*
X46850000Y-33400000D03*
X39600000Y-45400000D03*
X41350000Y-39650000D03*
X58350000Y-32900000D03*
X55350000Y-40150000D03*
X41350000Y-33650000D03*
X55350000Y-34400000D03*
X44600000Y-41150000D03*
X65600000Y-28650000D03*
X44600000Y-33650000D03*
X65600000Y-45900000D03*
X55350000Y-38650000D03*
X55350000Y-37150000D03*
X56850000Y-38650000D03*
X45100000Y-37400000D03*
X45100000Y-40400000D03*
X52350000Y-35900000D03*
X58350000Y-44650000D03*
X64100000Y-42900000D03*
X52350000Y-46150000D03*
X65600000Y-42900000D03*
X41350000Y-36650000D03*
X40850000Y-34400000D03*
X56850000Y-32900000D03*
X58350000Y-26900000D03*
X39600000Y-31400000D03*
X56850000Y-40150000D03*
X53850000Y-32900000D03*
X56850000Y-29900000D03*
X46850000Y-42400000D03*
X40850000Y-37400000D03*
X64100000Y-31650000D03*
X56850000Y-31400000D03*
X45100000Y-31400000D03*
X61600000Y-41400000D03*
X45100000Y-30150000D03*
X41350000Y-32150000D03*
X56850000Y-34400000D03*
X46850000Y-37900000D03*
X61600000Y-42900000D03*
X40850000Y-31400000D03*
X61600000Y-31650000D03*
X52350000Y-41650000D03*
X53850000Y-40150000D03*
X58350000Y-34400000D03*
X44600000Y-38150000D03*
X53850000Y-44650000D03*
X58350000Y-31400000D03*
%TO.N,+5V*%
X60500000Y-36500000D03*
%TD*%
%TO.N,/CAN_L*%
D25*
X42375000Y-42582500D02*
X42375000Y-43679457D01*
X42375000Y-42582500D02*
X42375000Y-30417500D01*
X42374387Y-43680504D02*
X42374693Y-43680197D01*
X42375000Y-43679457D02*
G75*
G02*
X42374727Y-43680227I-1100J-43D01*
G01*
%TO.N,/CAN_H*%
X44403729Y-42850000D02*
X44081651Y-42850000D01*
X43625000Y-42393348D02*
X43625000Y-30417500D01*
X43758750Y-42716250D02*
G75*
G02*
X43624950Y-42393348I322850J322950D01*
G01*
D26*
X43758750Y-42716250D02*
G75*
G03*
X44081651Y-42850020I322950J322950D01*
G01*
%TO.N,/SIGNAL*%
X62850000Y-28367500D02*
X63000000Y-28217500D01*
D25*
X62768284Y-33960000D02*
X64530000Y-33960000D01*
X62700000Y-34028284D02*
X62700000Y-33971715D01*
D26*
X62976312Y-44776312D02*
X62841250Y-44641250D01*
D25*
X62700000Y-28729632D02*
X62700000Y-33971715D01*
D26*
X62991250Y-44782500D02*
X63000000Y-44782500D01*
D25*
X62700000Y-44300242D02*
X62700000Y-34028284D01*
D26*
X62850000Y-28367500D02*
G75*
G03*
X62700013Y-28729632I362100J-362100D01*
G01*
X62991250Y-44782500D02*
G75*
G02*
X62976342Y-44776282I50J21100D01*
G01*
D25*
X62720000Y-33980000D02*
G75*
G02*
X62699962Y-33971715I-8300J8300D01*
G01*
X62700000Y-44300242D02*
G75*
G03*
X62841262Y-44641238I482300J42D01*
G01*
D26*
X62720000Y-33980000D02*
G75*
G03*
X62699993Y-34028284I48300J-48300D01*
G01*
D25*
X62768284Y-33960000D02*
G75*
G03*
X62720005Y-33980005I16J-68300D01*
G01*
%TO.N,+5V*%
X60500000Y-28217500D02*
X60500000Y-44782500D01*
%TD*%
%TA.AperFunction,Conductor*%
%TO.N,+24V*%
G36*
X50943039Y-42119685D02*
G01*
X50988794Y-42172489D01*
X51000000Y-42224000D01*
X51000000Y-46775500D01*
X50980315Y-46842539D01*
X50927511Y-46888294D01*
X50876000Y-46899500D01*
X48124000Y-46899500D01*
X48056961Y-46879815D01*
X48011206Y-46827011D01*
X48000000Y-46775500D01*
X48000000Y-42224000D01*
X48019685Y-42156961D01*
X48072489Y-42111206D01*
X48124000Y-42100000D01*
X50876000Y-42100000D01*
X50943039Y-42119685D01*
G37*
%TD.AperFunction*%
%TD*%
%TA.AperFunction,Conductor*%
%TO.N,+24V*%
G36*
X50943039Y-26120185D02*
G01*
X50988794Y-26172989D01*
X51000000Y-26224500D01*
X51000000Y-30776000D01*
X50980315Y-30843039D01*
X50927511Y-30888794D01*
X50876000Y-30900000D01*
X48124000Y-30900000D01*
X48056961Y-30880315D01*
X48011206Y-30827511D01*
X48000000Y-30776000D01*
X48000000Y-26224500D01*
X48019685Y-26157461D01*
X48072489Y-26111706D01*
X48124000Y-26100500D01*
X50876000Y-26100500D01*
X50943039Y-26120185D01*
G37*
%TD.AperFunction*%
%TD*%
%TA.AperFunction,Conductor*%
%TO.N,GND*%
G36*
X61888420Y-29271038D02*
G01*
X61920760Y-29275078D01*
X61930049Y-29282830D01*
X61938256Y-29285155D01*
X61953465Y-29302371D01*
X61974402Y-29319844D01*
X61974413Y-29319860D01*
X61975282Y-29321159D01*
X61979389Y-29331717D01*
X61984514Y-29337519D01*
X61994781Y-29371286D01*
X61994863Y-29371820D01*
X61996300Y-29390641D01*
X61996300Y-33892427D01*
X61996300Y-33971714D01*
X61996237Y-34022512D01*
X61996197Y-34054222D01*
X61996300Y-34056145D01*
X61996300Y-43312685D01*
X61996299Y-43312686D01*
X61996300Y-43312687D01*
X61991276Y-43347622D01*
X61985702Y-43366604D01*
X61953594Y-43420154D01*
X61946709Y-43426913D01*
X61935898Y-43435695D01*
X61936074Y-43435910D01*
X61931343Y-43439787D01*
X61899345Y-43471786D01*
X61807289Y-43563842D01*
X61807288Y-43563844D01*
X61807286Y-43563845D01*
X61721180Y-43703443D01*
X61721180Y-43703446D01*
X61698565Y-43730543D01*
X61688248Y-43739823D01*
X61625242Y-43770021D01*
X61555911Y-43761361D01*
X61551288Y-43759352D01*
X61547176Y-43757565D01*
X61508916Y-43731520D01*
X61379793Y-43602397D01*
X61378781Y-43601662D01*
X61353260Y-43583120D01*
X61326728Y-43563843D01*
X61326728Y-43563842D01*
X61269235Y-43522070D01*
X61243926Y-43497474D01*
X61230328Y-43479840D01*
X61206654Y-43427008D01*
X61205831Y-43422626D01*
X61203700Y-43399737D01*
X61203700Y-36929803D01*
X61206082Y-36905615D01*
X61210757Y-36882109D01*
X61217809Y-36858862D01*
X61268054Y-36737557D01*
X61269221Y-36735001D01*
X61269730Y-36733510D01*
X61269735Y-36733501D01*
X61269737Y-36733497D01*
X61293389Y-36614591D01*
X61300500Y-36578844D01*
X61300500Y-36420976D01*
X61300076Y-36419026D01*
X61294728Y-36392139D01*
X61269737Y-36266503D01*
X61267089Y-36260109D01*
X61267086Y-36260101D01*
X61267086Y-36260100D01*
X61233525Y-36179077D01*
X61217810Y-36141139D01*
X61210757Y-36117885D01*
X61206081Y-36094382D01*
X61203700Y-36070196D01*
X61203700Y-29831138D01*
X61208723Y-29796202D01*
X61213127Y-29781204D01*
X61250899Y-29722429D01*
X61258917Y-29715481D01*
X61301115Y-29691487D01*
X61419334Y-29652314D01*
X61568656Y-29560212D01*
X61692712Y-29436156D01*
X61757404Y-29331271D01*
X61780013Y-29304182D01*
X61788425Y-29296615D01*
X61800419Y-29290866D01*
X61804184Y-29286438D01*
X61819160Y-29281884D01*
X61851429Y-29266418D01*
X61864612Y-29268064D01*
X61871032Y-29266113D01*
X61888420Y-29271038D01*
G37*
%TD.AperFunction*%
%TA.AperFunction,Conductor*%
G36*
X47437539Y-26120185D02*
G01*
X47483294Y-26172989D01*
X47494500Y-26224500D01*
X47494500Y-30776008D01*
X47498789Y-30815891D01*
X47499500Y-30829147D01*
X47499500Y-30998627D01*
X47523799Y-31183186D01*
X47533730Y-31258616D01*
X47565693Y-31377902D01*
X47601602Y-31511920D01*
X47601604Y-31511925D01*
X47601605Y-31511928D01*
X47658187Y-31648529D01*
X47701954Y-31754193D01*
X47701967Y-31754217D01*
X47833074Y-31981303D01*
X47992718Y-32189351D01*
X47992721Y-32189355D01*
X48178120Y-32374755D01*
X48178142Y-32374776D01*
X48178148Y-32374781D01*
X48386195Y-32534424D01*
X48613281Y-32665531D01*
X48613291Y-32665536D01*
X48613299Y-32665541D01*
X48613309Y-32665546D01*
X48855571Y-32765894D01*
X48855581Y-32765898D01*
X49108884Y-32833770D01*
X49368880Y-32868000D01*
X49368887Y-32868000D01*
X49631113Y-32868000D01*
X49631120Y-32868000D01*
X49891116Y-32833770D01*
X50144419Y-32765898D01*
X50386697Y-32665543D01*
X50613803Y-32534424D01*
X50821851Y-32374782D01*
X50821855Y-32374777D01*
X50821860Y-32374774D01*
X50862366Y-32334268D01*
X51002433Y-32194202D01*
X51003209Y-32193506D01*
X51006758Y-32189885D01*
X51007257Y-32189380D01*
X51007267Y-32189366D01*
X51007274Y-32189360D01*
X51007277Y-32189355D01*
X51007282Y-32189351D01*
X51007398Y-32189199D01*
X51007624Y-32188911D01*
X51007628Y-32188907D01*
X51011074Y-32184493D01*
X51011574Y-32183756D01*
X51166924Y-31981303D01*
X51298043Y-31754197D01*
X51398398Y-31511919D01*
X51466270Y-31258616D01*
X51500500Y-30998620D01*
X51500500Y-30819645D01*
X51501762Y-30801999D01*
X51502031Y-30800125D01*
X51505500Y-30776000D01*
X51505500Y-27417483D01*
X59149500Y-27417483D01*
X59149500Y-29017501D01*
X59149501Y-29017518D01*
X59160000Y-29120296D01*
X59160001Y-29120299D01*
X59215185Y-29286831D01*
X59215187Y-29286836D01*
X59250069Y-29343388D01*
X59307288Y-29436156D01*
X59431344Y-29560212D01*
X59580666Y-29652314D01*
X59670902Y-29682215D01*
X59694380Y-29689995D01*
X59725960Y-29705750D01*
X59738330Y-29714315D01*
X59738813Y-29714649D01*
X59781719Y-29767748D01*
X59782726Y-29768994D01*
X59782726Y-29768996D01*
X59786796Y-29778784D01*
X59796300Y-29826392D01*
X59796300Y-36070196D01*
X59793917Y-36094391D01*
X59789243Y-36117885D01*
X59782187Y-36141142D01*
X59730264Y-36266496D01*
X59730257Y-36266527D01*
X59699500Y-36421150D01*
X59699500Y-36421153D01*
X59699500Y-36578846D01*
X59699500Y-36578848D01*
X59699499Y-36578848D01*
X59730257Y-36733471D01*
X59730264Y-36733502D01*
X59782187Y-36858857D01*
X59789243Y-36882114D01*
X59793917Y-36905614D01*
X59796300Y-36929803D01*
X59796300Y-43393447D01*
X59791275Y-43428388D01*
X59784999Y-43449758D01*
X59756185Y-43499946D01*
X59753123Y-43503189D01*
X59735849Y-43518377D01*
X59707089Y-43539273D01*
X59707087Y-43539274D01*
X59620210Y-43602392D01*
X59469892Y-43752710D01*
X59435112Y-43800581D01*
X59352716Y-43913992D01*
X59344949Y-43924682D01*
X59248445Y-44114080D01*
X59182752Y-44316259D01*
X59149500Y-44526207D01*
X59149500Y-45038791D01*
X59182752Y-45248739D01*
X59248445Y-45450918D01*
X59315495Y-45582509D01*
X59344951Y-45640320D01*
X59469890Y-45812286D01*
X59469892Y-45812288D01*
X59620216Y-45962612D01*
X59792169Y-46087542D01*
X59792200Y-46087560D01*
X59792442Y-46087682D01*
X59981588Y-46184057D01*
X60183757Y-46249746D01*
X60393713Y-46283000D01*
X60393714Y-46283000D01*
X60606286Y-46283000D01*
X60606287Y-46283000D01*
X60816243Y-46249746D01*
X61018412Y-46184057D01*
X61207816Y-46087551D01*
X61379792Y-45962604D01*
X61506000Y-45836394D01*
X61534248Y-45815248D01*
X61546431Y-45808596D01*
X61614702Y-45793746D01*
X61680165Y-45818163D01*
X61687782Y-45823865D01*
X61719010Y-45858034D01*
X61807288Y-46001156D01*
X61931344Y-46125212D01*
X62080666Y-46217314D01*
X62247203Y-46272499D01*
X62349991Y-46283000D01*
X63650008Y-46282999D01*
X63752797Y-46272499D01*
X63919334Y-46217314D01*
X64068656Y-46125212D01*
X64192712Y-46001156D01*
X64284814Y-45851834D01*
X64339999Y-45685297D01*
X64350500Y-45582509D01*
X64350499Y-43982492D01*
X64347985Y-43957886D01*
X64339999Y-43879703D01*
X64339998Y-43879700D01*
X64325768Y-43836757D01*
X64284814Y-43713166D01*
X64192712Y-43563844D01*
X64068656Y-43439788D01*
X63952940Y-43368414D01*
X63939766Y-43360288D01*
X63919335Y-43347686D01*
X63919313Y-43347678D01*
X63867517Y-43330515D01*
X63867515Y-43330515D01*
X63761265Y-43295307D01*
X63758439Y-43294139D01*
X63752796Y-43292499D01*
X63650025Y-43282000D01*
X63650016Y-43282000D01*
X63650009Y-43282000D01*
X63545530Y-43282000D01*
X63545525Y-43281999D01*
X63545523Y-43282000D01*
X63510589Y-43276975D01*
X63495590Y-43272570D01*
X63436844Y-43234827D01*
X63436815Y-43234793D01*
X63436814Y-43234793D01*
X63436813Y-43234791D01*
X63435657Y-43233458D01*
X63408177Y-43178583D01*
X63406532Y-43171021D01*
X63403700Y-43144668D01*
X63403700Y-37799092D01*
X63408722Y-37764159D01*
X63412633Y-37750840D01*
X63450406Y-37692063D01*
X63513958Y-37663038D01*
X63517270Y-37662562D01*
X63572387Y-37667098D01*
X63574267Y-37667694D01*
X63593080Y-37675407D01*
X63669263Y-37714224D01*
X63778906Y-37770090D01*
X63778908Y-37770090D01*
X63778911Y-37770092D01*
X63984074Y-37836754D01*
X64003303Y-37839799D01*
X64063812Y-37849383D01*
X64063911Y-37849398D01*
X64063973Y-37849408D01*
X64197134Y-37870500D01*
X64197139Y-37870500D01*
X64862865Y-37870500D01*
X64862866Y-37870500D01*
X64981230Y-37851752D01*
X65075926Y-37836754D01*
X65281089Y-37770092D01*
X65473299Y-37672157D01*
X65647821Y-37545359D01*
X65800359Y-37392821D01*
X65927157Y-37218299D01*
X66025092Y-37026089D01*
X66091754Y-36820926D01*
X66104589Y-36739886D01*
X66106752Y-36726232D01*
X66106752Y-36726230D01*
X66124377Y-36614953D01*
X66125500Y-36607866D01*
X66125500Y-36392133D01*
X66105602Y-36266505D01*
X66093281Y-36188716D01*
X66093280Y-36188710D01*
X66093280Y-36188711D01*
X66091754Y-36179077D01*
X66091754Y-36179074D01*
X66025092Y-35973911D01*
X66025090Y-35973908D01*
X66025090Y-35973906D01*
X65927156Y-35781700D01*
X65800359Y-35607179D01*
X65670979Y-35477799D01*
X65649833Y-35449552D01*
X65643178Y-35437364D01*
X65628327Y-35369094D01*
X65652741Y-35303633D01*
X65656938Y-35298026D01*
X65691103Y-35266806D01*
X65694331Y-35264814D01*
X65694334Y-35264814D01*
X65843656Y-35172712D01*
X65967712Y-35048656D01*
X66059814Y-34899334D01*
X66114999Y-34732797D01*
X66125500Y-34630009D01*
X66125499Y-33289992D01*
X66114999Y-33187203D01*
X66059814Y-33020666D01*
X65967712Y-32871344D01*
X65843656Y-32747288D01*
X65750888Y-32690069D01*
X65694336Y-32655187D01*
X65694331Y-32655185D01*
X65692862Y-32654698D01*
X65536265Y-32602807D01*
X65533445Y-32601641D01*
X65527792Y-32599999D01*
X65425019Y-32589500D01*
X65425010Y-32589500D01*
X63634998Y-32589500D01*
X63634982Y-32589500D01*
X63558035Y-32597361D01*
X63558033Y-32597360D01*
X63558033Y-32597361D01*
X63522769Y-32595914D01*
X63508300Y-32593224D01*
X63445988Y-32561617D01*
X63411296Y-32503796D01*
X63408028Y-32491759D01*
X63403700Y-32459283D01*
X63403700Y-29764249D01*
X63408723Y-29729313D01*
X63410745Y-29722429D01*
X63413127Y-29714314D01*
X63422764Y-29699317D01*
X63427786Y-29682215D01*
X63450898Y-29655541D01*
X63458767Y-29648722D01*
X63501656Y-29624500D01*
X63518412Y-29619057D01*
X63707816Y-29522551D01*
X63797898Y-29457103D01*
X63797900Y-29457102D01*
X63826731Y-29436155D01*
X63879786Y-29397609D01*
X63879786Y-29397608D01*
X63879846Y-29397565D01*
X63880609Y-29396786D01*
X64030104Y-29247292D01*
X64030106Y-29247288D01*
X64030109Y-29247286D01*
X64155048Y-29075320D01*
X64155047Y-29075320D01*
X64155051Y-29075316D01*
X64155053Y-29075310D01*
X64175445Y-29047244D01*
X64183730Y-29019029D01*
X64251557Y-28885912D01*
X64317246Y-28683743D01*
X64350500Y-28473787D01*
X64350500Y-27961213D01*
X64317246Y-27751257D01*
X64251557Y-27549088D01*
X64155051Y-27359684D01*
X64155049Y-27359681D01*
X64155048Y-27359679D01*
X64154702Y-27359203D01*
X64154700Y-27359199D01*
X64030112Y-27187716D01*
X63879788Y-27037392D01*
X63879786Y-27037390D01*
X63707820Y-26912451D01*
X63633902Y-26874788D01*
X63540245Y-26827067D01*
X63540240Y-26827065D01*
X63518414Y-26815944D01*
X63518413Y-26815943D01*
X63518412Y-26815943D01*
X63388901Y-26773862D01*
X63325074Y-26753123D01*
X63320552Y-26751270D01*
X63311362Y-26749100D01*
X63306599Y-26748726D01*
X63190307Y-26730307D01*
X63154957Y-26724708D01*
X63135489Y-26721624D01*
X63106290Y-26717000D01*
X63106287Y-26717000D01*
X62893713Y-26717000D01*
X62893709Y-26717000D01*
X62854776Y-26723166D01*
X62845042Y-26724708D01*
X62809692Y-26730307D01*
X62683763Y-26750252D01*
X62481582Y-26815945D01*
X62292182Y-26912449D01*
X62292179Y-26912450D01*
X62292179Y-26912451D01*
X62265389Y-26931915D01*
X62120218Y-27037386D01*
X61994006Y-27163598D01*
X61994004Y-27163599D01*
X61994004Y-27163600D01*
X61965749Y-27184750D01*
X61953566Y-27191402D01*
X61885293Y-27206252D01*
X61819829Y-27181833D01*
X61812207Y-27176127D01*
X61780988Y-27141963D01*
X61751777Y-27094605D01*
X61751776Y-27094603D01*
X61692715Y-26998848D01*
X61692713Y-26998845D01*
X61568657Y-26874789D01*
X61568656Y-26874788D01*
X61419334Y-26782686D01*
X61261265Y-26730307D01*
X61258445Y-26729141D01*
X61252792Y-26727499D01*
X61150019Y-26717000D01*
X61150010Y-26717000D01*
X59849998Y-26717000D01*
X59849981Y-26717001D01*
X59835959Y-26718433D01*
X59747198Y-26727500D01*
X59747193Y-26727501D01*
X59747032Y-26727556D01*
X59580667Y-26782685D01*
X59580665Y-26782686D01*
X59580663Y-26782687D01*
X59508712Y-26827067D01*
X59431340Y-26874790D01*
X59307290Y-26998840D01*
X59215186Y-27148164D01*
X59210324Y-27162834D01*
X59203063Y-27184750D01*
X59170299Y-27283623D01*
X59161852Y-27296567D01*
X59160365Y-27311130D01*
X59159542Y-27317381D01*
X59159387Y-27320413D01*
X59159396Y-27320604D01*
X59159355Y-27321014D01*
X59149500Y-27417483D01*
X51505500Y-27417483D01*
X51505500Y-26224500D01*
X51525185Y-26157461D01*
X51577989Y-26111706D01*
X51629500Y-26100500D01*
X65591878Y-26100500D01*
X65597280Y-26100618D01*
X65602692Y-26100854D01*
X65608085Y-26101207D01*
X65635721Y-26103625D01*
X65757371Y-26114268D01*
X65768081Y-26115678D01*
X65778700Y-26117550D01*
X65789251Y-26119888D01*
X65859086Y-26138601D01*
X65859085Y-26138601D01*
X65926136Y-26156567D01*
X65936450Y-26159819D01*
X65946592Y-26163510D01*
X65956590Y-26167651D01*
X66085004Y-26227532D01*
X66094597Y-26232526D01*
X66103947Y-26237924D01*
X66113058Y-26243727D01*
X66229155Y-26325019D01*
X66237728Y-26331598D01*
X66245993Y-26338533D01*
X66253969Y-26345842D01*
X66354156Y-26446029D01*
X66361465Y-26454005D01*
X66368400Y-26462270D01*
X66374981Y-26470846D01*
X66456267Y-26586934D01*
X66462074Y-26596051D01*
X66467472Y-26605401D01*
X66472466Y-26614994D01*
X66532347Y-26743408D01*
X66536485Y-26753396D01*
X66540177Y-26763538D01*
X66543432Y-26773862D01*
X66580106Y-26910734D01*
X66582448Y-26921297D01*
X66584320Y-26931915D01*
X66585731Y-26942637D01*
X66598791Y-27091906D01*
X66599144Y-27097284D01*
X66599381Y-27102691D01*
X66599500Y-27108121D01*
X66599500Y-29985082D01*
X66599359Y-29990999D01*
X66596925Y-30041932D01*
X66596932Y-30042006D01*
X66597075Y-30042690D01*
X66599500Y-30054771D01*
X66599500Y-30065892D01*
X66607379Y-30095297D01*
X66608398Y-30099101D01*
X66608403Y-30099125D01*
X66612318Y-30113736D01*
X66613051Y-30116606D01*
X66613742Y-30119456D01*
X66614403Y-30122333D01*
X67095260Y-32334268D01*
X67097380Y-32347362D01*
X67098790Y-32360485D01*
X67099500Y-32373732D01*
X67099500Y-40626265D01*
X67098790Y-40639512D01*
X67097380Y-40652635D01*
X67095260Y-40665729D01*
X66614086Y-42879122D01*
X66613944Y-42879768D01*
X66613372Y-42882332D01*
X66599500Y-42934108D01*
X66599500Y-42944540D01*
X66597639Y-42952886D01*
X66596925Y-42958068D01*
X66599288Y-43007524D01*
X66599393Y-43010468D01*
X66599464Y-43013427D01*
X66599500Y-43016401D01*
X66599500Y-45891878D01*
X66599381Y-45897309D01*
X66599144Y-45902715D01*
X66598791Y-45908092D01*
X66585731Y-46057361D01*
X66584320Y-46068083D01*
X66582448Y-46078701D01*
X66580106Y-46089264D01*
X66543432Y-46226136D01*
X66540177Y-46236460D01*
X66536485Y-46246602D01*
X66532347Y-46256590D01*
X66472466Y-46385004D01*
X66467472Y-46394597D01*
X66462074Y-46403947D01*
X66456261Y-46413073D01*
X66374985Y-46529147D01*
X66368400Y-46537728D01*
X66361465Y-46545993D01*
X66354156Y-46553969D01*
X66253969Y-46654156D01*
X66245993Y-46661465D01*
X66237728Y-46668400D01*
X66229147Y-46674985D01*
X66113073Y-46756261D01*
X66103947Y-46762074D01*
X66094597Y-46767472D01*
X66085004Y-46772466D01*
X65956590Y-46832347D01*
X65946602Y-46836485D01*
X65936460Y-46840177D01*
X65926136Y-46843432D01*
X65789264Y-46880106D01*
X65778701Y-46882448D01*
X65768083Y-46884320D01*
X65757361Y-46885731D01*
X65608093Y-46898791D01*
X65602716Y-46899144D01*
X65597310Y-46899381D01*
X65591879Y-46899500D01*
X51629500Y-46899500D01*
X51562461Y-46879815D01*
X51516706Y-46827011D01*
X51505500Y-46775500D01*
X51505500Y-42224010D01*
X51505500Y-42224000D01*
X51501209Y-42184088D01*
X51500500Y-42170852D01*
X51500500Y-42001386D01*
X51500499Y-42001372D01*
X51491943Y-41936383D01*
X51466270Y-41741384D01*
X51398398Y-41488081D01*
X51388859Y-41465051D01*
X51298046Y-41245809D01*
X51298041Y-41245799D01*
X51265706Y-41189792D01*
X51166924Y-41018695D01*
X51007281Y-40810648D01*
X51007276Y-40810642D01*
X51007255Y-40810620D01*
X50821855Y-40625221D01*
X50821851Y-40625218D01*
X50613803Y-40465574D01*
X50386717Y-40334467D01*
X50386693Y-40334454D01*
X50148474Y-40235781D01*
X50148467Y-40235778D01*
X50144425Y-40234103D01*
X49952931Y-40182793D01*
X49891116Y-40166230D01*
X49833339Y-40158623D01*
X49631128Y-40132000D01*
X49631127Y-40132000D01*
X49631120Y-40132000D01*
X49368880Y-40132000D01*
X49368872Y-40132000D01*
X49368864Y-40132000D01*
X49137773Y-40162425D01*
X49137772Y-40162426D01*
X49108892Y-40166229D01*
X49108884Y-40166230D01*
X48968995Y-40203713D01*
X48855578Y-40234102D01*
X48613305Y-40334454D01*
X48613281Y-40334467D01*
X48386195Y-40465574D01*
X48178152Y-40625214D01*
X48178142Y-40625223D01*
X47992723Y-40810642D01*
X47992714Y-40810652D01*
X47833074Y-41018695D01*
X47701967Y-41245781D01*
X47701954Y-41245805D01*
X47617754Y-41449083D01*
X47602675Y-41485489D01*
X47601603Y-41488076D01*
X47576973Y-41579999D01*
X47533731Y-41741381D01*
X47533729Y-41741392D01*
X47499500Y-42001371D01*
X47499500Y-42180354D01*
X47498238Y-42197999D01*
X47494500Y-42223996D01*
X47494500Y-46775500D01*
X47474815Y-46842539D01*
X47422011Y-46888294D01*
X47370500Y-46899500D01*
X39194575Y-46899500D01*
X39159640Y-46894477D01*
X39148786Y-46891290D01*
X39090008Y-46853516D01*
X39060983Y-46789960D01*
X39061848Y-46783943D01*
X39070920Y-46720817D01*
X39072336Y-46717716D01*
X39110819Y-46669956D01*
X39126809Y-46657986D01*
X39207546Y-46597546D01*
X39293796Y-46482331D01*
X39344091Y-46347483D01*
X39350500Y-46287873D01*
X39350499Y-44492128D01*
X39344091Y-44432517D01*
X39342810Y-44429083D01*
X39328206Y-44389928D01*
X39328196Y-44389901D01*
X39293797Y-44297671D01*
X39293793Y-44297664D01*
X39213791Y-44190796D01*
X39207548Y-44182456D01*
X39207542Y-44182450D01*
X39116211Y-44114080D01*
X39092335Y-44096206D01*
X39092332Y-44096204D01*
X39092330Y-44096203D01*
X39092328Y-44096202D01*
X39006650Y-44064246D01*
X38977621Y-44053419D01*
X38976443Y-44052776D01*
X38946642Y-44036502D01*
X38935531Y-44028184D01*
X38893661Y-43972250D01*
X38888678Y-43902561D01*
X38889655Y-43898068D01*
X38923138Y-43836757D01*
X38959314Y-43800581D01*
X39000544Y-43759352D01*
X41573886Y-43759352D01*
X41604644Y-43913975D01*
X41604648Y-43913992D01*
X41604650Y-43914004D01*
X41664985Y-44059669D01*
X41664989Y-44059676D01*
X41664995Y-44059688D01*
X41665000Y-44059695D01*
X41752598Y-44190794D01*
X41752599Y-44190795D01*
X41752604Y-44190801D01*
X41864088Y-44302285D01*
X41864094Y-44302290D01*
X41864098Y-44302293D01*
X41995201Y-44389894D01*
X41995214Y-44389901D01*
X42098100Y-44432517D01*
X42140890Y-44450241D01*
X42291088Y-44480117D01*
X42292877Y-44480571D01*
X42295542Y-44481004D01*
X42453231Y-44481004D01*
X42457351Y-44481004D01*
X42465201Y-44478622D01*
X42607884Y-44450241D01*
X42753566Y-44389898D01*
X42884676Y-44302293D01*
X42996176Y-44190793D01*
X43083781Y-44059683D01*
X43113375Y-43988233D01*
X43131378Y-43957891D01*
X43141189Y-43945716D01*
X43198580Y-43905871D01*
X43203722Y-43904159D01*
X43258179Y-43898763D01*
X43259560Y-43898934D01*
X43278846Y-43902909D01*
X43372426Y-43930097D01*
X43372429Y-43930097D01*
X43372431Y-43930098D01*
X43409306Y-43933000D01*
X43409314Y-43933000D01*
X43840686Y-43933000D01*
X43840694Y-43933000D01*
X43877569Y-43930098D01*
X43877571Y-43930097D01*
X43877573Y-43930097D01*
X43877576Y-43930096D01*
X43877590Y-43930095D01*
X43878292Y-43929896D01*
X43887172Y-43927428D01*
X43888359Y-43926963D01*
X43933002Y-43913993D01*
X44035398Y-43884244D01*
X44176865Y-43800581D01*
X44278027Y-43699417D01*
X44306274Y-43678273D01*
X44329364Y-43665665D01*
X44388788Y-43650500D01*
X44486693Y-43650500D01*
X44494543Y-43648118D01*
X44637226Y-43619737D01*
X44716273Y-43586994D01*
X44772166Y-43563844D01*
X44773820Y-43563158D01*
X44782901Y-43559397D01*
X44782901Y-43559396D01*
X44782904Y-43559395D01*
X44782908Y-43559394D01*
X44782909Y-43559392D01*
X44785261Y-43558419D01*
X44794520Y-43554583D01*
X44803406Y-43545698D01*
X44879208Y-43495048D01*
X44914018Y-43471789D01*
X45025518Y-43360289D01*
X45113123Y-43229179D01*
X45173466Y-43083497D01*
X45204229Y-42928842D01*
X45204229Y-42771158D01*
X45204229Y-42771155D01*
X45204229Y-42770973D01*
X45203794Y-42768972D01*
X45174127Y-42619830D01*
X45173712Y-42617403D01*
X45173466Y-42616504D01*
X45139192Y-42533757D01*
X45113131Y-42470840D01*
X45113126Y-42470827D01*
X45113119Y-42470814D01*
X45025518Y-42339711D01*
X45025515Y-42339707D01*
X45025510Y-42339701D01*
X44914026Y-42228217D01*
X44914020Y-42228212D01*
X44914019Y-42228211D01*
X44782920Y-42140613D01*
X44782919Y-42140612D01*
X44782914Y-42140609D01*
X44782901Y-42140602D01*
X44782897Y-42140600D01*
X44722383Y-42115534D01*
X44722377Y-42115532D01*
X44720001Y-42114548D01*
X44719990Y-42114545D01*
X44637226Y-42080263D01*
X44533389Y-42059608D01*
X44527948Y-42057998D01*
X44521034Y-42053534D01*
X44496627Y-42043751D01*
X44487714Y-42038087D01*
X44488276Y-42037201D01*
X44476369Y-42024696D01*
X44469249Y-42020100D01*
X44466748Y-42014593D01*
X44445849Y-41992646D01*
X44444923Y-41993174D01*
X44441743Y-41987589D01*
X44425500Y-41926234D01*
X44425500Y-41816817D01*
X44425500Y-41816813D01*
X44425499Y-41816798D01*
X44422598Y-41779932D01*
X44422597Y-41779926D01*
X44376745Y-41622106D01*
X44376744Y-41622102D01*
X44362752Y-41598443D01*
X44354443Y-41584392D01*
X44341574Y-41554002D01*
X44333093Y-41523000D01*
X44328700Y-41490285D01*
X44328700Y-31509712D01*
X44333094Y-31476995D01*
X44341574Y-31445998D01*
X44354442Y-31415608D01*
X44376744Y-31377898D01*
X44422598Y-31220069D01*
X44425500Y-31183194D01*
X44425500Y-29651806D01*
X44422598Y-29614931D01*
X44422596Y-29614925D01*
X44376745Y-29457104D01*
X44376744Y-29457103D01*
X44376744Y-29457102D01*
X44293081Y-29315635D01*
X44293080Y-29315634D01*
X44293079Y-29315632D01*
X44293076Y-29315628D01*
X44176875Y-29199427D01*
X44176864Y-29199418D01*
X44176857Y-29199414D01*
X44055807Y-29127826D01*
X44055806Y-29127825D01*
X44043076Y-29120297D01*
X44035398Y-29115756D01*
X44035397Y-29115755D01*
X44035396Y-29115755D01*
X44035393Y-29115754D01*
X44011184Y-29108720D01*
X44011183Y-29108720D01*
X43877579Y-29069903D01*
X43877573Y-29069902D01*
X43877572Y-29069901D01*
X43877570Y-29069901D01*
X43840708Y-29067000D01*
X43840701Y-29067000D01*
X43840694Y-29067000D01*
X43409306Y-29067000D01*
X43409298Y-29067000D01*
X43409290Y-29067000D01*
X43372428Y-29069901D01*
X43372426Y-29069901D01*
X43372425Y-29069902D01*
X43372419Y-29069903D01*
X43214612Y-29115752D01*
X43214599Y-29115756D01*
X43087188Y-29191107D01*
X43069367Y-29199804D01*
X43044839Y-29209430D01*
X42975242Y-29215597D01*
X42965433Y-29213637D01*
X42922689Y-29196356D01*
X42902761Y-29183548D01*
X42890164Y-29177714D01*
X42879731Y-29171544D01*
X42793076Y-29120297D01*
X42785398Y-29115756D01*
X42785397Y-29115755D01*
X42785396Y-29115755D01*
X42785393Y-29115754D01*
X42761184Y-29108720D01*
X42761183Y-29108720D01*
X42627579Y-29069903D01*
X42627573Y-29069902D01*
X42627572Y-29069901D01*
X42627570Y-29069901D01*
X42590708Y-29067000D01*
X42590701Y-29067000D01*
X42590694Y-29067000D01*
X42159306Y-29067000D01*
X42159298Y-29067000D01*
X42159290Y-29067000D01*
X42122428Y-29069901D01*
X42122426Y-29069901D01*
X42122425Y-29069902D01*
X42122419Y-29069903D01*
X41964612Y-29115752D01*
X41964599Y-29115756D01*
X41823141Y-29199414D01*
X41823134Y-29199418D01*
X41823123Y-29199427D01*
X41706927Y-29315623D01*
X41706918Y-29315634D01*
X41706914Y-29315641D01*
X41623256Y-29457099D01*
X41623255Y-29457104D01*
X41577403Y-29614919D01*
X41577402Y-29614925D01*
X41577401Y-29614926D01*
X41577401Y-29614928D01*
X41574500Y-29651790D01*
X41574500Y-31183208D01*
X41577401Y-31220070D01*
X41577401Y-31220072D01*
X41577402Y-31220073D01*
X41577403Y-31220079D01*
X41614339Y-31347208D01*
X41623254Y-31377893D01*
X41623255Y-31377896D01*
X41623257Y-31377902D01*
X41645553Y-31415601D01*
X41658425Y-31445998D01*
X41666905Y-31476995D01*
X41671300Y-31509712D01*
X41671300Y-41490285D01*
X41666904Y-41523008D01*
X41658425Y-41553999D01*
X41645554Y-41584395D01*
X41623259Y-41622094D01*
X41623256Y-41622099D01*
X41623252Y-41622110D01*
X41577403Y-41779919D01*
X41577402Y-41779925D01*
X41577401Y-41779926D01*
X41577401Y-41779928D01*
X41574500Y-41816790D01*
X41574500Y-43348206D01*
X41576445Y-43372919D01*
X41577401Y-43385063D01*
X41577401Y-43385067D01*
X41577402Y-43385069D01*
X41582032Y-43401007D01*
X41582034Y-43401015D01*
X41585015Y-43411273D01*
X41585017Y-43411280D01*
X41588275Y-43422495D01*
X41592098Y-43445749D01*
X41593055Y-43450156D01*
X41594347Y-43465356D01*
X41595127Y-43467281D01*
X41594918Y-43472078D01*
X41595756Y-43481930D01*
X41595618Y-43485055D01*
X41593645Y-43501388D01*
X41593595Y-43502542D01*
X41593462Y-43503247D01*
X41573887Y-43601662D01*
X41573887Y-43607192D01*
X41573887Y-43759350D01*
X41573887Y-43759352D01*
X41573886Y-43759352D01*
X39000544Y-43759352D01*
X39030104Y-43729792D01*
X39042184Y-43713166D01*
X39063108Y-43684365D01*
X39155051Y-43557816D01*
X39251557Y-43368412D01*
X39317246Y-43166243D01*
X39350500Y-42956287D01*
X39350500Y-42743713D01*
X39317246Y-42533757D01*
X39251557Y-42331588D01*
X39155051Y-42142184D01*
X39155049Y-42142181D01*
X39155048Y-42142179D01*
X39154702Y-42141703D01*
X39154700Y-42141699D01*
X39030112Y-41970216D01*
X38879782Y-41819886D01*
X38707824Y-41694953D01*
X38707258Y-41694606D01*
X38705627Y-41693357D01*
X38703901Y-41692103D01*
X38703932Y-41692059D01*
X38686960Y-41679062D01*
X38676683Y-41669357D01*
X38641457Y-41609017D01*
X38644445Y-41539212D01*
X38680613Y-41485493D01*
X38687783Y-41479281D01*
X38704187Y-41467275D01*
X38707816Y-41465051D01*
X38729789Y-41449086D01*
X38879786Y-41340109D01*
X38879787Y-41340106D01*
X38879790Y-41340105D01*
X38879792Y-41340104D01*
X38879793Y-41340102D01*
X38879847Y-41340063D01*
X38880605Y-41339290D01*
X39030104Y-41189792D01*
X39030106Y-41189788D01*
X39030109Y-41189786D01*
X39155048Y-41017820D01*
X39155047Y-41017820D01*
X39155051Y-41017816D01*
X39155053Y-41017810D01*
X39175445Y-40989744D01*
X39183730Y-40961529D01*
X39251557Y-40828412D01*
X39317246Y-40626243D01*
X39350500Y-40416287D01*
X39350500Y-40203713D01*
X39317246Y-39993757D01*
X39251557Y-39791588D01*
X39155051Y-39602184D01*
X39155049Y-39602181D01*
X39155048Y-39602179D01*
X39154702Y-39601703D01*
X39154700Y-39601699D01*
X39030112Y-39430216D01*
X38879782Y-39279886D01*
X38707824Y-39154953D01*
X38707258Y-39154606D01*
X38705627Y-39153357D01*
X38703901Y-39152103D01*
X38703932Y-39152059D01*
X38686960Y-39139062D01*
X38676683Y-39129357D01*
X38641457Y-39069017D01*
X38644445Y-38999212D01*
X38680613Y-38945493D01*
X38687783Y-38939281D01*
X38704187Y-38927275D01*
X38707816Y-38925051D01*
X38729789Y-38909086D01*
X38879786Y-38800109D01*
X38879787Y-38800106D01*
X38879790Y-38800105D01*
X38879792Y-38800104D01*
X38879793Y-38800102D01*
X38879847Y-38800063D01*
X38880605Y-38799290D01*
X39030104Y-38649792D01*
X39030106Y-38649788D01*
X39030109Y-38649786D01*
X39155048Y-38477820D01*
X39155047Y-38477820D01*
X39155051Y-38477816D01*
X39155053Y-38477810D01*
X39175445Y-38449744D01*
X39183730Y-38421529D01*
X39251557Y-38288412D01*
X39317246Y-38086243D01*
X39350500Y-37876287D01*
X39350500Y-37663713D01*
X39317246Y-37453757D01*
X39251557Y-37251588D01*
X39155051Y-37062184D01*
X39155049Y-37062181D01*
X39155048Y-37062179D01*
X39154702Y-37061703D01*
X39154700Y-37061699D01*
X39030112Y-36890216D01*
X38879782Y-36739886D01*
X38707824Y-36614953D01*
X38707258Y-36614606D01*
X38705627Y-36613357D01*
X38703901Y-36612103D01*
X38703932Y-36612059D01*
X38686960Y-36599062D01*
X38676683Y-36589357D01*
X38641457Y-36529017D01*
X38644445Y-36459212D01*
X38680613Y-36405493D01*
X38687783Y-36399281D01*
X38704187Y-36387275D01*
X38707816Y-36385051D01*
X38729789Y-36369086D01*
X38879786Y-36260109D01*
X38879787Y-36260106D01*
X38879790Y-36260105D01*
X38879792Y-36260104D01*
X38879795Y-36260101D01*
X38879847Y-36260063D01*
X38880605Y-36259290D01*
X39030104Y-36109792D01*
X39030106Y-36109788D01*
X39030109Y-36109786D01*
X39155048Y-35937820D01*
X39155047Y-35937820D01*
X39155051Y-35937816D01*
X39155053Y-35937810D01*
X39175445Y-35909744D01*
X39183730Y-35881529D01*
X39251557Y-35748412D01*
X39317246Y-35546243D01*
X39350500Y-35336287D01*
X39350500Y-35123713D01*
X39317246Y-34913757D01*
X39251557Y-34711588D01*
X39155051Y-34522184D01*
X39155049Y-34522181D01*
X39155048Y-34522179D01*
X39154702Y-34521703D01*
X39154700Y-34521699D01*
X39030112Y-34350216D01*
X38879782Y-34199886D01*
X38707824Y-34074953D01*
X38707258Y-34074606D01*
X38705627Y-34073357D01*
X38703901Y-34072103D01*
X38703932Y-34072059D01*
X38686960Y-34059062D01*
X38676683Y-34049357D01*
X38641457Y-33989017D01*
X38644445Y-33919212D01*
X38680613Y-33865493D01*
X38687783Y-33859281D01*
X38704187Y-33847275D01*
X38707816Y-33845051D01*
X38729789Y-33829086D01*
X38879786Y-33720109D01*
X38879787Y-33720106D01*
X38879790Y-33720105D01*
X38879792Y-33720104D01*
X38879793Y-33720102D01*
X38879847Y-33720063D01*
X38880605Y-33719290D01*
X39030104Y-33569792D01*
X39030106Y-33569788D01*
X39030109Y-33569786D01*
X39155048Y-33397820D01*
X39155047Y-33397820D01*
X39155051Y-33397816D01*
X39155053Y-33397810D01*
X39175445Y-33369744D01*
X39183730Y-33341529D01*
X39251557Y-33208412D01*
X39317246Y-33006243D01*
X39350500Y-32796287D01*
X39350500Y-32583713D01*
X39317246Y-32373757D01*
X39251557Y-32171588D01*
X39155051Y-31982184D01*
X39155049Y-31982181D01*
X39155048Y-31982179D01*
X39154702Y-31981703D01*
X39154700Y-31981699D01*
X39030112Y-31810216D01*
X38879788Y-31659892D01*
X38879786Y-31659890D01*
X38707820Y-31534951D01*
X38658286Y-31509712D01*
X38540245Y-31449567D01*
X38540240Y-31449565D01*
X38518414Y-31438444D01*
X38518413Y-31438443D01*
X38518412Y-31438443D01*
X38421550Y-31406970D01*
X38325074Y-31375623D01*
X38320552Y-31373770D01*
X38311362Y-31371600D01*
X38306599Y-31371226D01*
X38154957Y-31347208D01*
X38135489Y-31344124D01*
X38106290Y-31339500D01*
X38106287Y-31339500D01*
X37893713Y-31339500D01*
X37893709Y-31339500D01*
X37854776Y-31345666D01*
X37845042Y-31347208D01*
X37807654Y-31353129D01*
X37683763Y-31372752D01*
X37481582Y-31438445D01*
X37299516Y-31531212D01*
X37275592Y-31540427D01*
X37258675Y-31545002D01*
X37188822Y-31543501D01*
X37130869Y-31504473D01*
X37130767Y-31504350D01*
X37130278Y-31503759D01*
X37104373Y-31449765D01*
X37103058Y-31443391D01*
X37100500Y-31418337D01*
X37100500Y-28886834D01*
X37105522Y-28851901D01*
X37109433Y-28838582D01*
X37147206Y-28779805D01*
X37210713Y-28750786D01*
X37211474Y-28750677D01*
X37271256Y-28756770D01*
X37279988Y-28759921D01*
X37294184Y-28766070D01*
X37481588Y-28861557D01*
X37683757Y-28927246D01*
X37893713Y-28960500D01*
X37893714Y-28960500D01*
X38106286Y-28960500D01*
X38106287Y-28960500D01*
X38316243Y-28927246D01*
X38518412Y-28861557D01*
X38707816Y-28765051D01*
X38819728Y-28683743D01*
X38879786Y-28640109D01*
X38879787Y-28640106D01*
X38879789Y-28640105D01*
X38879792Y-28640104D01*
X38879793Y-28640102D01*
X38879848Y-28640063D01*
X38880609Y-28639286D01*
X39030104Y-28489792D01*
X39030106Y-28489788D01*
X39030109Y-28489786D01*
X39155048Y-28317820D01*
X39155047Y-28317820D01*
X39155051Y-28317816D01*
X39155053Y-28317810D01*
X39175445Y-28289744D01*
X39183730Y-28261529D01*
X39251557Y-28128412D01*
X39317246Y-27926243D01*
X39350500Y-27716287D01*
X39350500Y-27503713D01*
X39317246Y-27293757D01*
X39251557Y-27091588D01*
X39155051Y-26902184D01*
X39155049Y-26902181D01*
X39155048Y-26902179D01*
X39154702Y-26901703D01*
X39154700Y-26901699D01*
X39030112Y-26730216D01*
X38879788Y-26579892D01*
X38879786Y-26579890D01*
X38707820Y-26454951D01*
X38647648Y-26424292D01*
X38540245Y-26369567D01*
X38540240Y-26369565D01*
X38518414Y-26358444D01*
X38518413Y-26358443D01*
X38518412Y-26358443D01*
X38495105Y-26350870D01*
X38486079Y-26347937D01*
X38454412Y-26332367D01*
X38448678Y-26328446D01*
X38404449Y-26274358D01*
X38396484Y-26204944D01*
X38427311Y-26142243D01*
X38485451Y-26106619D01*
X38486937Y-26106206D01*
X38491160Y-26105032D01*
X38524376Y-26100500D01*
X47370500Y-26100500D01*
X47437539Y-26120185D01*
G37*
%TD.AperFunction*%
%TD*%
M02*
