M48
; DRILL file KiCad 10.0.3 date 2026-08-10T18:04:42
; FORMAT={-:-/ absolute / metric / decimal}
; #@! TF.CreationDate,2026-08-10T18:04:42+08:00
; #@! TF.GenerationSoftware,Kicad,Pcbnew,10.0.3
; #@! TF.FileFunction,Plated,1,2,PTH
FMAT,2
METRIC
; #@! TA.AperFunction,Plated,PTH,ViaDrill
T1C0.300
; #@! TA.AperFunction,Plated,PTH,ComponentDrill
T2C1.000
; #@! TA.AperFunction,Plated,PTH,ComponentDrill
T3C1.190
; #@! TA.AperFunction,Plated,PTH,ComponentDrill
T4C1.300
%
G90
G05
T1
X39.6Y-29.9
X39.6Y-31.4
X39.6Y-45.4
X40.85Y-29.9
X40.85Y-31.4
X40.85Y-32.9
X40.85Y-34.4
X40.85Y-35.9
X40.85Y-37.4
X40.85Y-38.9
X40.85Y-40.4
X40.85Y-41.9
X41.35Y-32.15
X41.35Y-33.65
X41.35Y-35.15
X41.35Y-36.65
X41.35Y-38.15
X41.35Y-39.65
X41.35Y-41.15
X41.6Y-44.9
X41.6Y-46.4
X42.35Y-45.65
X42.374Y-43.681
X43.6Y-45.65
X44.35Y-46.4
X44.404Y-42.85
X44.6Y-32.15
X44.6Y-33.65
X44.6Y-35.15
X44.6Y-36.65
X44.6Y-38.15
X44.6Y-39.65
X44.6Y-41.15
X45.1Y-30.15
X45.1Y-31.4
X45.1Y-32.9
X45.1Y-34.4
X45.1Y-35.9
X45.1Y-37.4
X45.1Y-38.9
X45.1Y-40.4
X45.1Y-41.9
X46.85Y-31.9
X46.85Y-33.4
X46.85Y-34.9
X46.85Y-36.4
X46.85Y-37.9
X46.85Y-39.4
X46.85Y-40.9
X46.85Y-42.4
X46.85Y-43.9
X46.85Y-45.4
X52.35Y-26.9
X52.35Y-28.4
X52.35Y-29.9
X52.35Y-31.4
X52.35Y-32.9
X52.35Y-34.4
X52.35Y-35.9
X52.35Y-37.15
X52.35Y-38.65
X52.35Y-40.15
X52.35Y-41.65
X52.35Y-43.15
X52.35Y-44.65
X52.35Y-46.15
X53.85Y-26.9
X53.85Y-28.4
X53.85Y-32.9
X53.85Y-34.4
X53.85Y-35.9
X53.85Y-37.15
X53.85Y-38.65
X53.85Y-40.15
X53.85Y-44.65
X53.85Y-46.15
X55.35Y-26.9
X55.35Y-28.4
X55.35Y-32.9
X55.35Y-34.4
X55.35Y-35.9
X55.35Y-37.15
X55.35Y-38.65
X55.35Y-40.15
X55.35Y-44.65
X55.35Y-46.15
X56.85Y-26.9
X56.85Y-28.4
X56.85Y-29.9
X56.85Y-31.4
X56.85Y-32.9
X56.85Y-34.4
X56.85Y-35.9
X56.85Y-37.15
X56.85Y-38.65
X56.85Y-40.15
X56.85Y-41.65
X56.85Y-43.15
X56.85Y-44.65
X56.85Y-46.15
X58.35Y-26.9
X58.35Y-28.4
X58.35Y-29.9
X58.35Y-31.4
X58.35Y-32.9
X58.35Y-34.4
X58.35Y-35.9
X58.35Y-37.15
X58.35Y-38.65
X58.35Y-40.15
X58.35Y-41.65
X58.35Y-43.15
X58.35Y-44.65
X58.35Y-46.15
X60.5Y-36.5
X61.6Y-30.15
X61.6Y-31.65
X61.6Y-33.4
X61.6Y-34.9
X61.6Y-38.15
X61.6Y-39.65
X61.6Y-41.4
X61.6Y-42.9
X64.1Y-30.15
X64.1Y-31.65
X64.1Y-41.4
X64.1Y-42.9
X65.6Y-27.15
X65.6Y-28.65
X65.6Y-30.15
X65.6Y-31.65
X65.6Y-41.4
X65.6Y-42.9
X65.6Y-44.4
X65.6Y-45.9
X66.6Y-33.15
X66.6Y-34.9
X66.6Y-38.15
X66.6Y-39.9
T2
X38.0Y-27.61
X38.0Y-30.15
X38.0Y-32.69
X38.0Y-35.23
X38.0Y-37.77
X38.0Y-40.31
X38.0Y-42.85
X38.0Y-45.39
X60.5Y-28.217
X60.5Y-44.782
X63.0Y-28.217
X63.0Y-44.782
T3
X64.53Y-33.96
X64.53Y-36.5
X64.53Y-39.04
T4
X49.5Y-30.867
X49.5Y-42.133
X54.5Y-30.867
X54.5Y-42.133
M30
