%TF.GenerationSoftware,KiCad,Pcbnew,10.0.3*%
%TF.CreationDate,2026-08-10T18:04:38+08:00*%
%TF.ProjectId,Renesas ArmSync CAN Connector,52656e65-7361-4732-9041-726d53796e63,rev?*%
%TF.SameCoordinates,Original*%
%TF.FileFunction,Legend,Top*%
%TF.FilePolarity,Positive*%
%FSLAX46Y46*%
G04 Gerber Fmt 4.6, Leading zero omitted, Abs format (unit mm)*
G04 Created by KiCad (PCBNEW 10.0.3) date 2026-08-10 18:04:38*
%MOMM*%
%LPD*%
G01*
G04 APERTURE LIST*
%ADD10C,0.150000*%
%ADD11C,0.120000*%
G04 APERTURE END LIST*
D10*
X42243523Y-41377819D02*
X41767333Y-41377819D01*
X41767333Y-41377819D02*
X41767333Y-40377819D01*
X42261904Y-32614819D02*
X41785714Y-32614819D01*
X41785714Y-32614819D02*
X41785714Y-31614819D01*
X43642857Y-32614819D02*
X43642857Y-31614819D01*
X43642857Y-32091009D02*
X44214285Y-32091009D01*
X44214285Y-32614819D02*
X44214285Y-31614819D01*
X43642857Y-41377819D02*
X43642857Y-40377819D01*
X43642857Y-40854009D02*
X44214285Y-40854009D01*
X44214285Y-41377819D02*
X44214285Y-40377819D01*
X53738095Y-36070666D02*
X53642857Y-36023047D01*
X53642857Y-36023047D02*
X53500000Y-36023047D01*
X53500000Y-36023047D02*
X53357143Y-36070666D01*
X53357143Y-36070666D02*
X53261905Y-36165904D01*
X53261905Y-36165904D02*
X53214286Y-36261142D01*
X53214286Y-36261142D02*
X53166667Y-36451618D01*
X53166667Y-36451618D02*
X53166667Y-36594475D01*
X53166667Y-36594475D02*
X53214286Y-36784951D01*
X53214286Y-36784951D02*
X53261905Y-36880189D01*
X53261905Y-36880189D02*
X53357143Y-36975428D01*
X53357143Y-36975428D02*
X53500000Y-37023047D01*
X53500000Y-37023047D02*
X53595238Y-37023047D01*
X53595238Y-37023047D02*
X53738095Y-36975428D01*
X53738095Y-36975428D02*
X53785714Y-36927808D01*
X53785714Y-36927808D02*
X53785714Y-36594475D01*
X53785714Y-36594475D02*
X53595238Y-36594475D01*
X54214286Y-37023047D02*
X54214286Y-36023047D01*
X54214286Y-36023047D02*
X54785714Y-37023047D01*
X54785714Y-37023047D02*
X54785714Y-36023047D01*
X55261905Y-37023047D02*
X55261905Y-36023047D01*
X55261905Y-36023047D02*
X55500000Y-36023047D01*
X55500000Y-36023047D02*
X55642857Y-36070666D01*
X55642857Y-36070666D02*
X55738095Y-36165904D01*
X55738095Y-36165904D02*
X55785714Y-36261142D01*
X55785714Y-36261142D02*
X55833333Y-36451618D01*
X55833333Y-36451618D02*
X55833333Y-36594475D01*
X55833333Y-36594475D02*
X55785714Y-36784951D01*
X55785714Y-36784951D02*
X55738095Y-36880189D01*
X55738095Y-36880189D02*
X55642857Y-36975428D01*
X55642857Y-36975428D02*
X55500000Y-37023047D01*
X55500000Y-37023047D02*
X55261905Y-37023047D01*
X42357142Y-34097080D02*
X42309523Y-34144700D01*
X42309523Y-34144700D02*
X42166666Y-34192319D01*
X42166666Y-34192319D02*
X42071428Y-34192319D01*
X42071428Y-34192319D02*
X41928571Y-34144700D01*
X41928571Y-34144700D02*
X41833333Y-34049461D01*
X41833333Y-34049461D02*
X41785714Y-33954223D01*
X41785714Y-33954223D02*
X41738095Y-33763747D01*
X41738095Y-33763747D02*
X41738095Y-33620890D01*
X41738095Y-33620890D02*
X41785714Y-33430414D01*
X41785714Y-33430414D02*
X41833333Y-33335176D01*
X41833333Y-33335176D02*
X41928571Y-33239938D01*
X41928571Y-33239938D02*
X42071428Y-33192319D01*
X42071428Y-33192319D02*
X42166666Y-33192319D01*
X42166666Y-33192319D02*
X42309523Y-33239938D01*
X42309523Y-33239938D02*
X42357142Y-33287557D01*
X42738095Y-33906604D02*
X43214285Y-33906604D01*
X42642857Y-34192319D02*
X42976190Y-33192319D01*
X42976190Y-33192319D02*
X43309523Y-34192319D01*
X43642857Y-34192319D02*
X43642857Y-33192319D01*
X43642857Y-33192319D02*
X44214285Y-34192319D01*
X44214285Y-34192319D02*
X44214285Y-33192319D01*
X60232438Y-40120857D02*
X60184819Y-40216095D01*
X60184819Y-40216095D02*
X60184819Y-40358952D01*
X60184819Y-40358952D02*
X60232438Y-40501809D01*
X60232438Y-40501809D02*
X60327676Y-40597047D01*
X60327676Y-40597047D02*
X60422914Y-40644666D01*
X60422914Y-40644666D02*
X60613390Y-40692285D01*
X60613390Y-40692285D02*
X60756247Y-40692285D01*
X60756247Y-40692285D02*
X60946723Y-40644666D01*
X60946723Y-40644666D02*
X61041961Y-40597047D01*
X61041961Y-40597047D02*
X61137200Y-40501809D01*
X61137200Y-40501809D02*
X61184819Y-40358952D01*
X61184819Y-40358952D02*
X61184819Y-40263714D01*
X61184819Y-40263714D02*
X61137200Y-40120857D01*
X61137200Y-40120857D02*
X61089580Y-40073238D01*
X61089580Y-40073238D02*
X60756247Y-40073238D01*
X60756247Y-40073238D02*
X60756247Y-40263714D01*
X61184819Y-39644666D02*
X60184819Y-39644666D01*
X60184819Y-39644666D02*
X61184819Y-39073238D01*
X61184819Y-39073238D02*
X60184819Y-39073238D01*
X61184819Y-38597047D02*
X60184819Y-38597047D01*
X60184819Y-38597047D02*
X60184819Y-38358952D01*
X60184819Y-38358952D02*
X60232438Y-38216095D01*
X60232438Y-38216095D02*
X60327676Y-38120857D01*
X60327676Y-38120857D02*
X60422914Y-38073238D01*
X60422914Y-38073238D02*
X60613390Y-38025619D01*
X60613390Y-38025619D02*
X60756247Y-38025619D01*
X60756247Y-38025619D02*
X60946723Y-38073238D01*
X60946723Y-38073238D02*
X61041961Y-38120857D01*
X61041961Y-38120857D02*
X61137200Y-38216095D01*
X61137200Y-38216095D02*
X61184819Y-38358952D01*
X61184819Y-38358952D02*
X61184819Y-38597047D01*
X60184819Y-36358952D02*
X60184819Y-36835142D01*
X60184819Y-36835142D02*
X60661009Y-36882761D01*
X60661009Y-36882761D02*
X60613390Y-36835142D01*
X60613390Y-36835142D02*
X60565771Y-36739904D01*
X60565771Y-36739904D02*
X60565771Y-36501809D01*
X60565771Y-36501809D02*
X60613390Y-36406571D01*
X60613390Y-36406571D02*
X60661009Y-36358952D01*
X60661009Y-36358952D02*
X60756247Y-36311333D01*
X60756247Y-36311333D02*
X60994342Y-36311333D01*
X60994342Y-36311333D02*
X61089580Y-36358952D01*
X61089580Y-36358952D02*
X61137200Y-36406571D01*
X61137200Y-36406571D02*
X61184819Y-36501809D01*
X61184819Y-36501809D02*
X61184819Y-36739904D01*
X61184819Y-36739904D02*
X61137200Y-36835142D01*
X61137200Y-36835142D02*
X61089580Y-36882761D01*
X60184819Y-36025618D02*
X61184819Y-35692285D01*
X61184819Y-35692285D02*
X60184819Y-35358952D01*
X61137200Y-34311332D02*
X61184819Y-34168475D01*
X61184819Y-34168475D02*
X61184819Y-33930380D01*
X61184819Y-33930380D02*
X61137200Y-33835142D01*
X61137200Y-33835142D02*
X61089580Y-33787523D01*
X61089580Y-33787523D02*
X60994342Y-33739904D01*
X60994342Y-33739904D02*
X60899104Y-33739904D01*
X60899104Y-33739904D02*
X60803866Y-33787523D01*
X60803866Y-33787523D02*
X60756247Y-33835142D01*
X60756247Y-33835142D02*
X60708628Y-33930380D01*
X60708628Y-33930380D02*
X60661009Y-34120856D01*
X60661009Y-34120856D02*
X60613390Y-34216094D01*
X60613390Y-34216094D02*
X60565771Y-34263713D01*
X60565771Y-34263713D02*
X60470533Y-34311332D01*
X60470533Y-34311332D02*
X60375295Y-34311332D01*
X60375295Y-34311332D02*
X60280057Y-34263713D01*
X60280057Y-34263713D02*
X60232438Y-34216094D01*
X60232438Y-34216094D02*
X60184819Y-34120856D01*
X60184819Y-34120856D02*
X60184819Y-33882761D01*
X60184819Y-33882761D02*
X60232438Y-33739904D01*
X61184819Y-33311332D02*
X60184819Y-33311332D01*
X60232438Y-32311333D02*
X60184819Y-32406571D01*
X60184819Y-32406571D02*
X60184819Y-32549428D01*
X60184819Y-32549428D02*
X60232438Y-32692285D01*
X60232438Y-32692285D02*
X60327676Y-32787523D01*
X60327676Y-32787523D02*
X60422914Y-32835142D01*
X60422914Y-32835142D02*
X60613390Y-32882761D01*
X60613390Y-32882761D02*
X60756247Y-32882761D01*
X60756247Y-32882761D02*
X60946723Y-32835142D01*
X60946723Y-32835142D02*
X61041961Y-32787523D01*
X61041961Y-32787523D02*
X61137200Y-32692285D01*
X61137200Y-32692285D02*
X61184819Y-32549428D01*
X61184819Y-32549428D02*
X61184819Y-32454190D01*
X61184819Y-32454190D02*
X61137200Y-32311333D01*
X61137200Y-32311333D02*
X61089580Y-32263714D01*
X61089580Y-32263714D02*
X60756247Y-32263714D01*
X60756247Y-32263714D02*
X60756247Y-32454190D01*
X48309524Y-36118285D02*
X48357143Y-36070666D01*
X48357143Y-36070666D02*
X48452381Y-36023047D01*
X48452381Y-36023047D02*
X48690476Y-36023047D01*
X48690476Y-36023047D02*
X48785714Y-36070666D01*
X48785714Y-36070666D02*
X48833333Y-36118285D01*
X48833333Y-36118285D02*
X48880952Y-36213523D01*
X48880952Y-36213523D02*
X48880952Y-36308761D01*
X48880952Y-36308761D02*
X48833333Y-36451618D01*
X48833333Y-36451618D02*
X48261905Y-37023047D01*
X48261905Y-37023047D02*
X48880952Y-37023047D01*
X49738095Y-36356380D02*
X49738095Y-37023047D01*
X49500000Y-35975428D02*
X49261905Y-36689713D01*
X49261905Y-36689713D02*
X49880952Y-36689713D01*
X50119048Y-36023047D02*
X50452381Y-37023047D01*
X50452381Y-37023047D02*
X50785714Y-36023047D01*
X42357142Y-39749080D02*
X42309523Y-39796700D01*
X42309523Y-39796700D02*
X42166666Y-39844319D01*
X42166666Y-39844319D02*
X42071428Y-39844319D01*
X42071428Y-39844319D02*
X41928571Y-39796700D01*
X41928571Y-39796700D02*
X41833333Y-39701461D01*
X41833333Y-39701461D02*
X41785714Y-39606223D01*
X41785714Y-39606223D02*
X41738095Y-39415747D01*
X41738095Y-39415747D02*
X41738095Y-39272890D01*
X41738095Y-39272890D02*
X41785714Y-39082414D01*
X41785714Y-39082414D02*
X41833333Y-38987176D01*
X41833333Y-38987176D02*
X41928571Y-38891938D01*
X41928571Y-38891938D02*
X42071428Y-38844319D01*
X42071428Y-38844319D02*
X42166666Y-38844319D01*
X42166666Y-38844319D02*
X42309523Y-38891938D01*
X42309523Y-38891938D02*
X42357142Y-38939557D01*
X42738095Y-39558604D02*
X43214285Y-39558604D01*
X42642857Y-39844319D02*
X42976190Y-38844319D01*
X42976190Y-38844319D02*
X43309523Y-39844319D01*
X43642857Y-39844319D02*
X43642857Y-38844319D01*
X43642857Y-38844319D02*
X44214285Y-39844319D01*
X44214285Y-39844319D02*
X44214285Y-38844319D01*
%TO.C,J1*%
D11*
X36670000Y-44120000D02*
X36670000Y-26280000D01*
X36670000Y-46720000D02*
X36670000Y-45390000D01*
X38000000Y-46720000D02*
X36670000Y-46720000D01*
X39330000Y-26280000D02*
X36670000Y-26280000D01*
X39330000Y-44120000D02*
X36670000Y-44120000D01*
X39330000Y-44120000D02*
X39330000Y-26280000D01*
%TO.C,J8*%
X57950000Y-44982500D02*
X58700000Y-44982500D01*
X58700000Y-42032500D02*
X61750000Y-42032500D01*
X58700000Y-44982500D02*
X58700000Y-42032500D01*
X64600000Y-47532500D02*
X65850000Y-47532500D01*
X64800000Y-42032500D02*
X61750000Y-42032500D01*
X64800000Y-44982500D02*
X64800000Y-42032500D01*
X65550000Y-44982500D02*
X64800000Y-44982500D01*
X65850000Y-47532500D02*
X65850000Y-46282500D01*
X57950000Y-46482500D02*
X59750000Y-46482500D01*
X59750000Y-47232500D01*
X57950000Y-47232500D01*
X57950000Y-46482500D01*
X61250000Y-46482500D02*
X62250000Y-46482500D01*
X62250000Y-47232500D01*
X61250000Y-47232500D01*
X61250000Y-46482500D01*
X63750000Y-46482500D02*
X65550000Y-46482500D01*
X65550000Y-47232500D01*
X63750000Y-47232500D01*
X63750000Y-46482500D01*
X57940000Y-41272500D02*
X65560000Y-41272500D01*
X65560000Y-47242500D01*
X57940000Y-47242500D01*
X57940000Y-41272500D01*
%TO.C,CAN*%
X40015000Y-28827500D02*
X40015000Y-30277500D01*
X40015000Y-30277500D02*
X41815000Y-30277500D01*
X44185000Y-30277500D02*
X44185000Y-31267500D01*
X44715000Y-26007500D02*
X41285000Y-26007500D01*
X45985000Y-28827500D02*
X45985000Y-30277500D01*
X45985000Y-30277500D02*
X44185000Y-30277500D01*
%TO.C,J7*%
X57650000Y-25467500D02*
X57650000Y-26717500D01*
X57950000Y-28017500D02*
X58700000Y-28017500D01*
X58700000Y-28017500D02*
X58700000Y-30967500D01*
X58700000Y-30967500D02*
X61750000Y-30967500D01*
X58900000Y-25467500D02*
X57650000Y-25467500D01*
X64800000Y-28017500D02*
X64800000Y-30967500D01*
X64800000Y-30967500D02*
X61750000Y-30967500D01*
X65550000Y-28017500D02*
X64800000Y-28017500D01*
X57940000Y-25757500D02*
X65560000Y-25757500D01*
X65560000Y-31727500D01*
X57940000Y-31727500D01*
X57940000Y-25757500D01*
X57950000Y-25767500D02*
X59750000Y-25767500D01*
X59750000Y-26517500D01*
X57950000Y-26517500D01*
X57950000Y-25767500D01*
X61250000Y-25767500D02*
X62250000Y-25767500D01*
X62250000Y-26517500D01*
X61250000Y-26517500D01*
X61250000Y-25767500D01*
X63750000Y-25767500D02*
X65550000Y-25767500D01*
X65550000Y-26517500D01*
X63750000Y-26517500D01*
X63750000Y-25767500D01*
%TO.C,GND 5V SIG*%
X61540000Y-33960000D02*
X62540000Y-33960000D01*
X61540000Y-34210000D02*
X62540000Y-34210000D01*
X61540000Y-38790000D02*
X62540000Y-38790000D01*
X62540000Y-33960000D02*
X62540000Y-39040000D01*
X62540000Y-33960000D02*
X63070000Y-34210000D01*
X62540000Y-39040000D02*
X61540000Y-39040000D01*
X63070000Y-34210000D02*
X63070000Y-38790000D01*
X63070000Y-38790000D02*
X62540000Y-39040000D01*
X66530000Y-32290000D02*
X62530000Y-32290000D01*
X66960000Y-33160000D02*
X66960000Y-34760000D01*
X66960000Y-34760000D02*
X67560000Y-34760000D01*
X66960000Y-35700000D02*
X66960000Y-37300000D01*
X66960000Y-37300000D02*
X67560000Y-37300000D01*
X66960000Y-38240000D02*
X66960000Y-39840000D01*
X66960000Y-39840000D02*
X67560000Y-39840000D01*
X67560000Y-33160000D02*
X66960000Y-33160000D01*
X67560000Y-35700000D02*
X66960000Y-35700000D01*
X67560000Y-38240000D02*
X66960000Y-38240000D01*
X61540000Y-32580000D02*
X67560000Y-32580000D01*
X67560000Y-40420000D01*
X61540000Y-40420000D01*
X61540000Y-32580000D01*
%TO.C,24V*%
X46880000Y-25747500D02*
X57120000Y-25747500D01*
X46880000Y-32867500D02*
X57120000Y-32867500D01*
X46880000Y-34987500D02*
X46880000Y-25747500D01*
X49200000Y-34987500D02*
X46880000Y-34987500D01*
X57120000Y-25747500D02*
X57120000Y-34987500D01*
X57120000Y-34987500D02*
X49800000Y-34987500D01*
X50500000Y-27667500D02*
G75*
G02*
X48500000Y-27667500I-1000000J0D01*
G01*
X48500000Y-27667500D02*
G75*
G02*
X50500000Y-27667500I1000000J0D01*
G01*
X55500000Y-27667500D02*
G75*
G02*
X53500000Y-27667500I-1000000J0D01*
G01*
X53500000Y-27667500D02*
G75*
G02*
X55500000Y-27667500I1000000J0D01*
G01*
X49500000Y-34987500D02*
X49940000Y-35597500D01*
X49060000Y-35597500D01*
X49500000Y-34987500D01*
G36*
X49940000Y-35597500D02*
G01*
X49060000Y-35597500D01*
X49500000Y-34987500D01*
X49940000Y-35597500D01*
G37*
%TO.C,J3*%
X46880000Y-38012500D02*
X54200000Y-38012500D01*
X46880000Y-47252500D02*
X46880000Y-38012500D01*
X54800000Y-38012500D02*
X57120000Y-38012500D01*
X57120000Y-38012500D02*
X57120000Y-47252500D01*
X57120000Y-40132500D02*
X46880000Y-40132500D01*
X57120000Y-47252500D02*
X46880000Y-47252500D01*
X50500000Y-45332500D02*
G75*
G02*
X48500000Y-45332500I-1000000J0D01*
G01*
X48500000Y-45332500D02*
G75*
G02*
X50500000Y-45332500I1000000J0D01*
G01*
X55500000Y-45332500D02*
G75*
G02*
X53500000Y-45332500I-1000000J0D01*
G01*
X53500000Y-45332500D02*
G75*
G02*
X55500000Y-45332500I1000000J0D01*
G01*
X54500000Y-38012500D02*
X54060000Y-37402500D01*
X54940000Y-37402500D01*
X54500000Y-38012500D01*
G36*
X54500000Y-38012500D02*
G01*
X54060000Y-37402500D01*
X54940000Y-37402500D01*
X54500000Y-38012500D01*
G37*
%TO.C,CAN*%
X40015000Y-42722500D02*
X41815000Y-42722500D01*
X40015000Y-44172500D02*
X40015000Y-42722500D01*
X41285000Y-46992500D02*
X44715000Y-46992500D01*
X41815000Y-42722500D02*
X41815000Y-41732500D01*
X45985000Y-42722500D02*
X44185000Y-42722500D01*
X45985000Y-44172500D02*
X45985000Y-42722500D01*
%TD*%
M02*
