%TF.GenerationSoftware,KiCad,Pcbnew,10.0.3*%
%TF.CreationDate,2026-08-10T18:04:38+08:00*%
%TF.ProjectId,Renesas ArmSync CAN Connector,52656e65-7361-4732-9041-726d53796e63,rev?*%
%TF.SameCoordinates,Original*%
%TF.FileFunction,Copper,L2,Bot*%
%TF.FilePolarity,Positive*%
%FSLAX46Y46*%
G04 Gerber Fmt 4.6, Leading zero omitted, Abs format (unit mm)*
G04 Created by KiCad (PCBNEW 10.0.3) date 2026-08-10 18:04:38*
%MOMM*%
%LPD*%
G01*
G04 APERTURE LIST*
G04 Aperture macros list*
%AMRoundRect*
0 Rectangle with rounded corners*
0 $1 Rounding radius*
0 $2 $3 $4 $5 $6 $7 $8 $9 X,Y pos of 4 corners*
0 Add a 4 corners polygon primitive as box body*
4,1,4,$2,$3,$4,$5,$6,$7,$8,$9,$2,$3,0*
0 Add four circle primitives for the rounded corners*
1,1,$1+$1,$2,$3*
1,1,$1+$1,$4,$5*
1,1,$1+$1,$6,$7*
1,1,$1+$1,$8,$9*
0 Add four rect primitives between the rounded corners*
20,1,$1+$1,$2,$3,$4,$5,0*
20,1,$1+$1,$4,$5,$6,$7,0*
20,1,$1+$1,$6,$7,$8,$9,0*
20,1,$1+$1,$8,$9,$2,$3,0*%
G04 Aperture macros list end*
%TA.AperFunction,ComponentPad*%
%ADD10R,1.700000X1.700000*%
%TD*%
%TA.AperFunction,ComponentPad*%
%ADD11C,1.700000*%
%TD*%
%TA.AperFunction,ComponentPad*%
%ADD12RoundRect,0.250000X0.600000X0.750000X-0.600000X0.750000X-0.600000X-0.750000X0.600000X-0.750000X0*%
%TD*%
%TA.AperFunction,ComponentPad*%
%ADD13O,1.700000X2.000000*%
%TD*%
%TA.AperFunction,ComponentPad*%
%ADD14RoundRect,0.250000X-0.600000X-0.750000X0.600000X-0.750000X0.600000X0.750000X-0.600000X0.750000X0*%
%TD*%
%TA.AperFunction,ComponentPad*%
%ADD15RoundRect,0.250000X-0.845000X0.620000X-0.845000X-0.620000X0.845000X-0.620000X0.845000X0.620000X0*%
%TD*%
%TA.AperFunction,ComponentPad*%
%ADD16O,2.190000X1.740000*%
%TD*%
%TA.AperFunction,ComponentPad*%
%ADD17C,3.000000*%
%TD*%
%TA.AperFunction,ComponentPad*%
%ADD18RoundRect,0.250000X-1.250000X-1.250000X1.250000X-1.250000X1.250000X1.250000X-1.250000X1.250000X0*%
%TD*%
%TA.AperFunction,ComponentPad*%
%ADD19RoundRect,0.249999X1.250001X1.250001X-1.250001X1.250001X-1.250001X-1.250001X1.250001X-1.250001X0*%
%TD*%
%TA.AperFunction,ViaPad*%
%ADD20C,0.600000*%
%TD*%
%TA.AperFunction,Conductor*%
%ADD21C,0.406400*%
%TD*%
%TA.AperFunction,Conductor*%
%ADD22C,0.200000*%
%TD*%
G04 APERTURE END LIST*
D10*
%TO.P,J1,1,Pin_1_1*%
%TO.N,/CAN_L*%
X38000000Y-45390000D03*
D11*
%TO.P,J1,2,Pin_2_2*%
%TO.N,/CAN_H*%
X38000000Y-42850000D03*
%TO.P,J1,3,Pin_3_3*%
%TO.N,unconnected-(J1-Pin_3-Pad3)*%
X38000000Y-40310000D03*
%TO.P,J1,4,Pin_4_4*%
%TO.N,unconnected-(J1-Pin_4-Pad4)*%
X38000000Y-37770000D03*
%TO.P,J1,5,Pin_5_5*%
%TO.N,unconnected-(J1-Pin_5-Pad5)*%
X38000000Y-35230000D03*
%TO.P,J1,6,Pin_6_6*%
%TO.N,unconnected-(J1-Pin_6-Pad6)*%
X38000000Y-32690000D03*
%TO.P,J1,7,Pin_7_7*%
%TO.N,GND*%
X38000000Y-30150000D03*
%TO.P,J1,8,Pin_8_8*%
%TO.N,+24V*%
X38000000Y-27610000D03*
%TD*%
D12*
%TO.P,J8,1,Pin_1_1*%
%TO.N,/SIGNAL*%
X63000000Y-44782500D03*
D13*
%TO.P,J8,2,Pin_2_2*%
%TO.N,+5V*%
X60500000Y-44782500D03*
%TD*%
D14*
%TO.P,J7,1,Pin_1_1*%
%TO.N,+5V*%
X60500000Y-28217500D03*
D13*
%TO.P,J7,2,Pin_2_2*%
%TO.N,/SIGNAL*%
X63000000Y-28217500D03*
%TD*%
D15*
%TO.P,GND 5V SIG,1,Pin_1_1*%
%TO.N,/SIGNAL*%
X64530000Y-33960000D03*
D16*
%TO.P,GND 5V SIG,2,Pin_2_2*%
%TO.N,+5V*%
X64530000Y-36500000D03*
%TO.P,GND 5V SIG,3,Pin_3_3*%
%TO.N,GND*%
X64530000Y-39040000D03*
%TD*%
D17*
%TO.P,24V,1,Pin_1_1*%
%TO.N,+24V*%
X49500000Y-30867500D03*
D18*
%TO.P,24V,2,Pin_2_2*%
%TO.N,GND*%
X54500000Y-30867500D03*
%TD*%
D19*
%TO.P,J3,1,Pin_1_1*%
%TO.N,GND*%
X54500000Y-42132500D03*
D17*
%TO.P,J3,2,Pin_2_2*%
%TO.N,+24V*%
X49500000Y-42132500D03*
%TD*%
D20*
%TO.N,/CAN_L*%
X42374387Y-43680504D03*
%TO.N,/CAN_H*%
X44403729Y-42850000D03*
%TO.N,GND*%
X40850000Y-35900000D03*
X58350000Y-46150000D03*
X52350000Y-43150000D03*
X42350000Y-45650000D03*
X61600000Y-38150000D03*
X65600000Y-27150000D03*
X40850000Y-38900000D03*
X61600000Y-30150000D03*
X65600000Y-30150000D03*
X46850000Y-43900000D03*
X58350000Y-28400000D03*
X46850000Y-36400000D03*
X66600000Y-34900000D03*
X61600000Y-34900000D03*
X46850000Y-31900000D03*
X41600000Y-46400000D03*
X65600000Y-41400000D03*
X40850000Y-32900000D03*
X66600000Y-33150000D03*
X52350000Y-38650000D03*
X52350000Y-44650000D03*
X52350000Y-26900000D03*
X56850000Y-26900000D03*
X45100000Y-38900000D03*
X41350000Y-41150000D03*
X52350000Y-31400000D03*
X66600000Y-39900000D03*
X52350000Y-32900000D03*
X46850000Y-45400000D03*
X56850000Y-28400000D03*
X56850000Y-46150000D03*
X58350000Y-35900000D03*
X65600000Y-31650000D03*
X40850000Y-40400000D03*
X56850000Y-37150000D03*
X53850000Y-34400000D03*
X45100000Y-32900000D03*
X56850000Y-41650000D03*
X58350000Y-43150000D03*
X56850000Y-44650000D03*
X44350000Y-46400000D03*
X61600000Y-33400000D03*
X52350000Y-37150000D03*
X58350000Y-38650000D03*
X52350000Y-40150000D03*
X46850000Y-39400000D03*
X53850000Y-37150000D03*
X55350000Y-28400000D03*
X64100000Y-30150000D03*
X53850000Y-28400000D03*
X45100000Y-34400000D03*
X41350000Y-38150000D03*
X55350000Y-35900000D03*
X55350000Y-46150000D03*
X61600000Y-39650000D03*
X56850000Y-43150000D03*
X58350000Y-37150000D03*
X44600000Y-32150000D03*
X64100000Y-41400000D03*
X56850000Y-35900000D03*
X55350000Y-44650000D03*
X55350000Y-32900000D03*
X53850000Y-35900000D03*
X55350000Y-26900000D03*
X65600000Y-44400000D03*
X40850000Y-29900000D03*
X44600000Y-39650000D03*
X52350000Y-28400000D03*
X44600000Y-35150000D03*
X41600000Y-44900000D03*
X46850000Y-40900000D03*
X58350000Y-40150000D03*
X53850000Y-46150000D03*
X39600000Y-29900000D03*
X40850000Y-41900000D03*
X46850000Y-34900000D03*
X43600000Y-45650000D03*
X66600000Y-38150000D03*
X45100000Y-35900000D03*
X58350000Y-41650000D03*
X44600000Y-36650000D03*
X52350000Y-29900000D03*
X45100000Y-41900000D03*
X53850000Y-38650000D03*
X58350000Y-29900000D03*
X52350000Y-34400000D03*
X53850000Y-26900000D03*
X41350000Y-35150000D03*
X46850000Y-33400000D03*
X39600000Y-45400000D03*
X41350000Y-39650000D03*
X58350000Y-32900000D03*
X55350000Y-40150000D03*
X41350000Y-33650000D03*
X55350000Y-34400000D03*
X44600000Y-41150000D03*
X65600000Y-28650000D03*
X44600000Y-33650000D03*
X65600000Y-45900000D03*
X55350000Y-38650000D03*
X55350000Y-37150000D03*
X56850000Y-38650000D03*
X45100000Y-37400000D03*
X45100000Y-40400000D03*
X52350000Y-35900000D03*
X58350000Y-44650000D03*
X64100000Y-42900000D03*
X52350000Y-46150000D03*
X65600000Y-42900000D03*
X41350000Y-36650000D03*
X40850000Y-34400000D03*
X56850000Y-32900000D03*
X58350000Y-26900000D03*
X39600000Y-31400000D03*
X56850000Y-40150000D03*
X53850000Y-32900000D03*
X56850000Y-29900000D03*
X46850000Y-42400000D03*
X40850000Y-37400000D03*
X64100000Y-31650000D03*
X56850000Y-31400000D03*
X45100000Y-31400000D03*
X61600000Y-41400000D03*
X45100000Y-30150000D03*
X41350000Y-32150000D03*
X56850000Y-34400000D03*
X46850000Y-37900000D03*
X61600000Y-42900000D03*
X40850000Y-31400000D03*
X61600000Y-31650000D03*
X52350000Y-41650000D03*
X53850000Y-40150000D03*
X58350000Y-34400000D03*
X44600000Y-38150000D03*
X53850000Y-44650000D03*
X58350000Y-31400000D03*
%TO.N,+5V*%
X60500000Y-36500000D03*
%TD*%
%TO.N,/CAN_L*%
D21*
X38854748Y-44535252D02*
X38000000Y-45390000D01*
X42374387Y-43680504D02*
X40918292Y-43680504D01*
X40918292Y-43680504D02*
G75*
G03*
X38854751Y-44535255I8J-2918296D01*
G01*
%TO.N,/CAN_H*%
X44403729Y-42850000D02*
X38000000Y-42850000D01*
D22*
X44403729Y-42850000D02*
X44404124Y-42849605D01*
%TO.N,+5V*%
D21*
X60500000Y-36500000D02*
X64530000Y-36500000D01*
%TD*%
%TA.AperFunction,Conductor*%
%TO.N,GND*%
G36*
X65597280Y-26100618D02*
G01*
X65602692Y-26100854D01*
X65608085Y-26101207D01*
X65635721Y-26103625D01*
X65757371Y-26114268D01*
X65768081Y-26115678D01*
X65778700Y-26117550D01*
X65789251Y-26119888D01*
X65859086Y-26138601D01*
X65859085Y-26138601D01*
X65926136Y-26156567D01*
X65936450Y-26159819D01*
X65946592Y-26163510D01*
X65956590Y-26167651D01*
X66085004Y-26227532D01*
X66094597Y-26232526D01*
X66103947Y-26237924D01*
X66113058Y-26243727D01*
X66229155Y-26325019D01*
X66237728Y-26331598D01*
X66245993Y-26338533D01*
X66253969Y-26345842D01*
X66354156Y-26446029D01*
X66361465Y-26454005D01*
X66368400Y-26462270D01*
X66374981Y-26470846D01*
X66456267Y-26586934D01*
X66462074Y-26596051D01*
X66467472Y-26605401D01*
X66472466Y-26614994D01*
X66532347Y-26743408D01*
X66536485Y-26753396D01*
X66540177Y-26763538D01*
X66543432Y-26773862D01*
X66580106Y-26910734D01*
X66582448Y-26921297D01*
X66584320Y-26931915D01*
X66585731Y-26942637D01*
X66598791Y-27091906D01*
X66599144Y-27097284D01*
X66599381Y-27102691D01*
X66599500Y-27108121D01*
X66599500Y-29988048D01*
X66596926Y-30041933D01*
X66599500Y-30053773D01*
X66599500Y-30065893D01*
X66607378Y-30095295D01*
X66607380Y-30095301D01*
X66612318Y-30113736D01*
X66613051Y-30116606D01*
X66613742Y-30119456D01*
X66614403Y-30122333D01*
X67095260Y-32334268D01*
X67097380Y-32347362D01*
X67098790Y-32360485D01*
X67099500Y-32373732D01*
X67099500Y-40626265D01*
X67098790Y-40639512D01*
X67097380Y-40652635D01*
X67095260Y-40665729D01*
X66614086Y-42879122D01*
X66612691Y-42884872D01*
X66599501Y-42934100D01*
X66599037Y-42937620D01*
X66598338Y-42947822D01*
X66596925Y-42958068D01*
X66599288Y-43007524D01*
X66599393Y-43010468D01*
X66599464Y-43013427D01*
X66599500Y-43016401D01*
X66599500Y-45891878D01*
X66599381Y-45897309D01*
X66599144Y-45902715D01*
X66598791Y-45908092D01*
X66585731Y-46057361D01*
X66584320Y-46068083D01*
X66582448Y-46078701D01*
X66580106Y-46089264D01*
X66543432Y-46226136D01*
X66540177Y-46236460D01*
X66536485Y-46246602D01*
X66532347Y-46256590D01*
X66472466Y-46385004D01*
X66467472Y-46394597D01*
X66462074Y-46403947D01*
X66456261Y-46413073D01*
X66374985Y-46529147D01*
X66368400Y-46537728D01*
X66361465Y-46545993D01*
X66354156Y-46553969D01*
X66253969Y-46654156D01*
X66245993Y-46661465D01*
X66237728Y-46668400D01*
X66229147Y-46674985D01*
X66113073Y-46756261D01*
X66103947Y-46762074D01*
X66094597Y-46767472D01*
X66085004Y-46772466D01*
X65956590Y-46832347D01*
X65946602Y-46836485D01*
X65936460Y-46840177D01*
X65926136Y-46843432D01*
X65789264Y-46880106D01*
X65778701Y-46882448D01*
X65768083Y-46884320D01*
X65757361Y-46885731D01*
X65608093Y-46898791D01*
X65602716Y-46899144D01*
X65597310Y-46899381D01*
X65591879Y-46899500D01*
X39194575Y-46899500D01*
X39159640Y-46894477D01*
X39148786Y-46891290D01*
X39090008Y-46853516D01*
X39060983Y-46789960D01*
X39070920Y-46720817D01*
X39072336Y-46717716D01*
X39110819Y-46669956D01*
X39126809Y-46657986D01*
X39207546Y-46597546D01*
X39293796Y-46482331D01*
X39344091Y-46347483D01*
X39350500Y-46287873D01*
X39350499Y-45107800D01*
X39355355Y-45073439D01*
X39355414Y-45073233D01*
X39360087Y-45057320D01*
X39362120Y-45049980D01*
X39362282Y-45049421D01*
X39380701Y-45020454D01*
X39398794Y-44991328D01*
X39529748Y-44874299D01*
X39535019Y-44869848D01*
X39540479Y-44865492D01*
X39545977Y-44861353D01*
X39731604Y-44729644D01*
X39737286Y-44725847D01*
X39743229Y-44722112D01*
X39749144Y-44718623D01*
X39948318Y-44608543D01*
X39954445Y-44605378D01*
X39960749Y-44602343D01*
X39967042Y-44599528D01*
X40144056Y-44526207D01*
X59149500Y-44526207D01*
X59149500Y-45038791D01*
X59182752Y-45248739D01*
X59248445Y-45450918D01*
X59315495Y-45582509D01*
X59344951Y-45640320D01*
X59469890Y-45812286D01*
X59469892Y-45812288D01*
X59620216Y-45962612D01*
X59792169Y-46087542D01*
X59792200Y-46087560D01*
X59792442Y-46087682D01*
X59981588Y-46184057D01*
X60183757Y-46249746D01*
X60393713Y-46283000D01*
X60393714Y-46283000D01*
X60606286Y-46283000D01*
X60606287Y-46283000D01*
X60816243Y-46249746D01*
X61018412Y-46184057D01*
X61207816Y-46087551D01*
X61379792Y-45962604D01*
X61506000Y-45836394D01*
X61534248Y-45815248D01*
X61546431Y-45808596D01*
X61614702Y-45793746D01*
X61680165Y-45818163D01*
X61687782Y-45823865D01*
X61719010Y-45858034D01*
X61807288Y-46001156D01*
X61931344Y-46125212D01*
X62080666Y-46217314D01*
X62247203Y-46272499D01*
X62349991Y-46283000D01*
X63650008Y-46282999D01*
X63752797Y-46272499D01*
X63919334Y-46217314D01*
X64068656Y-46125212D01*
X64192712Y-46001156D01*
X64284814Y-45851834D01*
X64339999Y-45685297D01*
X64350500Y-45582509D01*
X64350499Y-43982492D01*
X64345192Y-43930544D01*
X64339999Y-43879703D01*
X64339998Y-43879700D01*
X64305823Y-43776568D01*
X64284814Y-43713166D01*
X64192712Y-43563844D01*
X64068656Y-43439788D01*
X63919334Y-43347686D01*
X63761265Y-43295307D01*
X63758445Y-43294141D01*
X63752792Y-43292499D01*
X63650019Y-43282000D01*
X63650010Y-43282000D01*
X62349998Y-43282000D01*
X62349981Y-43282001D01*
X62335959Y-43283433D01*
X62247198Y-43292500D01*
X62247193Y-43292501D01*
X62247032Y-43292556D01*
X62080667Y-43347685D01*
X62080665Y-43347686D01*
X62080663Y-43347687D01*
X62008712Y-43392067D01*
X61931340Y-43439790D01*
X61807289Y-43563841D01*
X61807286Y-43563845D01*
X61721180Y-43703443D01*
X61721180Y-43703446D01*
X61698565Y-43730543D01*
X61688248Y-43739823D01*
X61625242Y-43770021D01*
X61555911Y-43761361D01*
X61552799Y-43760008D01*
X61547176Y-43757565D01*
X61508916Y-43731520D01*
X61379788Y-43602392D01*
X61379786Y-43602390D01*
X61207820Y-43477451D01*
X61162501Y-43454360D01*
X61040245Y-43392067D01*
X61040240Y-43392065D01*
X61018414Y-43380944D01*
X61018413Y-43380943D01*
X61018412Y-43380943D01*
X60916055Y-43347685D01*
X60825074Y-43318123D01*
X60820552Y-43316270D01*
X60811362Y-43314100D01*
X60806599Y-43313726D01*
X60690307Y-43295307D01*
X60654957Y-43289708D01*
X60635489Y-43286624D01*
X60606290Y-43282000D01*
X60606287Y-43282000D01*
X60393713Y-43282000D01*
X60393709Y-43282000D01*
X60354776Y-43288166D01*
X60345042Y-43289708D01*
X60327061Y-43292556D01*
X60183763Y-43315252D01*
X59981582Y-43380945D01*
X59792182Y-43477449D01*
X59620210Y-43602392D01*
X59469892Y-43752710D01*
X59344949Y-43924682D01*
X59248445Y-44114080D01*
X59182752Y-44316259D01*
X59149500Y-44526207D01*
X40144056Y-44526207D01*
X40177245Y-44512460D01*
X40183660Y-44510011D01*
X40190287Y-44507692D01*
X40196848Y-44505600D01*
X40415516Y-44442603D01*
X40422200Y-44440880D01*
X40428974Y-44439333D01*
X40435761Y-44437982D01*
X40660067Y-44399873D01*
X40666909Y-44398906D01*
X40673842Y-44398125D01*
X40680732Y-44397544D01*
X40891036Y-44385734D01*
X40913094Y-44384495D01*
X40916567Y-44384350D01*
X40920032Y-44384253D01*
X40923502Y-44384204D01*
X41944583Y-44384204D01*
X41968770Y-44386586D01*
X41992267Y-44391259D01*
X42015529Y-44398314D01*
X42140890Y-44450241D01*
X42295540Y-44481003D01*
X42295543Y-44481004D01*
X42295545Y-44481004D01*
X42453231Y-44481004D01*
X42453232Y-44481003D01*
X42607884Y-44450241D01*
X42653815Y-44431215D01*
X42712810Y-44406780D01*
X42747007Y-44392614D01*
X42749802Y-44391640D01*
X42751250Y-44390970D01*
X42755918Y-44388923D01*
X42765179Y-44385087D01*
X42774065Y-44376201D01*
X42884676Y-44302293D01*
X42996173Y-44190796D01*
X42996176Y-44190793D01*
X43083781Y-44059683D01*
X43144124Y-43914001D01*
X43174887Y-43759346D01*
X43174887Y-43695529D01*
X43179910Y-43660593D01*
X43184314Y-43645595D01*
X43222059Y-43586844D01*
X43222087Y-43586819D01*
X43222086Y-43586819D01*
X43223428Y-43585656D01*
X43278307Y-43558177D01*
X43285866Y-43556533D01*
X43312219Y-43553700D01*
X43973925Y-43553700D01*
X43998112Y-43556082D01*
X44021609Y-43560755D01*
X44044871Y-43567810D01*
X44170232Y-43619737D01*
X44324882Y-43650499D01*
X44324885Y-43650500D01*
X44324887Y-43650500D01*
X44482573Y-43650500D01*
X44482574Y-43650499D01*
X44637226Y-43619737D01*
X44719503Y-43585657D01*
X44772166Y-43563844D01*
X44773869Y-43563138D01*
X44782901Y-43559397D01*
X44782901Y-43559396D01*
X44782904Y-43559395D01*
X44782908Y-43559394D01*
X44782909Y-43559392D01*
X44785261Y-43558419D01*
X44794520Y-43554583D01*
X44803406Y-43545698D01*
X44905547Y-43477449D01*
X44914018Y-43471789D01*
X45025518Y-43360289D01*
X45113123Y-43229179D01*
X45173466Y-43083497D01*
X45204229Y-42928842D01*
X45204229Y-42771158D01*
X45204229Y-42771155D01*
X45204229Y-42770973D01*
X45203794Y-42768972D01*
X45174126Y-42619824D01*
X45173723Y-42617467D01*
X45173467Y-42616508D01*
X45173466Y-42616506D01*
X45173466Y-42616503D01*
X45173464Y-42616498D01*
X45113126Y-42470827D01*
X45113119Y-42470814D01*
X45025518Y-42339711D01*
X45025515Y-42339707D01*
X45025510Y-42339701D01*
X44914026Y-42228217D01*
X44914020Y-42228212D01*
X44914019Y-42228211D01*
X44782920Y-42140613D01*
X44782919Y-42140612D01*
X44782914Y-42140609D01*
X44782901Y-42140602D01*
X44713563Y-42111882D01*
X44713561Y-42111880D01*
X44637231Y-42080264D01*
X44637200Y-42080257D01*
X44482576Y-42049500D01*
X44482574Y-42049500D01*
X44482571Y-42049500D01*
X44324887Y-42049500D01*
X44324884Y-42049500D01*
X44324882Y-42049500D01*
X44170256Y-42080257D01*
X44170229Y-42080263D01*
X44093900Y-42111879D01*
X44093896Y-42111881D01*
X44093896Y-42111882D01*
X44044868Y-42132189D01*
X44021617Y-42139242D01*
X43998115Y-42143917D01*
X43973927Y-42146300D01*
X39239053Y-42146300D01*
X39204115Y-42141276D01*
X39182743Y-42135000D01*
X39171144Y-42128340D01*
X39161382Y-42126506D01*
X39132536Y-42106170D01*
X39129291Y-42103105D01*
X39114126Y-42085855D01*
X39110071Y-42080275D01*
X39110066Y-42080262D01*
X39110064Y-42080264D01*
X39030107Y-41970211D01*
X38879782Y-41819886D01*
X38707824Y-41694953D01*
X38707258Y-41694606D01*
X38705627Y-41693357D01*
X38703901Y-41692103D01*
X38703932Y-41692059D01*
X38686960Y-41679062D01*
X38676683Y-41669357D01*
X38641457Y-41609017D01*
X38644445Y-41539212D01*
X38680613Y-41485493D01*
X38687783Y-41479281D01*
X38704187Y-41467275D01*
X38707816Y-41465051D01*
X38729789Y-41449086D01*
X38879786Y-41340109D01*
X38879787Y-41340106D01*
X38879790Y-41340105D01*
X38879792Y-41340104D01*
X38879793Y-41340102D01*
X38879847Y-41340063D01*
X38880605Y-41339290D01*
X39030104Y-41189792D01*
X39030106Y-41189788D01*
X39030109Y-41189786D01*
X39155048Y-41017820D01*
X39155047Y-41017820D01*
X39155051Y-41017816D01*
X39155053Y-41017810D01*
X39175445Y-40989744D01*
X39183730Y-40961529D01*
X39251557Y-40828412D01*
X39317246Y-40626243D01*
X39350500Y-40416287D01*
X39350500Y-40203713D01*
X39317246Y-39993757D01*
X39251557Y-39791588D01*
X39155051Y-39602184D01*
X39155049Y-39602181D01*
X39155048Y-39602179D01*
X39154702Y-39601703D01*
X39154700Y-39601699D01*
X39030112Y-39430216D01*
X38879782Y-39279886D01*
X38707824Y-39154953D01*
X38707258Y-39154606D01*
X38705627Y-39153357D01*
X38703901Y-39152103D01*
X38703932Y-39152059D01*
X38686960Y-39139062D01*
X38676683Y-39129357D01*
X38641457Y-39069017D01*
X38644445Y-38999212D01*
X38680613Y-38945493D01*
X38687783Y-38939281D01*
X38704187Y-38927275D01*
X38707816Y-38925051D01*
X38729789Y-38909086D01*
X38879786Y-38800109D01*
X38879787Y-38800106D01*
X38879790Y-38800105D01*
X38879792Y-38800104D01*
X38879793Y-38800102D01*
X38879847Y-38800063D01*
X38880605Y-38799290D01*
X39030104Y-38649792D01*
X39030106Y-38649788D01*
X39030109Y-38649786D01*
X39155048Y-38477820D01*
X39155047Y-38477820D01*
X39155051Y-38477816D01*
X39155053Y-38477810D01*
X39175445Y-38449744D01*
X39183730Y-38421529D01*
X39251557Y-38288412D01*
X39317246Y-38086243D01*
X39350500Y-37876287D01*
X39350500Y-37663713D01*
X39317246Y-37453757D01*
X39251557Y-37251588D01*
X39155051Y-37062184D01*
X39155049Y-37062181D01*
X39155048Y-37062179D01*
X39154702Y-37061703D01*
X39154700Y-37061699D01*
X39030112Y-36890216D01*
X38879782Y-36739886D01*
X38707824Y-36614953D01*
X38707258Y-36614606D01*
X38698602Y-36608781D01*
X38693593Y-36605095D01*
X38690804Y-36601433D01*
X38686955Y-36599058D01*
X38684597Y-36596831D01*
X38684953Y-36596453D01*
X38676401Y-36589792D01*
X38670386Y-36583342D01*
X38657565Y-36557782D01*
X38651264Y-36549507D01*
X38650857Y-36544408D01*
X38639060Y-36520888D01*
X38643690Y-36458803D01*
X38643940Y-36458066D01*
X38643948Y-36458049D01*
X38644389Y-36456754D01*
X38684629Y-36399642D01*
X38705483Y-36386239D01*
X38707816Y-36385051D01*
X38707822Y-36385046D01*
X38707825Y-36385045D01*
X38879784Y-36260110D01*
X38879784Y-36260109D01*
X38879792Y-36260104D01*
X39030104Y-36109792D01*
X39030106Y-36109788D01*
X39030109Y-36109786D01*
X39155048Y-35937820D01*
X39155047Y-35937820D01*
X39155051Y-35937816D01*
X39155053Y-35937810D01*
X39175445Y-35909744D01*
X39183730Y-35881529D01*
X39251557Y-35748412D01*
X39317246Y-35546243D01*
X39350500Y-35336287D01*
X39350500Y-35123713D01*
X39317246Y-34913757D01*
X39251557Y-34711588D01*
X39155051Y-34522184D01*
X39155049Y-34522181D01*
X39155048Y-34522179D01*
X39154702Y-34521703D01*
X39154700Y-34521699D01*
X39030112Y-34350216D01*
X38879782Y-34199886D01*
X38707824Y-34074953D01*
X38707258Y-34074606D01*
X38705627Y-34073357D01*
X38703901Y-34072103D01*
X38703932Y-34072059D01*
X38686960Y-34059062D01*
X38676683Y-34049357D01*
X38641457Y-33989017D01*
X38644445Y-33919212D01*
X38680613Y-33865493D01*
X38687783Y-33859281D01*
X38704187Y-33847275D01*
X38707816Y-33845051D01*
X38729789Y-33829086D01*
X38879786Y-33720109D01*
X38879787Y-33720106D01*
X38879790Y-33720105D01*
X38879792Y-33720104D01*
X38879793Y-33720102D01*
X38879847Y-33720063D01*
X38880605Y-33719290D01*
X39030104Y-33569792D01*
X39030106Y-33569788D01*
X39030109Y-33569786D01*
X39155048Y-33397820D01*
X39155047Y-33397820D01*
X39155051Y-33397816D01*
X39155053Y-33397810D01*
X39175445Y-33369744D01*
X39183730Y-33341529D01*
X39251557Y-33208412D01*
X39317246Y-33006243D01*
X39350500Y-32796287D01*
X39350500Y-32583713D01*
X39317246Y-32373757D01*
X39251557Y-32171588D01*
X39155051Y-31982184D01*
X39155049Y-31982181D01*
X39155048Y-31982179D01*
X39154702Y-31981703D01*
X39154700Y-31981699D01*
X39030112Y-31810216D01*
X38879788Y-31659892D01*
X38879786Y-31659890D01*
X38707820Y-31534951D01*
X38694167Y-31527994D01*
X38540245Y-31449567D01*
X38540240Y-31449565D01*
X38518414Y-31438444D01*
X38518413Y-31438443D01*
X38518412Y-31438443D01*
X38421550Y-31406970D01*
X38325074Y-31375623D01*
X38320552Y-31373770D01*
X38311362Y-31371600D01*
X38306599Y-31371226D01*
X38154957Y-31347208D01*
X38135489Y-31344124D01*
X38106290Y-31339500D01*
X38106287Y-31339500D01*
X37893713Y-31339500D01*
X37893709Y-31339500D01*
X37854776Y-31345666D01*
X37845042Y-31347208D01*
X37807654Y-31353129D01*
X37683763Y-31372752D01*
X37481582Y-31438445D01*
X37299516Y-31531212D01*
X37275592Y-31540427D01*
X37258675Y-31545002D01*
X37188822Y-31543501D01*
X37130869Y-31504473D01*
X37130767Y-31504350D01*
X37130278Y-31503759D01*
X37104373Y-31449765D01*
X37103058Y-31443391D01*
X37100500Y-31418337D01*
X37100500Y-29421070D01*
X37107433Y-29397456D01*
X37110197Y-29372999D01*
X37117104Y-29364521D01*
X37120185Y-29354031D01*
X37138781Y-29337916D01*
X37154331Y-29318833D01*
X37164726Y-29315435D01*
X37172989Y-29308276D01*
X37197347Y-29304773D01*
X37220743Y-29297127D01*
X37235915Y-29299227D01*
X37242147Y-29298332D01*
X37255814Y-29301089D01*
X37259338Y-29302008D01*
X37259913Y-29302218D01*
X37301973Y-29315483D01*
X37413310Y-29345326D01*
X37414461Y-29345633D01*
X37415041Y-29345787D01*
X37416872Y-29346270D01*
X37438193Y-29348689D01*
X37446741Y-29350920D01*
X37454199Y-29355400D01*
X37519138Y-29363171D01*
X37519157Y-29363173D01*
X37519158Y-29363173D01*
X37519166Y-29363174D01*
X37591222Y-29366613D01*
X37627188Y-29360567D01*
X37629028Y-29360515D01*
X37629040Y-29360515D01*
X37681172Y-29351493D01*
X37733112Y-29342763D01*
X37733119Y-29342760D01*
X37733385Y-29342716D01*
X37740872Y-29341161D01*
X37770813Y-29335981D01*
X37792857Y-29328817D01*
X37811758Y-29324279D01*
X37917469Y-29307536D01*
X37923858Y-29306525D01*
X37923860Y-29306525D01*
X37943247Y-29305000D01*
X38056745Y-29305000D01*
X38076130Y-29306525D01*
X38188241Y-29324281D01*
X38207145Y-29328820D01*
X38348021Y-29374594D01*
X38425126Y-29393107D01*
X38463431Y-29399176D01*
X38542480Y-29405404D01*
X43961230Y-29405990D01*
X43961258Y-29405992D01*
X43969881Y-29405992D01*
X43969882Y-29405993D01*
X44628344Y-29406063D01*
X44675799Y-29415508D01*
X45690307Y-29835908D01*
X45892406Y-29919655D01*
X45932634Y-29946544D01*
X46517585Y-30531717D01*
X46884525Y-30898797D01*
X47104943Y-31119298D01*
X47131812Y-31159525D01*
X47485763Y-32014342D01*
X47495196Y-32061787D01*
X47494591Y-42095107D01*
X47494980Y-42114960D01*
X47495364Y-42124729D01*
X47496528Y-42144484D01*
X47499118Y-42177402D01*
X47499500Y-42187126D01*
X47499500Y-42263627D01*
X47526123Y-42465839D01*
X47533729Y-42523608D01*
X47533731Y-42523619D01*
X47601602Y-42776920D01*
X47701954Y-43019193D01*
X47701967Y-43019217D01*
X47833074Y-43246303D01*
X47992718Y-43454351D01*
X47992721Y-43454355D01*
X48178120Y-43639755D01*
X48178142Y-43639776D01*
X48178148Y-43639781D01*
X48386195Y-43799424D01*
X48613281Y-43930531D01*
X48613291Y-43930536D01*
X48613299Y-43930541D01*
X48613309Y-43930546D01*
X48855571Y-44030894D01*
X48855581Y-44030898D01*
X49108884Y-44098770D01*
X49368880Y-44133000D01*
X49368887Y-44133000D01*
X49631113Y-44133000D01*
X49631120Y-44133000D01*
X49891116Y-44098770D01*
X50144419Y-44030898D01*
X50386697Y-43930543D01*
X50613803Y-43799424D01*
X50821851Y-43639782D01*
X50821855Y-43639777D01*
X50821860Y-43639774D01*
X50907934Y-43553700D01*
X51002433Y-43459202D01*
X51003209Y-43458506D01*
X51006758Y-43454885D01*
X51007257Y-43454380D01*
X51007267Y-43454366D01*
X51007274Y-43454360D01*
X51007277Y-43454355D01*
X51007282Y-43454351D01*
X51007398Y-43454199D01*
X51007624Y-43453911D01*
X51007628Y-43453907D01*
X51011074Y-43449493D01*
X51011574Y-43448756D01*
X51166924Y-43246303D01*
X51298043Y-43019197D01*
X51398398Y-42776919D01*
X51466270Y-42523616D01*
X51500500Y-42263620D01*
X51500500Y-42188268D01*
X51500882Y-42178541D01*
X51501011Y-42176892D01*
X51503560Y-42144514D01*
X51504729Y-42124686D01*
X51505111Y-42114957D01*
X51505500Y-42095124D01*
X51505500Y-36578848D01*
X59699499Y-36578848D01*
X59730257Y-36733471D01*
X59730264Y-36733502D01*
X59790598Y-36879165D01*
X59790603Y-36879174D01*
X59790613Y-36879191D01*
X59878211Y-37010290D01*
X59878212Y-37010291D01*
X59878217Y-37010297D01*
X59989701Y-37121781D01*
X59989707Y-37121786D01*
X59989711Y-37121789D01*
X60120814Y-37209390D01*
X60120827Y-37209397D01*
X60266498Y-37269735D01*
X60266503Y-37269737D01*
X60421153Y-37300499D01*
X60421156Y-37300500D01*
X60421158Y-37300500D01*
X60578844Y-37300500D01*
X60578845Y-37300499D01*
X60733497Y-37269737D01*
X60858862Y-37217808D01*
X60882119Y-37210755D01*
X60905617Y-37206082D01*
X60929803Y-37203700D01*
X63041226Y-37203700D01*
X63076162Y-37208723D01*
X63097532Y-37214998D01*
X63147724Y-37243813D01*
X63150966Y-37246874D01*
X63166154Y-37264148D01*
X63259641Y-37392821D01*
X63412179Y-37545359D01*
X63586701Y-37672157D01*
X63677514Y-37718428D01*
X63778906Y-37770090D01*
X63778908Y-37770090D01*
X63778911Y-37770092D01*
X63984074Y-37836754D01*
X64003303Y-37839799D01*
X64063812Y-37849383D01*
X64063911Y-37849398D01*
X64063973Y-37849408D01*
X64197134Y-37870500D01*
X64197139Y-37870500D01*
X64862865Y-37870500D01*
X64862866Y-37870500D01*
X64981230Y-37851752D01*
X65075926Y-37836754D01*
X65281089Y-37770092D01*
X65473299Y-37672157D01*
X65647821Y-37545359D01*
X65800359Y-37392821D01*
X65927157Y-37218299D01*
X66025092Y-37026089D01*
X66091754Y-36820926D01*
X66104589Y-36739886D01*
X66106752Y-36726232D01*
X66106752Y-36726230D01*
X66124377Y-36614953D01*
X66125500Y-36607866D01*
X66125500Y-36392133D01*
X66091754Y-36179077D01*
X66091754Y-36179074D01*
X66025092Y-35973911D01*
X66025090Y-35973908D01*
X66025090Y-35973906D01*
X65933087Y-35793340D01*
X65927157Y-35781701D01*
X65800359Y-35607179D01*
X65670979Y-35477799D01*
X65649833Y-35449552D01*
X65643178Y-35437364D01*
X65628327Y-35369094D01*
X65652741Y-35303633D01*
X65656938Y-35298026D01*
X65691103Y-35266806D01*
X65694331Y-35264814D01*
X65694334Y-35264814D01*
X65843656Y-35172712D01*
X65967712Y-35048656D01*
X66059814Y-34899334D01*
X66114999Y-34732797D01*
X66125500Y-34630009D01*
X66125499Y-33289992D01*
X66114999Y-33187203D01*
X66059814Y-33020666D01*
X65967712Y-32871344D01*
X65843656Y-32747288D01*
X65750888Y-32690069D01*
X65694336Y-32655187D01*
X65694331Y-32655185D01*
X65692862Y-32654698D01*
X65536265Y-32602807D01*
X65533445Y-32601641D01*
X65527792Y-32599999D01*
X65425019Y-32589500D01*
X65425010Y-32589500D01*
X63634998Y-32589500D01*
X63634981Y-32589501D01*
X63620959Y-32590933D01*
X63532198Y-32600000D01*
X63532193Y-32600001D01*
X63532032Y-32600056D01*
X63365667Y-32655185D01*
X63365665Y-32655186D01*
X63365663Y-32655187D01*
X63307102Y-32691308D01*
X63216340Y-32747290D01*
X63092290Y-32871340D01*
X63000187Y-33020662D01*
X63000152Y-33020770D01*
X62956050Y-33153857D01*
X62956044Y-33153875D01*
X62945001Y-33187203D01*
X62945001Y-33187204D01*
X62945000Y-33187204D01*
X62944230Y-33194735D01*
X62944229Y-33194741D01*
X62934500Y-33289973D01*
X62934500Y-33289981D01*
X62934500Y-33289983D01*
X62934500Y-34630001D01*
X62934501Y-34630018D01*
X62945000Y-34732796D01*
X62945001Y-34732799D01*
X63000185Y-34899331D01*
X63000186Y-34899334D01*
X63092288Y-35048656D01*
X63216344Y-35172712D01*
X63357787Y-35259954D01*
X63374626Y-35272421D01*
X63390145Y-35286085D01*
X63427451Y-35345159D01*
X63426898Y-35415026D01*
X63426892Y-35415044D01*
X63425112Y-35420930D01*
X63394103Y-35472717D01*
X63259635Y-35607185D01*
X63259633Y-35607188D01*
X63197383Y-35692865D01*
X63197382Y-35692869D01*
X63169848Y-35730765D01*
X63145252Y-35756073D01*
X63127618Y-35769671D01*
X63074813Y-35793340D01*
X63071745Y-35793917D01*
X63070427Y-35794164D01*
X63047515Y-35796300D01*
X60929802Y-35796300D01*
X60905611Y-35793917D01*
X60882113Y-35789243D01*
X60858854Y-35782187D01*
X60733498Y-35730263D01*
X60733471Y-35730257D01*
X60578847Y-35699500D01*
X60578845Y-35699500D01*
X60578842Y-35699500D01*
X60421158Y-35699500D01*
X60421155Y-35699500D01*
X60421153Y-35699500D01*
X60266527Y-35730257D01*
X60266496Y-35730264D01*
X60120833Y-35790598D01*
X60120824Y-35790603D01*
X60120807Y-35790613D01*
X59989708Y-35878211D01*
X59989707Y-35878212D01*
X59989701Y-35878217D01*
X59878217Y-35989701D01*
X59878212Y-35989707D01*
X59878211Y-35989708D01*
X59790613Y-36120807D01*
X59790603Y-36120824D01*
X59790598Y-36120833D01*
X59730264Y-36266496D01*
X59730257Y-36266527D01*
X59699500Y-36421150D01*
X59699500Y-36421153D01*
X59699500Y-36578846D01*
X59699500Y-36578848D01*
X59699499Y-36578848D01*
X51505500Y-36578848D01*
X51505500Y-30898776D01*
X51505156Y-29852475D01*
X51504880Y-29835946D01*
X51504612Y-29827836D01*
X51503795Y-29811303D01*
X51482770Y-29492141D01*
X51479514Y-29459203D01*
X51477391Y-29443123D01*
X51471995Y-29410509D01*
X51410290Y-29100826D01*
X51402769Y-29068619D01*
X51398566Y-29052953D01*
X51388952Y-29021296D01*
X51361251Y-28939781D01*
X51287349Y-28722302D01*
X51275694Y-28691365D01*
X51269470Y-28676354D01*
X51263362Y-28662888D01*
X51255814Y-28646243D01*
X51116060Y-28363083D01*
X51100457Y-28333915D01*
X51092342Y-28319870D01*
X51074864Y-28291783D01*
X51074862Y-28291780D01*
X50899333Y-28029269D01*
X50880085Y-28002428D01*
X50880068Y-28002404D01*
X50870191Y-27989540D01*
X50849190Y-27963966D01*
X50849178Y-27963951D01*
X50638254Y-27723597D01*
X50638245Y-27723587D01*
X50638223Y-27723562D01*
X50627086Y-27711284D01*
X50621536Y-27705363D01*
X50610051Y-27693504D01*
X50333849Y-27417483D01*
X59149500Y-27417483D01*
X59149500Y-29017501D01*
X59149501Y-29017518D01*
X59149502Y-29017526D01*
X59160000Y-29120296D01*
X59160003Y-29120304D01*
X59160070Y-29120507D01*
X59205893Y-29258793D01*
X59215183Y-29286828D01*
X59215185Y-29286831D01*
X59215186Y-29286834D01*
X59307288Y-29436156D01*
X59431344Y-29560212D01*
X59580666Y-29652314D01*
X59747203Y-29707499D01*
X59849991Y-29718000D01*
X61150008Y-29717999D01*
X61252797Y-29707499D01*
X61419334Y-29652314D01*
X61568656Y-29560212D01*
X61692712Y-29436156D01*
X61778822Y-29296548D01*
X61781209Y-29293689D01*
X61801433Y-29269455D01*
X61811756Y-29260171D01*
X61874764Y-29229977D01*
X61944085Y-29238637D01*
X61952810Y-29242427D01*
X61991081Y-29268477D01*
X62120216Y-29397612D01*
X62292169Y-29522542D01*
X62292177Y-29522547D01*
X62292179Y-29522548D01*
X62292181Y-29522549D01*
X62292182Y-29522550D01*
X62292200Y-29522560D01*
X62292442Y-29522682D01*
X62481588Y-29619057D01*
X62683757Y-29684746D01*
X62893713Y-29718000D01*
X62893714Y-29718000D01*
X63106286Y-29718000D01*
X63106287Y-29718000D01*
X63316243Y-29684746D01*
X63518412Y-29619057D01*
X63707816Y-29522551D01*
X63729789Y-29506586D01*
X63879786Y-29397609D01*
X63879786Y-29397608D01*
X63879844Y-29397566D01*
X63880605Y-29396790D01*
X64030104Y-29247292D01*
X64030106Y-29247288D01*
X64030109Y-29247286D01*
X64155048Y-29075320D01*
X64155047Y-29075320D01*
X64155051Y-29075316D01*
X64155053Y-29075310D01*
X64175445Y-29047244D01*
X64183730Y-29019029D01*
X64251557Y-28885912D01*
X64317246Y-28683743D01*
X64350500Y-28473787D01*
X64350500Y-27961213D01*
X64317246Y-27751257D01*
X64251557Y-27549088D01*
X64155051Y-27359684D01*
X64155049Y-27359681D01*
X64155048Y-27359679D01*
X64154702Y-27359203D01*
X64154700Y-27359199D01*
X64030112Y-27187716D01*
X63879788Y-27037392D01*
X63879786Y-27037390D01*
X63707820Y-26912451D01*
X63633902Y-26874788D01*
X63540245Y-26827067D01*
X63540240Y-26827065D01*
X63518414Y-26815944D01*
X63518413Y-26815943D01*
X63518412Y-26815943D01*
X63388901Y-26773862D01*
X63325074Y-26753123D01*
X63320552Y-26751270D01*
X63311362Y-26749100D01*
X63306599Y-26748726D01*
X63190307Y-26730307D01*
X63154957Y-26724708D01*
X63135489Y-26721624D01*
X63106290Y-26717000D01*
X63106287Y-26717000D01*
X62893713Y-26717000D01*
X62893709Y-26717000D01*
X62854776Y-26723166D01*
X62845042Y-26724708D01*
X62827061Y-26727556D01*
X62683763Y-26750252D01*
X62481582Y-26815945D01*
X62292182Y-26912449D01*
X62292179Y-26912450D01*
X62292179Y-26912451D01*
X62265389Y-26931915D01*
X62120218Y-27037386D01*
X61994006Y-27163598D01*
X61994004Y-27163599D01*
X61994004Y-27163600D01*
X61965749Y-27184750D01*
X61953566Y-27191402D01*
X61885293Y-27206252D01*
X61819829Y-27181833D01*
X61812207Y-27176127D01*
X61780988Y-27141963D01*
X61751777Y-27094605D01*
X61751776Y-27094603D01*
X61692715Y-26998848D01*
X61692713Y-26998845D01*
X61568657Y-26874789D01*
X61568656Y-26874788D01*
X61419334Y-26782686D01*
X61261265Y-26730307D01*
X61258445Y-26729141D01*
X61252792Y-26727499D01*
X61150019Y-26717000D01*
X61150010Y-26717000D01*
X59849998Y-26717000D01*
X59849981Y-26717001D01*
X59835959Y-26718433D01*
X59747198Y-26727500D01*
X59747193Y-26727501D01*
X59747032Y-26727556D01*
X59580667Y-26782685D01*
X59580665Y-26782686D01*
X59580663Y-26782687D01*
X59508712Y-26827067D01*
X59431340Y-26874790D01*
X59307290Y-26998840D01*
X59215186Y-27148164D01*
X59210324Y-27162834D01*
X59203063Y-27184750D01*
X59170299Y-27283623D01*
X59161852Y-27296567D01*
X59160365Y-27311130D01*
X59159542Y-27317381D01*
X59159387Y-27320413D01*
X59159396Y-27320604D01*
X59159355Y-27321014D01*
X59149500Y-27417483D01*
X50333849Y-27417483D01*
X50159114Y-27242862D01*
X50150195Y-27234167D01*
X50150040Y-27234020D01*
X50145854Y-27230037D01*
X50136778Y-27221612D01*
X49845693Y-26957953D01*
X49838487Y-26951741D01*
X49826903Y-26941753D01*
X49817500Y-26934042D01*
X49797941Y-26918786D01*
X49484938Y-26686780D01*
X49464657Y-26672504D01*
X49454549Y-26665753D01*
X49433567Y-26652474D01*
X49099284Y-26452222D01*
X49099258Y-26452207D01*
X49077730Y-26440018D01*
X49077716Y-26440010D01*
X49077701Y-26440002D01*
X49071211Y-26436535D01*
X49066987Y-26434278D01*
X49044815Y-26423123D01*
X48861791Y-26336605D01*
X48809595Y-26290158D01*
X48790796Y-26222865D01*
X48811363Y-26156091D01*
X48864765Y-26111036D01*
X48914785Y-26100500D01*
X65591878Y-26100500D01*
X65597280Y-26100618D01*
G37*
%TD.AperFunction*%
%TD*%
%TA.AperFunction,Conductor*%
%TO.N,+24V*%
G36*
X46907022Y-26399650D02*
G01*
X47299262Y-26418894D01*
X47311352Y-26420084D01*
X47696815Y-26477223D01*
X47708734Y-26479592D01*
X48086729Y-26574221D01*
X48098363Y-26577748D01*
X48465274Y-26708960D01*
X48476502Y-26713608D01*
X48828801Y-26880145D01*
X48839510Y-26885866D01*
X49173793Y-27086118D01*
X49183904Y-27092871D01*
X49496934Y-27324897D01*
X49506337Y-27332609D01*
X49797422Y-27596268D01*
X49801784Y-27600418D01*
X49851240Y-27649842D01*
X50252726Y-28051064D01*
X50258276Y-28056985D01*
X50469243Y-28297389D01*
X50479120Y-28310253D01*
X50654649Y-28572763D01*
X50662764Y-28586808D01*
X50802518Y-28869968D01*
X50808730Y-28884951D01*
X50910332Y-29183940D01*
X50914535Y-29199606D01*
X50976240Y-29509289D01*
X50978363Y-29525369D01*
X50999388Y-29844531D01*
X50999656Y-29852641D01*
X50999847Y-30434752D01*
X51000000Y-30898942D01*
X51000000Y-42095124D01*
X50999618Y-42104853D01*
X50982298Y-42324924D01*
X50979254Y-42344142D01*
X50928863Y-42554035D01*
X50922850Y-42572541D01*
X50840243Y-42771971D01*
X50831409Y-42789308D01*
X50718624Y-42973355D01*
X50707187Y-42989096D01*
X50566997Y-43153238D01*
X50553238Y-43166997D01*
X50389096Y-43307187D01*
X50373355Y-43318624D01*
X50189308Y-43431409D01*
X50171971Y-43440243D01*
X49972541Y-43522850D01*
X49954035Y-43528863D01*
X49744142Y-43579254D01*
X49724924Y-43582298D01*
X49509729Y-43599234D01*
X49490270Y-43599234D01*
X49275082Y-43582297D01*
X49255864Y-43579253D01*
X49045972Y-43528861D01*
X49027465Y-43522847D01*
X48828047Y-43440241D01*
X48810710Y-43431407D01*
X48626666Y-43318619D01*
X48610924Y-43307181D01*
X48446792Y-43166992D01*
X48433033Y-43153233D01*
X48292847Y-42989085D01*
X48281420Y-42973355D01*
X48168633Y-42789288D01*
X48159809Y-42771967D01*
X48077212Y-42572534D01*
X48071201Y-42554029D01*
X48020819Y-42344129D01*
X48017779Y-42324924D01*
X48000473Y-42104853D01*
X48000091Y-42095133D01*
X48000669Y-32524421D01*
X48000669Y-32524420D01*
X48000705Y-31936628D01*
X48000704Y-31936627D01*
X48000705Y-31936625D01*
X47550961Y-30850465D01*
X46201615Y-29500606D01*
X46201614Y-29500605D01*
X44753627Y-28900577D01*
X44753628Y-28900577D01*
X43970189Y-28900493D01*
X43969938Y-28900493D01*
X43969936Y-28900493D01*
X43969934Y-28900492D01*
X38542535Y-28899904D01*
X38504230Y-28893835D01*
X38316240Y-28832753D01*
X38154957Y-28807208D01*
X38106287Y-28799500D01*
X37893713Y-28799500D01*
X37851721Y-28806150D01*
X37683753Y-28832754D01*
X37614606Y-28855221D01*
X37596492Y-28855738D01*
X37579229Y-28861255D01*
X37545335Y-28857199D01*
X37544765Y-28857216D01*
X37544185Y-28857062D01*
X37432848Y-28827219D01*
X37412539Y-28819825D01*
X37234748Y-28736903D01*
X37216030Y-28726094D01*
X37153369Y-28682211D01*
X37109748Y-28627631D01*
X37100500Y-28580642D01*
X37100500Y-26719079D01*
X37102350Y-26712777D01*
X37101158Y-26706318D01*
X37112073Y-26679666D01*
X37120185Y-26652040D01*
X37125764Y-26646234D01*
X37127638Y-26641660D01*
X37153373Y-26617507D01*
X37216042Y-26573623D01*
X37234739Y-26562826D01*
X37412554Y-26479903D01*
X37432850Y-26472516D01*
X37622338Y-26421734D01*
X37643610Y-26417982D01*
X37844476Y-26400399D01*
X37855251Y-26399928D01*
X46900950Y-26399502D01*
X46907022Y-26399650D01*
G37*
%TD.AperFunction*%
%TD*%
M02*
