%TF.GenerationSoftware,KiCad,Pcbnew,10.0.3*%
%TF.CreationDate,2026-08-10T18:04:38+08:00*%
%TF.ProjectId,Renesas ArmSync CAN Connector,52656e65-7361-4732-9041-726d53796e63,rev?*%
%TF.SameCoordinates,Original*%
%TF.FileFunction,Legend,Bot*%
%TF.FilePolarity,Positive*%
%FSLAX46Y46*%
G04 Gerber Fmt 4.6, Leading zero omitted, Abs format (unit mm)*
G04 Created by KiCad (PCBNEW 10.0.3) date 2026-08-10 18:04:38*
%MOMM*%
%LPD*%
G01*
G04 APERTURE LIST*
%ADD10C,0.150000*%
%ADD11C,0.000000*%
G04 APERTURE END LIST*
D10*
X39945180Y-45761904D02*
X40945180Y-45761904D01*
X40945180Y-45761904D02*
X40945180Y-45523809D01*
X40945180Y-45523809D02*
X40897561Y-45380952D01*
X40897561Y-45380952D02*
X40802323Y-45285714D01*
X40802323Y-45285714D02*
X40707085Y-45238095D01*
X40707085Y-45238095D02*
X40516609Y-45190476D01*
X40516609Y-45190476D02*
X40373752Y-45190476D01*
X40373752Y-45190476D02*
X40183276Y-45238095D01*
X40183276Y-45238095D02*
X40088038Y-45285714D01*
X40088038Y-45285714D02*
X39992800Y-45380952D01*
X39992800Y-45380952D02*
X39945180Y-45523809D01*
X39945180Y-45523809D02*
X39945180Y-45761904D01*
X40468990Y-44761904D02*
X40468990Y-44428571D01*
X39945180Y-44285714D02*
X39945180Y-44761904D01*
X39945180Y-44761904D02*
X40945180Y-44761904D01*
X40945180Y-44761904D02*
X40945180Y-44285714D01*
X39992800Y-43904761D02*
X39945180Y-43761904D01*
X39945180Y-43761904D02*
X39945180Y-43523809D01*
X39945180Y-43523809D02*
X39992800Y-43428571D01*
X39992800Y-43428571D02*
X40040419Y-43380952D01*
X40040419Y-43380952D02*
X40135657Y-43333333D01*
X40135657Y-43333333D02*
X40230895Y-43333333D01*
X40230895Y-43333333D02*
X40326133Y-43380952D01*
X40326133Y-43380952D02*
X40373752Y-43428571D01*
X40373752Y-43428571D02*
X40421371Y-43523809D01*
X40421371Y-43523809D02*
X40468990Y-43714285D01*
X40468990Y-43714285D02*
X40516609Y-43809523D01*
X40516609Y-43809523D02*
X40564228Y-43857142D01*
X40564228Y-43857142D02*
X40659466Y-43904761D01*
X40659466Y-43904761D02*
X40754704Y-43904761D01*
X40754704Y-43904761D02*
X40849942Y-43857142D01*
X40849942Y-43857142D02*
X40897561Y-43809523D01*
X40897561Y-43809523D02*
X40945180Y-43714285D01*
X40945180Y-43714285D02*
X40945180Y-43476190D01*
X40945180Y-43476190D02*
X40897561Y-43333333D01*
X39945180Y-42904761D02*
X40945180Y-42904761D01*
X40897561Y-41904762D02*
X40945180Y-42000000D01*
X40945180Y-42000000D02*
X40945180Y-42142857D01*
X40945180Y-42142857D02*
X40897561Y-42285714D01*
X40897561Y-42285714D02*
X40802323Y-42380952D01*
X40802323Y-42380952D02*
X40707085Y-42428571D01*
X40707085Y-42428571D02*
X40516609Y-42476190D01*
X40516609Y-42476190D02*
X40373752Y-42476190D01*
X40373752Y-42476190D02*
X40183276Y-42428571D01*
X40183276Y-42428571D02*
X40088038Y-42380952D01*
X40088038Y-42380952D02*
X39992800Y-42285714D01*
X39992800Y-42285714D02*
X39945180Y-42142857D01*
X39945180Y-42142857D02*
X39945180Y-42047619D01*
X39945180Y-42047619D02*
X39992800Y-41904762D01*
X39992800Y-41904762D02*
X40040419Y-41857143D01*
X40040419Y-41857143D02*
X40373752Y-41857143D01*
X40373752Y-41857143D02*
X40373752Y-42047619D01*
X39945180Y-41428571D02*
X40945180Y-41428571D01*
X40945180Y-41428571D02*
X39945180Y-40857143D01*
X39945180Y-40857143D02*
X40945180Y-40857143D01*
X40468990Y-40380952D02*
X40468990Y-40047619D01*
X39945180Y-39904762D02*
X39945180Y-40380952D01*
X39945180Y-40380952D02*
X40945180Y-40380952D01*
X40945180Y-40380952D02*
X40945180Y-39904762D01*
X39945180Y-39476190D02*
X40945180Y-39476190D01*
X40945180Y-39476190D02*
X40945180Y-39238095D01*
X40945180Y-39238095D02*
X40897561Y-39095238D01*
X40897561Y-39095238D02*
X40802323Y-39000000D01*
X40802323Y-39000000D02*
X40707085Y-38952381D01*
X40707085Y-38952381D02*
X40516609Y-38904762D01*
X40516609Y-38904762D02*
X40373752Y-38904762D01*
X40373752Y-38904762D02*
X40183276Y-38952381D01*
X40183276Y-38952381D02*
X40088038Y-39000000D01*
X40088038Y-39000000D02*
X39992800Y-39095238D01*
X39992800Y-39095238D02*
X39945180Y-39238095D01*
X39945180Y-39238095D02*
X39945180Y-39476190D01*
X40468990Y-37380952D02*
X40421371Y-37238095D01*
X40421371Y-37238095D02*
X40373752Y-37190476D01*
X40373752Y-37190476D02*
X40278514Y-37142857D01*
X40278514Y-37142857D02*
X40135657Y-37142857D01*
X40135657Y-37142857D02*
X40040419Y-37190476D01*
X40040419Y-37190476D02*
X39992800Y-37238095D01*
X39992800Y-37238095D02*
X39945180Y-37333333D01*
X39945180Y-37333333D02*
X39945180Y-37714285D01*
X39945180Y-37714285D02*
X40945180Y-37714285D01*
X40945180Y-37714285D02*
X40945180Y-37380952D01*
X40945180Y-37380952D02*
X40897561Y-37285714D01*
X40897561Y-37285714D02*
X40849942Y-37238095D01*
X40849942Y-37238095D02*
X40754704Y-37190476D01*
X40754704Y-37190476D02*
X40659466Y-37190476D01*
X40659466Y-37190476D02*
X40564228Y-37238095D01*
X40564228Y-37238095D02*
X40516609Y-37285714D01*
X40516609Y-37285714D02*
X40468990Y-37380952D01*
X40468990Y-37380952D02*
X40468990Y-37714285D01*
X40421371Y-36523809D02*
X39945180Y-36523809D01*
X40945180Y-36857142D02*
X40421371Y-36523809D01*
X40421371Y-36523809D02*
X40945180Y-36190476D01*
X40945180Y-35190475D02*
X39945180Y-34952380D01*
X39945180Y-34952380D02*
X40659466Y-34761904D01*
X40659466Y-34761904D02*
X39945180Y-34571428D01*
X39945180Y-34571428D02*
X40945180Y-34333333D01*
X39945180Y-33952380D02*
X40945180Y-33952380D01*
X39945180Y-33000000D02*
X39945180Y-33476190D01*
X39945180Y-33476190D02*
X40945180Y-33476190D01*
X39945180Y-32190476D02*
X39945180Y-32666666D01*
X39945180Y-32666666D02*
X40945180Y-32666666D01*
X39945180Y-31857142D02*
X40945180Y-31857142D01*
X40945180Y-31523809D02*
X40945180Y-30952381D01*
X39945180Y-31238095D02*
X40945180Y-31238095D01*
X40945180Y-30428571D02*
X40945180Y-30238095D01*
X40945180Y-30238095D02*
X40897561Y-30142857D01*
X40897561Y-30142857D02*
X40802323Y-30047619D01*
X40802323Y-30047619D02*
X40611847Y-30000000D01*
X40611847Y-30000000D02*
X40278514Y-30000000D01*
X40278514Y-30000000D02*
X40088038Y-30047619D01*
X40088038Y-30047619D02*
X39992800Y-30142857D01*
X39992800Y-30142857D02*
X39945180Y-30238095D01*
X39945180Y-30238095D02*
X39945180Y-30428571D01*
X39945180Y-30428571D02*
X39992800Y-30523809D01*
X39992800Y-30523809D02*
X40088038Y-30619047D01*
X40088038Y-30619047D02*
X40278514Y-30666666D01*
X40278514Y-30666666D02*
X40611847Y-30666666D01*
X40611847Y-30666666D02*
X40802323Y-30619047D01*
X40802323Y-30619047D02*
X40897561Y-30523809D01*
X40897561Y-30523809D02*
X40945180Y-30428571D01*
X40945180Y-29571428D02*
X40135657Y-29571428D01*
X40135657Y-29571428D02*
X40040419Y-29523809D01*
X40040419Y-29523809D02*
X39992800Y-29476190D01*
X39992800Y-29476190D02*
X39945180Y-29380952D01*
X39945180Y-29380952D02*
X39945180Y-29190476D01*
X39945180Y-29190476D02*
X39992800Y-29095238D01*
X39992800Y-29095238D02*
X40040419Y-29047619D01*
X40040419Y-29047619D02*
X40135657Y-29000000D01*
X40135657Y-29000000D02*
X40945180Y-29000000D01*
X39945180Y-27952381D02*
X40421371Y-28285714D01*
X39945180Y-28523809D02*
X40945180Y-28523809D01*
X40945180Y-28523809D02*
X40945180Y-28142857D01*
X40945180Y-28142857D02*
X40897561Y-28047619D01*
X40897561Y-28047619D02*
X40849942Y-28000000D01*
X40849942Y-28000000D02*
X40754704Y-27952381D01*
X40754704Y-27952381D02*
X40611847Y-27952381D01*
X40611847Y-27952381D02*
X40516609Y-28000000D01*
X40516609Y-28000000D02*
X40468990Y-28047619D01*
X40468990Y-28047619D02*
X40421371Y-28142857D01*
X40421371Y-28142857D02*
X40421371Y-28523809D01*
X40945180Y-27666666D02*
X40945180Y-27095238D01*
X39945180Y-27380952D02*
X40945180Y-27380952D01*
D11*
G36*
X47349085Y-31656539D02*
G01*
X47363443Y-31657633D01*
X47377593Y-31659434D01*
X47391517Y-31661924D01*
X47405196Y-31665087D01*
X47418614Y-31668903D01*
X47431751Y-31673356D01*
X47444592Y-31678427D01*
X47457117Y-31684099D01*
X47469309Y-31690355D01*
X47481150Y-31697175D01*
X47492623Y-31704544D01*
X47503710Y-31712442D01*
X47514392Y-31720852D01*
X47524652Y-31729756D01*
X47534473Y-31739138D01*
X47543836Y-31748978D01*
X47552724Y-31759259D01*
X47561119Y-31769963D01*
X47569004Y-31781073D01*
X47576359Y-31792571D01*
X47583169Y-31804439D01*
X47589414Y-31816660D01*
X47595077Y-31829215D01*
X47600141Y-31842087D01*
X47604587Y-31855258D01*
X47608398Y-31868710D01*
X47611555Y-31882426D01*
X47614042Y-31896388D01*
X47615841Y-31910578D01*
X47616933Y-31924979D01*
X47617301Y-31939572D01*
X47617337Y-31943183D01*
X47617396Y-31946723D01*
X47617413Y-31948485D01*
X47617408Y-31950251D01*
X47617374Y-31952030D01*
X47617301Y-31953827D01*
X47616254Y-31967784D01*
X47614542Y-31981546D01*
X47612180Y-31995096D01*
X47609185Y-32008418D01*
X47605574Y-32021496D01*
X47601362Y-32034314D01*
X47596565Y-32046855D01*
X47591202Y-32059103D01*
X47585286Y-32071042D01*
X47578835Y-32082656D01*
X47571866Y-32093928D01*
X47564394Y-32104843D01*
X47556435Y-32115383D01*
X47548007Y-32125533D01*
X47539125Y-32135276D01*
X47529806Y-32144597D01*
X47520066Y-32153479D01*
X47509921Y-32161905D01*
X47499388Y-32169860D01*
X47488482Y-32177327D01*
X47477221Y-32184290D01*
X47465621Y-32190732D01*
X47453697Y-32196639D01*
X47441466Y-32201992D01*
X47428946Y-32206777D01*
X47416150Y-32210976D01*
X47403097Y-32214574D01*
X47389803Y-32217554D01*
X47376283Y-32219900D01*
X47362554Y-32221596D01*
X47348633Y-32222625D01*
X47334535Y-32222972D01*
X47319986Y-32222603D01*
X47305628Y-32221510D01*
X47291478Y-32219708D01*
X47277554Y-32217217D01*
X47263875Y-32214054D01*
X47250457Y-32210237D01*
X47237319Y-32205783D01*
X47224479Y-32200711D01*
X47211954Y-32195038D01*
X47199762Y-32188782D01*
X47187920Y-32181960D01*
X47176447Y-32174591D01*
X47165361Y-32166692D01*
X47154679Y-32158281D01*
X47144418Y-32149375D01*
X47134598Y-32139993D01*
X47125234Y-32130153D01*
X47116346Y-32119871D01*
X47107951Y-32109166D01*
X47100067Y-32098055D01*
X47092712Y-32086557D01*
X47085902Y-32074689D01*
X47079657Y-32062469D01*
X47073994Y-32049915D01*
X47068930Y-32037043D01*
X47064484Y-32023873D01*
X47060673Y-32010422D01*
X47057516Y-31996707D01*
X47055028Y-31982747D01*
X47053230Y-31968560D01*
X47052138Y-31954162D01*
X47051770Y-31939571D01*
X47052138Y-31924978D01*
X47053230Y-31910578D01*
X47055028Y-31896388D01*
X47057516Y-31882426D01*
X47060673Y-31868710D01*
X47064484Y-31855258D01*
X47068930Y-31842087D01*
X47073994Y-31829215D01*
X47079657Y-31816660D01*
X47085902Y-31804439D01*
X47092712Y-31792571D01*
X47100067Y-31781073D01*
X47107951Y-31769963D01*
X47116346Y-31759259D01*
X47125234Y-31748978D01*
X47134598Y-31739138D01*
X47144418Y-31729756D01*
X47154679Y-31720852D01*
X47165361Y-31712442D01*
X47176447Y-31704544D01*
X47187920Y-31697175D01*
X47199762Y-31690355D01*
X47211954Y-31684099D01*
X47224479Y-31678427D01*
X47237319Y-31673356D01*
X47250457Y-31668903D01*
X47263875Y-31665087D01*
X47277554Y-31661924D01*
X47291478Y-31659434D01*
X47305628Y-31657633D01*
X47319986Y-31656539D01*
X47334535Y-31656171D01*
X47349085Y-31656539D01*
G37*
G36*
X47316121Y-31460945D02*
G01*
X47320032Y-31461242D01*
X47323908Y-31461731D01*
X47327744Y-31462409D01*
X47331533Y-31463270D01*
X47335268Y-31464311D01*
X47338944Y-31465525D01*
X47342554Y-31466911D01*
X47346091Y-31468462D01*
X47349550Y-31470174D01*
X47352923Y-31472042D01*
X47356205Y-31474064D01*
X47359389Y-31476233D01*
X47362469Y-31478545D01*
X47365438Y-31480996D01*
X47368289Y-31483582D01*
X47371018Y-31486298D01*
X47373617Y-31489139D01*
X47376079Y-31492101D01*
X47378399Y-31495179D01*
X47380570Y-31498370D01*
X47382586Y-31501668D01*
X47384440Y-31505070D01*
X47386125Y-31508570D01*
X47387637Y-31512164D01*
X47388967Y-31515848D01*
X47390111Y-31519617D01*
X47391061Y-31523467D01*
X47391810Y-31527393D01*
X47392354Y-31531391D01*
X47392685Y-31535457D01*
X47392796Y-31539585D01*
X47392796Y-31622072D01*
X47385683Y-31620829D01*
X47378513Y-31619725D01*
X47371291Y-31618769D01*
X47364019Y-31617968D01*
X47356701Y-31617331D01*
X47349340Y-31616865D01*
X47341940Y-31616580D01*
X47334503Y-31616483D01*
X47327314Y-31616563D01*
X47320156Y-31616802D01*
X47313032Y-31617197D01*
X47305948Y-31617746D01*
X47298907Y-31618446D01*
X47291913Y-31619296D01*
X47284971Y-31620294D01*
X47278084Y-31621437D01*
X47278084Y-31575558D01*
X44749831Y-31575558D01*
X44749831Y-34209823D01*
X47278084Y-34209823D01*
X47278084Y-32257675D01*
X47285079Y-32258839D01*
X47292096Y-32259849D01*
X47299132Y-32260704D01*
X47306184Y-32261405D01*
X47313250Y-32261952D01*
X47320327Y-32262343D01*
X47327412Y-32262579D01*
X47334503Y-32262659D01*
X47341954Y-32262562D01*
X47349353Y-32262277D01*
X47356704Y-32261812D01*
X47364007Y-32261175D01*
X47371266Y-32260374D01*
X47378482Y-32259418D01*
X47385658Y-32258314D01*
X47392796Y-32257071D01*
X47392828Y-34245161D01*
X47392717Y-34249283D01*
X47392385Y-34253346D01*
X47391841Y-34257346D01*
X47391090Y-34261279D01*
X47390139Y-34265139D01*
X47388994Y-34268921D01*
X47387661Y-34272622D01*
X47386148Y-34276235D01*
X47384460Y-34279757D01*
X47382604Y-34283183D01*
X47380586Y-34286507D01*
X47378413Y-34289726D01*
X47376090Y-34292834D01*
X47373625Y-34295826D01*
X47371024Y-34298698D01*
X47368294Y-34301446D01*
X47365440Y-34304064D01*
X47362469Y-34306547D01*
X47359387Y-34308891D01*
X47356201Y-34311091D01*
X47352918Y-34313143D01*
X47349543Y-34315041D01*
X47346084Y-34316781D01*
X47342546Y-34318358D01*
X47338935Y-34319767D01*
X47335259Y-34321004D01*
X47331524Y-34322063D01*
X47327736Y-34322941D01*
X47323902Y-34323632D01*
X47320027Y-34324131D01*
X47316119Y-34324434D01*
X47312184Y-34324536D01*
X44715764Y-34324536D01*
X44711831Y-34324434D01*
X44707926Y-34324131D01*
X44704054Y-34323632D01*
X44700222Y-34322941D01*
X44696436Y-34322063D01*
X44692703Y-34321004D01*
X44689029Y-34319767D01*
X44685420Y-34318358D01*
X44681884Y-34316781D01*
X44678425Y-34315041D01*
X44675052Y-34313143D01*
X44671770Y-34311091D01*
X44668585Y-34308891D01*
X44665505Y-34306547D01*
X44662535Y-34304064D01*
X44659681Y-34301446D01*
X44656951Y-34298698D01*
X44654351Y-34295826D01*
X44651886Y-34292834D01*
X44649565Y-34289726D01*
X44647392Y-34286507D01*
X44645374Y-34283183D01*
X44643518Y-34279757D01*
X44641830Y-34276235D01*
X44640317Y-34272622D01*
X44638985Y-34268921D01*
X44637840Y-34265139D01*
X44636889Y-34261279D01*
X44636138Y-34257346D01*
X44635594Y-34253346D01*
X44635262Y-34249283D01*
X44635151Y-34245161D01*
X44635151Y-31539585D01*
X44635262Y-31535465D01*
X44635594Y-31531407D01*
X44636138Y-31527415D01*
X44636889Y-31523494D01*
X44637840Y-31519649D01*
X44638985Y-31515883D01*
X44640317Y-31512202D01*
X44641831Y-31508610D01*
X44643519Y-31505111D01*
X44645375Y-31501710D01*
X44647393Y-31498412D01*
X44649566Y-31495221D01*
X44651889Y-31492142D01*
X44654353Y-31489178D01*
X44656954Y-31486335D01*
X44659685Y-31483618D01*
X44662539Y-31481030D01*
X44665510Y-31478576D01*
X44668592Y-31476261D01*
X44671778Y-31474089D01*
X44675061Y-31472065D01*
X44678436Y-31470193D01*
X44681895Y-31468478D01*
X44685433Y-31466924D01*
X44689044Y-31465536D01*
X44692719Y-31464319D01*
X44696455Y-31463276D01*
X44700243Y-31462413D01*
X44704077Y-31461734D01*
X44707952Y-31461243D01*
X44711860Y-31460945D01*
X44715795Y-31460845D01*
X47312183Y-31460845D01*
X47316121Y-31460945D01*
G37*
G36*
X45484718Y-29973167D02*
G01*
X45462765Y-29993924D01*
X45442234Y-30015048D01*
X45423123Y-30036539D01*
X45405432Y-30058398D01*
X45389161Y-30080625D01*
X45374308Y-30103221D01*
X45360873Y-30126187D01*
X45348855Y-30149523D01*
X45338254Y-30173229D01*
X45329068Y-30197306D01*
X45321298Y-30221755D01*
X45314942Y-30246576D01*
X45309999Y-30271771D01*
X45306470Y-30297338D01*
X45304353Y-30323279D01*
X45303647Y-30349595D01*
X45303938Y-30364364D01*
X45304812Y-30379024D01*
X45306269Y-30393576D01*
X45308311Y-30408018D01*
X45310938Y-30422352D01*
X45314150Y-30436576D01*
X45317949Y-30450691D01*
X45322336Y-30464697D01*
X45327311Y-30478593D01*
X45332875Y-30492380D01*
X45339029Y-30506058D01*
X45345773Y-30519626D01*
X45353109Y-30533083D01*
X45361037Y-30546432D01*
X45369558Y-30559670D01*
X45378673Y-30572798D01*
X45389062Y-30586619D01*
X45400000Y-30600000D01*
X45411488Y-30612941D01*
X45423525Y-30625443D01*
X45436113Y-30637506D01*
X45449249Y-30649130D01*
X45462936Y-30660314D01*
X45477172Y-30671059D01*
X45491958Y-30681364D01*
X45507294Y-30691231D01*
X45523180Y-30700658D01*
X45539616Y-30709647D01*
X45556602Y-30718196D01*
X45574138Y-30726307D01*
X45610860Y-30741212D01*
X45649784Y-30754361D01*
X45690910Y-30765756D01*
X45734237Y-30775397D01*
X45779767Y-30783284D01*
X45827500Y-30789418D01*
X45877437Y-30793798D01*
X45929578Y-30796426D01*
X45983923Y-30797302D01*
X46022559Y-30796821D01*
X46060363Y-30795370D01*
X46097336Y-30792939D01*
X46133481Y-30789515D01*
X46168798Y-30785089D01*
X46203289Y-30779648D01*
X46236956Y-30773182D01*
X46269800Y-30765679D01*
X46317771Y-30752602D01*
X46362650Y-30737779D01*
X46404436Y-30721210D01*
X46443128Y-30702895D01*
X46478726Y-30682836D01*
X46495365Y-30672152D01*
X46511231Y-30661032D01*
X46526322Y-30649476D01*
X46540641Y-30637484D01*
X46554185Y-30625056D01*
X46566956Y-30612192D01*
X46578953Y-30598892D01*
X46590176Y-30585156D01*
X46600626Y-30570984D01*
X46610302Y-30556377D01*
X46619204Y-30541334D01*
X46627332Y-30525855D01*
X46634686Y-30509941D01*
X46641266Y-30493591D01*
X46647072Y-30476806D01*
X46652104Y-30459585D01*
X46656362Y-30441929D01*
X46659846Y-30423838D01*
X46662556Y-30405311D01*
X46664491Y-30386349D01*
X46666040Y-30347119D01*
X46665429Y-30321804D01*
X46663597Y-30297127D01*
X46660545Y-30273089D01*
X46656271Y-30249691D01*
X46650776Y-30226934D01*
X46644061Y-30204818D01*
X46636125Y-30183344D01*
X46626967Y-30162512D01*
X46616589Y-30142324D01*
X46604991Y-30122780D01*
X46592171Y-30103880D01*
X46578131Y-30085626D01*
X46562871Y-30068018D01*
X46546390Y-30051057D01*
X46528688Y-30034743D01*
X46509766Y-30019078D01*
X46872542Y-29769142D01*
X46873200Y-29774300D01*
X46874102Y-29779655D01*
X46875251Y-29785206D01*
X46876645Y-29790953D01*
X46878287Y-29796896D01*
X46880177Y-29803035D01*
X46882315Y-29809371D01*
X46884702Y-29815901D01*
X46887339Y-29822628D01*
X46890228Y-29829550D01*
X46893367Y-29836668D01*
X46896759Y-29843981D01*
X46900404Y-29851490D01*
X46904303Y-29859194D01*
X46908456Y-29867093D01*
X46912864Y-29875187D01*
X46930095Y-29907057D01*
X46946221Y-29938849D01*
X46961243Y-29970562D01*
X46975158Y-30002194D01*
X46987967Y-30033744D01*
X46999667Y-30065211D01*
X47010258Y-30096593D01*
X47019739Y-30127889D01*
X47028108Y-30159097D01*
X47035365Y-30190217D01*
X47041508Y-30221247D01*
X47046537Y-30252185D01*
X47050450Y-30283030D01*
X47053247Y-30313781D01*
X47054925Y-30344436D01*
X47055485Y-30374995D01*
X47054416Y-30421329D01*
X47051210Y-30466869D01*
X47045866Y-30511615D01*
X47038385Y-30555569D01*
X47028767Y-30598733D01*
X47017013Y-30641109D01*
X47003122Y-30682697D01*
X46987096Y-30723499D01*
X46968933Y-30763517D01*
X46948636Y-30802752D01*
X46926203Y-30841206D01*
X46901636Y-30878879D01*
X46874934Y-30915775D01*
X46846097Y-30951894D01*
X46815127Y-30987237D01*
X46782023Y-31021806D01*
X46744245Y-31057615D01*
X46704851Y-31091115D01*
X46663842Y-31122306D01*
X46621217Y-31151189D01*
X46576977Y-31177762D01*
X46531123Y-31202025D01*
X46483655Y-31223979D01*
X46434574Y-31243623D01*
X46383881Y-31260957D01*
X46331576Y-31275980D01*
X46277659Y-31288693D01*
X46222131Y-31299095D01*
X46164993Y-31307186D01*
X46106245Y-31312965D01*
X46045888Y-31316433D01*
X45983923Y-31317589D01*
X45928534Y-31316647D01*
X45874309Y-31313823D01*
X45821247Y-31309115D01*
X45769347Y-31302523D01*
X45718607Y-31294048D01*
X45669026Y-31283687D01*
X45620602Y-31271442D01*
X45573336Y-31257311D01*
X45527224Y-31241295D01*
X45482267Y-31223393D01*
X45438462Y-31203604D01*
X45395809Y-31181929D01*
X45354306Y-31158366D01*
X45313952Y-31132916D01*
X45274746Y-31105578D01*
X45236686Y-31076352D01*
X45197498Y-31043236D01*
X45160835Y-31008742D01*
X45126699Y-30972867D01*
X45095089Y-30935612D01*
X45066006Y-30896976D01*
X45039450Y-30856957D01*
X45015422Y-30815556D01*
X44993922Y-30772771D01*
X44974950Y-30728601D01*
X44958506Y-30683047D01*
X44944592Y-30636106D01*
X44933206Y-30587778D01*
X44924351Y-30538063D01*
X44918024Y-30486959D01*
X44914229Y-30434466D01*
X44912963Y-30380583D01*
X44913451Y-30346439D01*
X44914914Y-30312707D01*
X44917353Y-30279388D01*
X44920770Y-30246480D01*
X44925164Y-30213986D01*
X44930537Y-30181905D01*
X44936889Y-30150237D01*
X44944221Y-30118983D01*
X44952534Y-30088143D01*
X44961828Y-30057718D01*
X44972105Y-30027707D01*
X44983365Y-29998111D01*
X44995608Y-29968931D01*
X45008836Y-29940167D01*
X45023049Y-29911818D01*
X45038249Y-29883886D01*
X45054863Y-29854187D01*
X45069130Y-29827865D01*
X45081044Y-29804928D01*
X45090605Y-29785382D01*
X45097807Y-29769235D01*
X45102650Y-29756495D01*
X45104185Y-29751405D01*
X45105129Y-29747170D01*
X45105481Y-29743789D01*
X45105242Y-29741265D01*
X45484718Y-29973167D01*
G37*
G36*
X44955778Y-26712302D02*
G01*
X44965875Y-26719560D01*
X44976780Y-26726313D01*
X44988493Y-26732560D01*
X45001015Y-26738304D01*
X45014345Y-26743543D01*
X45028483Y-26748280D01*
X45043428Y-26752515D01*
X45059180Y-26756248D01*
X45075739Y-26759482D01*
X45093104Y-26762215D01*
X45111275Y-26764450D01*
X45130252Y-26766187D01*
X45150035Y-26767427D01*
X45170622Y-26768170D01*
X45192014Y-26768418D01*
X47150354Y-26768418D01*
X47150354Y-27316581D01*
X47143864Y-27310968D01*
X47137301Y-27305630D01*
X47130664Y-27300566D01*
X47123953Y-27295776D01*
X47117168Y-27291260D01*
X47110307Y-27287018D01*
X47103371Y-27283048D01*
X47096359Y-27279350D01*
X47089271Y-27275925D01*
X47082106Y-27272771D01*
X47074864Y-27269888D01*
X47067544Y-27267276D01*
X47060147Y-27264934D01*
X47052671Y-27262862D01*
X47045116Y-27261059D01*
X47037483Y-27259526D01*
X47033538Y-27258857D01*
X47029028Y-27258230D01*
X47018317Y-27257104D01*
X47005359Y-27256150D01*
X46990167Y-27255367D01*
X46972752Y-27254757D01*
X46953124Y-27254320D01*
X46931295Y-27254058D01*
X46907276Y-27253970D01*
X46378956Y-27253970D01*
X46393984Y-27270749D01*
X46408040Y-27288306D01*
X46421125Y-27306642D01*
X46433240Y-27325756D01*
X46444383Y-27345646D01*
X46454556Y-27366312D01*
X46463759Y-27387754D01*
X46471992Y-27409969D01*
X46479255Y-27432958D01*
X46485549Y-27456720D01*
X46490873Y-27481254D01*
X46495230Y-27506559D01*
X46498617Y-27532634D01*
X46501036Y-27559479D01*
X46502488Y-27587093D01*
X46502972Y-27615475D01*
X46502597Y-27637116D01*
X46501472Y-27658439D01*
X46499598Y-27679444D01*
X46496973Y-27700131D01*
X46493598Y-27720500D01*
X46489472Y-27740553D01*
X46484594Y-27760288D01*
X46478965Y-27779706D01*
X46472583Y-27798808D01*
X46465450Y-27817593D01*
X46457564Y-27836062D01*
X46448925Y-27854215D01*
X46439532Y-27872052D01*
X46429386Y-27889574D01*
X46418487Y-27906781D01*
X46406833Y-27923672D01*
X46393761Y-27941095D01*
X46380002Y-27957966D01*
X46365555Y-27974285D01*
X46350420Y-27990052D01*
X46334598Y-28005267D01*
X46318089Y-28019929D01*
X46300892Y-28034040D01*
X46283008Y-28047598D01*
X46264437Y-28060603D01*
X46245179Y-28073056D01*
X46225234Y-28084957D01*
X46204601Y-28096304D01*
X46183282Y-28107099D01*
X46161277Y-28117341D01*
X46115205Y-28136167D01*
X46066387Y-28152780D01*
X46014823Y-28167180D01*
X45960515Y-28179367D01*
X45903462Y-28189339D01*
X45843665Y-28197096D01*
X45781125Y-28202638D01*
X45715842Y-28205963D01*
X45671375Y-28206688D01*
X45647817Y-28207072D01*
X45606457Y-28206374D01*
X45566073Y-28204281D01*
X45526661Y-28200792D01*
X45488214Y-28195908D01*
X45450727Y-28189630D01*
X45414194Y-28181957D01*
X45378610Y-28172891D01*
X45343970Y-28162432D01*
X45319884Y-28154118D01*
X45296441Y-28145216D01*
X45273642Y-28135727D01*
X45251487Y-28125652D01*
X45229975Y-28114993D01*
X45209106Y-28103752D01*
X45188880Y-28091930D01*
X45169297Y-28079529D01*
X45150357Y-28066549D01*
X45132060Y-28052994D01*
X45114406Y-28038864D01*
X45097394Y-28024160D01*
X45081025Y-28008885D01*
X45065298Y-27993040D01*
X45050214Y-27976626D01*
X45035772Y-27959645D01*
X45021236Y-27941137D01*
X45007630Y-27922227D01*
X44994957Y-27902911D01*
X44983216Y-27883189D01*
X44972410Y-27863059D01*
X44962538Y-27842519D01*
X44953602Y-27821568D01*
X44945602Y-27800204D01*
X44938541Y-27778425D01*
X44932417Y-27756230D01*
X44927234Y-27733618D01*
X44922990Y-27710586D01*
X44919688Y-27687134D01*
X44917329Y-27663259D01*
X44915912Y-27638960D01*
X44915440Y-27614236D01*
X44916025Y-27585091D01*
X44917781Y-27556591D01*
X44920708Y-27528737D01*
X44924803Y-27501532D01*
X44929009Y-27480316D01*
X45286882Y-27480316D01*
X45287257Y-27494131D01*
X45288380Y-27507507D01*
X45290253Y-27520444D01*
X45292875Y-27532942D01*
X45296247Y-27545001D01*
X45300368Y-27556622D01*
X45305239Y-27567803D01*
X45310861Y-27578545D01*
X45317233Y-27588849D01*
X45324356Y-27598714D01*
X45332229Y-27608140D01*
X45340854Y-27617128D01*
X45350230Y-27625676D01*
X45360357Y-27633786D01*
X45371236Y-27641458D01*
X45382867Y-27648691D01*
X45395249Y-27655485D01*
X45408385Y-27661841D01*
X45422272Y-27667758D01*
X45436912Y-27673237D01*
X45452305Y-27678277D01*
X45468451Y-27682879D01*
X45485351Y-27687042D01*
X45503003Y-27690767D01*
X45521410Y-27694054D01*
X45540570Y-27696902D01*
X45560485Y-27699312D01*
X45581153Y-27701284D01*
X45602577Y-27702818D01*
X45624755Y-27703913D01*
X45647687Y-27704570D01*
X45671375Y-27704789D01*
X45729143Y-27703829D01*
X45783194Y-27700950D01*
X45833526Y-27696151D01*
X45880137Y-27689433D01*
X45923028Y-27680796D01*
X45962195Y-27670241D01*
X45997638Y-27657768D01*
X46029356Y-27643377D01*
X46057348Y-27627068D01*
X46081611Y-27608841D01*
X46092344Y-27599009D01*
X46102145Y-27588698D01*
X46111014Y-27577908D01*
X46118949Y-27566638D01*
X46125951Y-27554889D01*
X46132021Y-27542661D01*
X46137157Y-27529954D01*
X46141359Y-27516768D01*
X46144628Y-27503103D01*
X46146963Y-27488959D01*
X46148365Y-27474336D01*
X46148832Y-27459234D01*
X46148527Y-27445187D01*
X46147611Y-27431300D01*
X46146086Y-27417573D01*
X46143950Y-27404007D01*
X46141204Y-27390602D01*
X46137848Y-27377360D01*
X46133882Y-27364280D01*
X46129305Y-27351363D01*
X46124119Y-27338611D01*
X46118322Y-27326022D01*
X46111915Y-27313598D01*
X46104898Y-27301339D01*
X46097270Y-27289247D01*
X46089033Y-27277321D01*
X46080185Y-27265562D01*
X46070727Y-27253970D01*
X45374322Y-27253970D01*
X45363687Y-27267604D01*
X45353746Y-27281312D01*
X45344500Y-27295091D01*
X45335947Y-27308942D01*
X45328085Y-27322863D01*
X45320913Y-27336853D01*
X45314430Y-27350911D01*
X45308635Y-27365036D01*
X45303527Y-27379227D01*
X45299103Y-27393482D01*
X45295364Y-27407802D01*
X45292307Y-27422184D01*
X45289932Y-27436627D01*
X45288237Y-27451131D01*
X45287221Y-27465694D01*
X45286882Y-27480316D01*
X44929009Y-27480316D01*
X44930067Y-27474977D01*
X44936499Y-27449071D01*
X44944099Y-27423818D01*
X44952865Y-27399217D01*
X44962797Y-27375271D01*
X44973895Y-27351979D01*
X44986158Y-27329345D01*
X44999584Y-27307368D01*
X45014174Y-27286049D01*
X45029927Y-27265392D01*
X45046842Y-27245395D01*
X45064919Y-27226061D01*
X44946492Y-27226061D01*
X44946492Y-26704537D01*
X44955778Y-26712302D01*
G37*
G36*
X47230364Y-31633851D02*
G01*
X47215934Y-31639229D01*
X47201830Y-31645258D01*
X47188072Y-31651922D01*
X47174677Y-31659205D01*
X47161666Y-31667090D01*
X47149057Y-31675560D01*
X47136870Y-31684600D01*
X47125122Y-31694193D01*
X47113835Y-31704323D01*
X47103026Y-31714973D01*
X47092715Y-31726127D01*
X47082920Y-31737769D01*
X47073662Y-31749882D01*
X47064959Y-31762450D01*
X47056829Y-31775457D01*
X47049293Y-31788886D01*
X47043878Y-31797339D01*
X47038795Y-31805967D01*
X47034045Y-31814760D01*
X47029631Y-31823707D01*
X47025558Y-31832800D01*
X47021827Y-31842027D01*
X47018442Y-31851380D01*
X47015405Y-31860848D01*
X47012720Y-31870422D01*
X47010390Y-31880092D01*
X47008417Y-31889848D01*
X47006804Y-31899680D01*
X47005555Y-31909578D01*
X47004672Y-31919532D01*
X47004159Y-31929534D01*
X47004018Y-31939571D01*
X47004159Y-31949609D01*
X47004673Y-31959610D01*
X47005556Y-31969565D01*
X47006806Y-31979463D01*
X47008418Y-31989295D01*
X47010391Y-31999050D01*
X47012722Y-32008720D01*
X47015407Y-32018294D01*
X47018443Y-32027762D01*
X47021829Y-32037115D01*
X47025559Y-32046343D01*
X47029633Y-32055435D01*
X47034046Y-32064383D01*
X47038795Y-32073175D01*
X47043879Y-32081803D01*
X47049293Y-32090257D01*
X47056829Y-32103686D01*
X47064959Y-32116693D01*
X47073662Y-32129261D01*
X47082921Y-32141374D01*
X47092715Y-32153016D01*
X47103026Y-32164170D01*
X47113835Y-32174820D01*
X47125122Y-32184950D01*
X47136870Y-32194542D01*
X47149057Y-32203582D01*
X47161666Y-32212053D01*
X47174677Y-32219938D01*
X47188072Y-32227220D01*
X47201830Y-32233884D01*
X47215934Y-32239914D01*
X47230363Y-32245292D01*
X47230364Y-34162071D01*
X44946460Y-34162071D01*
X44946459Y-34162071D01*
X44797044Y-34162071D01*
X44797044Y-33068189D01*
X44946460Y-33068189D01*
X44953460Y-33066389D01*
X44960509Y-33064814D01*
X44967601Y-33063464D01*
X44974730Y-33062340D01*
X44981891Y-33061444D01*
X44989080Y-33060775D01*
X44996289Y-33060335D01*
X45003514Y-33060124D01*
X45013374Y-33060539D01*
X45023772Y-33061782D01*
X45034707Y-33063854D01*
X45046180Y-33066755D01*
X45058188Y-33070484D01*
X45070733Y-33075042D01*
X45083812Y-33080429D01*
X45097427Y-33086643D01*
X45111575Y-33093686D01*
X45126256Y-33101557D01*
X45141470Y-33110256D01*
X45157216Y-33119783D01*
X45173494Y-33130138D01*
X45190303Y-33141321D01*
X45207641Y-33153331D01*
X45225510Y-33166169D01*
X45774944Y-33569204D01*
X45218049Y-33569204D01*
X45194276Y-33568898D01*
X45171414Y-33567983D01*
X45149462Y-33566457D01*
X45128420Y-33564321D01*
X45108286Y-33561575D01*
X45089059Y-33558218D01*
X45070738Y-33554251D01*
X45053322Y-33549673D01*
X45036811Y-33544485D01*
X45021202Y-33538686D01*
X45006496Y-33532276D01*
X44992691Y-33525256D01*
X44979785Y-33517625D01*
X44967779Y-33509383D01*
X44956671Y-33500530D01*
X44946460Y-33491067D01*
X44946460Y-34146577D01*
X44953317Y-34139929D01*
X44960292Y-34133592D01*
X44967385Y-34127566D01*
X44974597Y-34121850D01*
X44981927Y-34116443D01*
X44989377Y-34111345D01*
X44996945Y-34106553D01*
X45004633Y-34102068D01*
X45012441Y-34097888D01*
X45020369Y-34094013D01*
X45028418Y-34090441D01*
X45036587Y-34087173D01*
X45044877Y-34084206D01*
X45053288Y-34081540D01*
X45061821Y-34079174D01*
X45070475Y-34077108D01*
X45075623Y-34076095D01*
X45081303Y-34075141D01*
X45094260Y-34073410D01*
X45109350Y-34071924D01*
X45126573Y-34070691D01*
X45145932Y-34069718D01*
X45167429Y-34069013D01*
X45191065Y-34068585D01*
X45216843Y-34068441D01*
X46752876Y-34068441D01*
X46778652Y-34068585D01*
X46802284Y-34069013D01*
X46823776Y-34069718D01*
X46843129Y-34070691D01*
X46860347Y-34071924D01*
X46875431Y-34073410D01*
X46888385Y-34075141D01*
X46899212Y-34077108D01*
X46907866Y-34079174D01*
X46916399Y-34081540D01*
X46924810Y-34084206D01*
X46933100Y-34087173D01*
X46941269Y-34090441D01*
X46949317Y-34094013D01*
X46957245Y-34097888D01*
X46965053Y-34102068D01*
X46972741Y-34106553D01*
X46980310Y-34111345D01*
X46987759Y-34116443D01*
X46995090Y-34121850D01*
X47002301Y-34127566D01*
X47009395Y-34133592D01*
X47016370Y-34139929D01*
X47023227Y-34146577D01*
X47023227Y-33491099D01*
X47013019Y-33500557D01*
X47001923Y-33509406D01*
X46989936Y-33517645D01*
X46977060Y-33525274D01*
X46963292Y-33532293D01*
X46948633Y-33538702D01*
X46933082Y-33544501D01*
X46916638Y-33549689D01*
X46899301Y-33554267D01*
X46881069Y-33558234D01*
X46861944Y-33561590D01*
X46841923Y-33564335D01*
X46821006Y-33566469D01*
X46799193Y-33567992D01*
X46776483Y-33568904D01*
X46752875Y-33569204D01*
X46240653Y-33569204D01*
X46747288Y-33168646D01*
X46766328Y-33153778D01*
X46784754Y-33139870D01*
X46802567Y-33126921D01*
X46819767Y-33114931D01*
X46836355Y-33103900D01*
X46852331Y-33093828D01*
X46867696Y-33084716D01*
X46882451Y-33076563D01*
X46896596Y-33069369D01*
X46910132Y-33063134D01*
X46923059Y-33057858D01*
X46935378Y-33053542D01*
X46947090Y-33050185D01*
X46958195Y-33047787D01*
X46968693Y-33046348D01*
X46978586Y-33045868D01*
X46985379Y-33045997D01*
X46991826Y-33046377D01*
X46994919Y-33046658D01*
X46997926Y-33046997D01*
X47000847Y-33047393D01*
X47003681Y-33047845D01*
X47006428Y-33048351D01*
X47009088Y-33048910D01*
X47011662Y-33049521D01*
X47014149Y-33050181D01*
X47016549Y-33050891D01*
X47018862Y-33051648D01*
X47021088Y-33052450D01*
X47023227Y-33053298D01*
X47023227Y-32354417D01*
X47017267Y-32364511D01*
X47010541Y-32374912D01*
X47003048Y-32385621D01*
X46994788Y-32396639D01*
X46985758Y-32407968D01*
X46975959Y-32419609D01*
X46965387Y-32431564D01*
X46954044Y-32443833D01*
X46941926Y-32456418D01*
X46929033Y-32469321D01*
X46915364Y-32482544D01*
X46900917Y-32496086D01*
X46885691Y-32509951D01*
X46869686Y-32524139D01*
X46852899Y-32538651D01*
X46835330Y-32553489D01*
X46812556Y-32572554D01*
X46781887Y-32597705D01*
X46743372Y-32628959D01*
X46697059Y-32666329D01*
X46044057Y-33190966D01*
X45182108Y-32564634D01*
X45162260Y-32549863D01*
X45141776Y-32534126D01*
X45120663Y-32517426D01*
X45098931Y-32499764D01*
X45076589Y-32481143D01*
X45053645Y-32461563D01*
X45030110Y-32441027D01*
X45005991Y-32419536D01*
X44999581Y-32413286D01*
X44992894Y-32406393D01*
X44985921Y-32398853D01*
X44978654Y-32390663D01*
X44971083Y-32381820D01*
X44963200Y-32372320D01*
X44954995Y-32362160D01*
X44946460Y-32351337D01*
X44946460Y-33068189D01*
X44797044Y-33068189D01*
X44797044Y-32245292D01*
X44946459Y-32245292D01*
X44952947Y-32239508D01*
X44959518Y-32234013D01*
X44966172Y-32228806D01*
X44972910Y-32223888D01*
X44979733Y-32219256D01*
X44986641Y-32214910D01*
X44993635Y-32210849D01*
X45000716Y-32207073D01*
X45007884Y-32203580D01*
X45015141Y-32200370D01*
X45022486Y-32197442D01*
X45029920Y-32194795D01*
X45037445Y-32192428D01*
X45045061Y-32190340D01*
X45052769Y-32188531D01*
X45060569Y-32186999D01*
X45069342Y-32185692D01*
X45080321Y-32184559D01*
X45093497Y-32183599D01*
X45108860Y-32182812D01*
X45126403Y-32182200D01*
X45146115Y-32181762D01*
X45167988Y-32181499D01*
X45192013Y-32181411D01*
X46229477Y-32181411D01*
X46275230Y-32181762D01*
X46294762Y-32182200D01*
X46312066Y-32182812D01*
X46327148Y-32183599D01*
X46340008Y-32184559D01*
X46350651Y-32185692D01*
X46359080Y-32186999D01*
X46366721Y-32188527D01*
X46374295Y-32190324D01*
X46381800Y-32192392D01*
X46389236Y-32194731D01*
X46396601Y-32197340D01*
X46403894Y-32200221D01*
X46411114Y-32203374D01*
X46418258Y-32206799D01*
X46425326Y-32210497D01*
X46432317Y-32214468D01*
X46439228Y-32218713D01*
X46446060Y-32223231D01*
X46452809Y-32228024D01*
X46459476Y-32233092D01*
X46466058Y-32238435D01*
X46472555Y-32244054D01*
X46472586Y-32244054D01*
X46472586Y-31695859D01*
X45192045Y-31695859D01*
X45146115Y-31695508D01*
X45126396Y-31695070D01*
X45108852Y-31694458D01*
X45093490Y-31693672D01*
X45080317Y-31692711D01*
X45069341Y-31691578D01*
X45060569Y-31690271D01*
X45052769Y-31688732D01*
X45045063Y-31686903D01*
X45037448Y-31684784D01*
X45029925Y-31682377D01*
X45022492Y-31679682D01*
X45015149Y-31676701D01*
X45007894Y-31673434D01*
X45000728Y-31669883D01*
X44993648Y-31666050D01*
X44986655Y-31661934D01*
X44979747Y-31657537D01*
X44972924Y-31652860D01*
X44966184Y-31647904D01*
X44959527Y-31642671D01*
X44952952Y-31637161D01*
X44946459Y-31631375D01*
X44946459Y-32245292D01*
X44797044Y-32245292D01*
X44797044Y-31623309D01*
X47230364Y-31623309D01*
X47230364Y-31633851D01*
G37*
G36*
X44952979Y-28326974D02*
G01*
X44959550Y-28332488D01*
X44966204Y-28337724D01*
X44972942Y-28342682D01*
X44979765Y-28347359D01*
X44986673Y-28351756D01*
X44993667Y-28355871D01*
X45000748Y-28359704D01*
X45007916Y-28363253D01*
X45015172Y-28366517D01*
X45022517Y-28369496D01*
X45029952Y-28372189D01*
X45037477Y-28374595D01*
X45045093Y-28376712D01*
X45052800Y-28378540D01*
X45060600Y-28380079D01*
X45069372Y-28381385D01*
X45080348Y-28382519D01*
X45093520Y-28383479D01*
X45108880Y-28384266D01*
X45126420Y-28384878D01*
X45146133Y-28385316D01*
X45168011Y-28385579D01*
X45192045Y-28385667D01*
X45874194Y-28385667D01*
X45924410Y-28386540D01*
X45972552Y-28389160D01*
X46018629Y-28393524D01*
X46062650Y-28399633D01*
X46083893Y-28403341D01*
X46104625Y-28407484D01*
X46124848Y-28412063D01*
X46144563Y-28417077D01*
X46163771Y-28422526D01*
X46182473Y-28428410D01*
X46200670Y-28434729D01*
X46218364Y-28441483D01*
X46235869Y-28448957D01*
X46252818Y-28457077D01*
X46269212Y-28465846D01*
X46285051Y-28475262D01*
X46300334Y-28485325D01*
X46315062Y-28496037D01*
X46329235Y-28507396D01*
X46342853Y-28519403D01*
X46355915Y-28532057D01*
X46368422Y-28545360D01*
X46380373Y-28559311D01*
X46391769Y-28573909D01*
X46402609Y-28589156D01*
X46412893Y-28605051D01*
X46422622Y-28621594D01*
X46431796Y-28638786D01*
X46440413Y-28656625D01*
X46448475Y-28675114D01*
X46455981Y-28694250D01*
X46462931Y-28714035D01*
X46469326Y-28734469D01*
X46475165Y-28755551D01*
X46480447Y-28777282D01*
X46485174Y-28799662D01*
X46489345Y-28822690D01*
X46492960Y-28846368D01*
X46496019Y-28870694D01*
X46498521Y-28895669D01*
X46500468Y-28921294D01*
X46501859Y-28947567D01*
X46502693Y-28974489D01*
X46502971Y-29002061D01*
X46502971Y-29002062D01*
X46502680Y-29030041D01*
X46501800Y-29057477D01*
X46500326Y-29084375D01*
X46498248Y-29110742D01*
X46495561Y-29136586D01*
X46492255Y-29161912D01*
X46488325Y-29186728D01*
X46483762Y-29211040D01*
X46436010Y-29400810D01*
X46428163Y-29432938D01*
X46421360Y-29462355D01*
X46415603Y-29489049D01*
X46410892Y-29513007D01*
X46407227Y-29534217D01*
X46404609Y-29552668D01*
X46403038Y-29568348D01*
X46402514Y-29581245D01*
X46069520Y-29442974D01*
X46082014Y-29418634D01*
X46093697Y-29394429D01*
X46104568Y-29370361D01*
X46114629Y-29346430D01*
X46123881Y-29322637D01*
X46132324Y-29298983D01*
X46139959Y-29275470D01*
X46146788Y-29252097D01*
X46152809Y-29228866D01*
X46158026Y-29205778D01*
X46162438Y-29182833D01*
X46166045Y-29160033D01*
X46168850Y-29137377D01*
X46170852Y-29114868D01*
X46172053Y-29092506D01*
X46172453Y-29070293D01*
X46172220Y-29057506D01*
X46171519Y-29045126D01*
X46170352Y-29033152D01*
X46168717Y-29021585D01*
X46166616Y-29010424D01*
X46164048Y-28999670D01*
X46161013Y-28989321D01*
X46157512Y-28979379D01*
X46153544Y-28969843D01*
X46149109Y-28960714D01*
X46144209Y-28951990D01*
X46138842Y-28943673D01*
X46133008Y-28935761D01*
X46126709Y-28928256D01*
X46119943Y-28921157D01*
X46112712Y-28914463D01*
X46105014Y-28908176D01*
X46096851Y-28902294D01*
X46088222Y-28896819D01*
X46079127Y-28891749D01*
X46069567Y-28887085D01*
X46059541Y-28882826D01*
X46049050Y-28878974D01*
X46038093Y-28875527D01*
X46026671Y-28872486D01*
X46014784Y-28869850D01*
X46002431Y-28867620D01*
X45989613Y-28865795D01*
X45976331Y-28864376D01*
X45962583Y-28863363D01*
X45948371Y-28862755D01*
X45933694Y-28862552D01*
X45936120Y-28910325D01*
X45937869Y-28950436D01*
X45938926Y-28982880D01*
X45939281Y-29007650D01*
X45938046Y-29079187D01*
X45934335Y-29146634D01*
X45931551Y-29178823D01*
X45928147Y-29209989D01*
X45924123Y-29240131D01*
X45919477Y-29269250D01*
X45914211Y-29297344D01*
X45908322Y-29324413D01*
X45901811Y-29350458D01*
X45894678Y-29375477D01*
X45886921Y-29399471D01*
X45878540Y-29422438D01*
X45869536Y-29444380D01*
X45859906Y-29465295D01*
X45842053Y-29499581D01*
X45823019Y-29531647D01*
X45802805Y-29561493D01*
X45792255Y-29575584D01*
X45781409Y-29589120D01*
X45770267Y-29602103D01*
X45758829Y-29614531D01*
X45747095Y-29626405D01*
X45735065Y-29637726D01*
X45722739Y-29648492D01*
X45710116Y-29658705D01*
X45697196Y-29668365D01*
X45683980Y-29677472D01*
X45670467Y-29686025D01*
X45656656Y-29694026D01*
X45642549Y-29701473D01*
X45628144Y-29708369D01*
X45613442Y-29714711D01*
X45598442Y-29720502D01*
X45583144Y-29725740D01*
X45567549Y-29730426D01*
X45551655Y-29734560D01*
X45535463Y-29738143D01*
X45518973Y-29741174D01*
X45502185Y-29743653D01*
X45485098Y-29745581D01*
X45467712Y-29746958D01*
X45432044Y-29748060D01*
X45424551Y-29747977D01*
X45416274Y-29747886D01*
X45400707Y-29747362D01*
X45385344Y-29746490D01*
X45370186Y-29745268D01*
X45355232Y-29743698D01*
X45340484Y-29741780D01*
X45325943Y-29739512D01*
X45311608Y-29736896D01*
X45297481Y-29733931D01*
X45283562Y-29730618D01*
X45269852Y-29726956D01*
X45256352Y-29722945D01*
X45243062Y-29718586D01*
X45229983Y-29713879D01*
X45217115Y-29708823D01*
X45204460Y-29703419D01*
X45187095Y-29695285D01*
X45170232Y-29686574D01*
X45153870Y-29677285D01*
X45138010Y-29667415D01*
X45122651Y-29656964D01*
X45107794Y-29645930D01*
X45093438Y-29634310D01*
X45079583Y-29622104D01*
X45066229Y-29609309D01*
X45053376Y-29595925D01*
X45041025Y-29581949D01*
X45029174Y-29567380D01*
X45017825Y-29552216D01*
X45006976Y-29536456D01*
X44996628Y-29520098D01*
X44986782Y-29503140D01*
X44978007Y-29486625D01*
X44969804Y-29469872D01*
X44962175Y-29452880D01*
X44955119Y-29435653D01*
X44948637Y-29418191D01*
X44942731Y-29400496D01*
X44937401Y-29382570D01*
X44932648Y-29364413D01*
X44928472Y-29346027D01*
X44924874Y-29327414D01*
X44921855Y-29308575D01*
X44919416Y-29289511D01*
X44917557Y-29270224D01*
X44916280Y-29250716D01*
X44915584Y-29230987D01*
X44915471Y-29211040D01*
X44916391Y-29183115D01*
X44918435Y-29155835D01*
X44921604Y-29129199D01*
X44925897Y-29103208D01*
X44928425Y-29091375D01*
X45254625Y-29091375D01*
X45254796Y-29101550D01*
X45255309Y-29111500D01*
X45256163Y-29121228D01*
X45257357Y-29130734D01*
X45258891Y-29140019D01*
X45260765Y-29149083D01*
X45262977Y-29157928D01*
X45265527Y-29166555D01*
X45268415Y-29174963D01*
X45271639Y-29183155D01*
X45275200Y-29191131D01*
X45279097Y-29198892D01*
X45283328Y-29206439D01*
X45287894Y-29213773D01*
X45292794Y-29220895D01*
X45298027Y-29227804D01*
X45304077Y-29235072D01*
X45310368Y-29241874D01*
X45316902Y-29248209D01*
X45323681Y-29254078D01*
X45330705Y-29259479D01*
X45337976Y-29264412D01*
X45345495Y-29268877D01*
X45353264Y-29272874D01*
X45361284Y-29276402D01*
X45369555Y-29279460D01*
X45378080Y-29282050D01*
X45386860Y-29284169D01*
X45395895Y-29285818D01*
X45405188Y-29286996D01*
X45414740Y-29287703D01*
X45424551Y-29287939D01*
X45437599Y-29287525D01*
X45450240Y-29286281D01*
X45462473Y-29284209D01*
X45474297Y-29281308D01*
X45485711Y-29277579D01*
X45496714Y-29273021D01*
X45507305Y-29267635D01*
X45517483Y-29261420D01*
X45527248Y-29254377D01*
X45536597Y-29246506D01*
X45545532Y-29237807D01*
X45554049Y-29228280D01*
X45562149Y-29217925D01*
X45569831Y-29206742D01*
X45577094Y-29194732D01*
X45583936Y-29181894D01*
X45588996Y-29171303D01*
X45593724Y-29160450D01*
X45598120Y-29149334D01*
X45602185Y-29137955D01*
X45605920Y-29126314D01*
X45609326Y-29114411D01*
X45612404Y-29102246D01*
X45615154Y-29089819D01*
X45617578Y-29077130D01*
X45619675Y-29064179D01*
X45621448Y-29050967D01*
X45622896Y-29037492D01*
X45624021Y-29023756D01*
X45624824Y-29009759D01*
X45625305Y-28995500D01*
X45625465Y-28981009D01*
X45625329Y-28966452D01*
X45624917Y-28952064D01*
X45624221Y-28937847D01*
X45623230Y-28923803D01*
X45621938Y-28909933D01*
X45620335Y-28896238D01*
X45618412Y-28882720D01*
X45616162Y-28869379D01*
X45374322Y-28869379D01*
X45366940Y-28873818D01*
X45359793Y-28878419D01*
X45352882Y-28883182D01*
X45346208Y-28888106D01*
X45339769Y-28893193D01*
X45333565Y-28898442D01*
X45327598Y-28903852D01*
X45321865Y-28909423D01*
X45316369Y-28915157D01*
X45311107Y-28921051D01*
X45306080Y-28927107D01*
X45301289Y-28933324D01*
X45296732Y-28939702D01*
X45292410Y-28946242D01*
X45288323Y-28952942D01*
X45284470Y-28959803D01*
X45280852Y-28966824D01*
X45277467Y-28974007D01*
X45274317Y-28981349D01*
X45271402Y-28988853D01*
X45268720Y-28996517D01*
X45266271Y-29004341D01*
X45264057Y-29012325D01*
X45262076Y-29020469D01*
X45260329Y-29028773D01*
X45258815Y-29037237D01*
X45257534Y-29045861D01*
X45256487Y-29054645D01*
X45255672Y-29063588D01*
X45255090Y-29072691D01*
X45254625Y-29091375D01*
X44928425Y-29091375D01*
X44931313Y-29077861D01*
X44937852Y-29053158D01*
X44945514Y-29029098D01*
X44954297Y-29005681D01*
X44964203Y-28982907D01*
X44975230Y-28960776D01*
X44987378Y-28939288D01*
X45000647Y-28918441D01*
X45015036Y-28898236D01*
X45030544Y-28878673D01*
X45047172Y-28859751D01*
X45064918Y-28841470D01*
X44946491Y-28841470D01*
X44946491Y-28321183D01*
X44952979Y-28326974D01*
G37*
D10*
X42621949Y-46428571D02*
X42621949Y-45952381D01*
X42336234Y-46523809D02*
X43336234Y-46190476D01*
X43336234Y-46190476D02*
X42336234Y-45857143D01*
X42336234Y-44952381D02*
X42812425Y-45285714D01*
X42336234Y-45523809D02*
X43336234Y-45523809D01*
X43336234Y-45523809D02*
X43336234Y-45142857D01*
X43336234Y-45142857D02*
X43288615Y-45047619D01*
X43288615Y-45047619D02*
X43240996Y-45000000D01*
X43240996Y-45000000D02*
X43145758Y-44952381D01*
X43145758Y-44952381D02*
X43002901Y-44952381D01*
X43002901Y-44952381D02*
X42907663Y-45000000D01*
X42907663Y-45000000D02*
X42860044Y-45047619D01*
X42860044Y-45047619D02*
X42812425Y-45142857D01*
X42812425Y-45142857D02*
X42812425Y-45523809D01*
X42336234Y-44523809D02*
X43336234Y-44523809D01*
X43336234Y-44523809D02*
X42621949Y-44190476D01*
X42621949Y-44190476D02*
X43336234Y-43857143D01*
X43336234Y-43857143D02*
X42336234Y-43857143D01*
X42383854Y-43428571D02*
X42336234Y-43285714D01*
X42336234Y-43285714D02*
X42336234Y-43047619D01*
X42336234Y-43047619D02*
X42383854Y-42952381D01*
X42383854Y-42952381D02*
X42431473Y-42904762D01*
X42431473Y-42904762D02*
X42526711Y-42857143D01*
X42526711Y-42857143D02*
X42621949Y-42857143D01*
X42621949Y-42857143D02*
X42717187Y-42904762D01*
X42717187Y-42904762D02*
X42764806Y-42952381D01*
X42764806Y-42952381D02*
X42812425Y-43047619D01*
X42812425Y-43047619D02*
X42860044Y-43238095D01*
X42860044Y-43238095D02*
X42907663Y-43333333D01*
X42907663Y-43333333D02*
X42955282Y-43380952D01*
X42955282Y-43380952D02*
X43050520Y-43428571D01*
X43050520Y-43428571D02*
X43145758Y-43428571D01*
X43145758Y-43428571D02*
X43240996Y-43380952D01*
X43240996Y-43380952D02*
X43288615Y-43333333D01*
X43288615Y-43333333D02*
X43336234Y-43238095D01*
X43336234Y-43238095D02*
X43336234Y-43000000D01*
X43336234Y-43000000D02*
X43288615Y-42857143D01*
X42812425Y-42238095D02*
X42336234Y-42238095D01*
X43336234Y-42571428D02*
X42812425Y-42238095D01*
X42812425Y-42238095D02*
X43336234Y-41904762D01*
X42336234Y-41571428D02*
X43336234Y-41571428D01*
X43336234Y-41571428D02*
X42336234Y-41000000D01*
X42336234Y-41000000D02*
X43336234Y-41000000D01*
X42431473Y-39952381D02*
X42383854Y-40000000D01*
X42383854Y-40000000D02*
X42336234Y-40142857D01*
X42336234Y-40142857D02*
X42336234Y-40238095D01*
X42336234Y-40238095D02*
X42383854Y-40380952D01*
X42383854Y-40380952D02*
X42479092Y-40476190D01*
X42479092Y-40476190D02*
X42574330Y-40523809D01*
X42574330Y-40523809D02*
X42764806Y-40571428D01*
X42764806Y-40571428D02*
X42907663Y-40571428D01*
X42907663Y-40571428D02*
X43098139Y-40523809D01*
X43098139Y-40523809D02*
X43193377Y-40476190D01*
X43193377Y-40476190D02*
X43288615Y-40380952D01*
X43288615Y-40380952D02*
X43336234Y-40238095D01*
X43336234Y-40238095D02*
X43336234Y-40142857D01*
X43336234Y-40142857D02*
X43288615Y-40000000D01*
X43288615Y-40000000D02*
X43240996Y-39952381D01*
X42860044Y-38428571D02*
X42812425Y-38285714D01*
X42812425Y-38285714D02*
X42764806Y-38238095D01*
X42764806Y-38238095D02*
X42669568Y-38190476D01*
X42669568Y-38190476D02*
X42526711Y-38190476D01*
X42526711Y-38190476D02*
X42431473Y-38238095D01*
X42431473Y-38238095D02*
X42383854Y-38285714D01*
X42383854Y-38285714D02*
X42336234Y-38380952D01*
X42336234Y-38380952D02*
X42336234Y-38761904D01*
X42336234Y-38761904D02*
X43336234Y-38761904D01*
X43336234Y-38761904D02*
X43336234Y-38428571D01*
X43336234Y-38428571D02*
X43288615Y-38333333D01*
X43288615Y-38333333D02*
X43240996Y-38285714D01*
X43240996Y-38285714D02*
X43145758Y-38238095D01*
X43145758Y-38238095D02*
X43050520Y-38238095D01*
X43050520Y-38238095D02*
X42955282Y-38285714D01*
X42955282Y-38285714D02*
X42907663Y-38333333D01*
X42907663Y-38333333D02*
X42860044Y-38428571D01*
X42860044Y-38428571D02*
X42860044Y-38761904D01*
X43336234Y-37761904D02*
X42526711Y-37761904D01*
X42526711Y-37761904D02*
X42431473Y-37714285D01*
X42431473Y-37714285D02*
X42383854Y-37666666D01*
X42383854Y-37666666D02*
X42336234Y-37571428D01*
X42336234Y-37571428D02*
X42336234Y-37380952D01*
X42336234Y-37380952D02*
X42383854Y-37285714D01*
X42383854Y-37285714D02*
X42431473Y-37238095D01*
X42431473Y-37238095D02*
X42526711Y-37190476D01*
X42526711Y-37190476D02*
X43336234Y-37190476D01*
X42383854Y-36761904D02*
X42336234Y-36619047D01*
X42336234Y-36619047D02*
X42336234Y-36380952D01*
X42336234Y-36380952D02*
X42383854Y-36285714D01*
X42383854Y-36285714D02*
X42431473Y-36238095D01*
X42431473Y-36238095D02*
X42526711Y-36190476D01*
X42526711Y-36190476D02*
X42621949Y-36190476D01*
X42621949Y-36190476D02*
X42717187Y-36238095D01*
X42717187Y-36238095D02*
X42764806Y-36285714D01*
X42764806Y-36285714D02*
X42812425Y-36380952D01*
X42812425Y-36380952D02*
X42860044Y-36571428D01*
X42860044Y-36571428D02*
X42907663Y-36666666D01*
X42907663Y-36666666D02*
X42955282Y-36714285D01*
X42955282Y-36714285D02*
X43050520Y-36761904D01*
X43050520Y-36761904D02*
X43145758Y-36761904D01*
X43145758Y-36761904D02*
X43240996Y-36714285D01*
X43240996Y-36714285D02*
X43288615Y-36666666D01*
X43288615Y-36666666D02*
X43336234Y-36571428D01*
X43336234Y-36571428D02*
X43336234Y-36333333D01*
X43336234Y-36333333D02*
X43288615Y-36190476D01*
X42431473Y-34428571D02*
X42383854Y-34476190D01*
X42383854Y-34476190D02*
X42336234Y-34619047D01*
X42336234Y-34619047D02*
X42336234Y-34714285D01*
X42336234Y-34714285D02*
X42383854Y-34857142D01*
X42383854Y-34857142D02*
X42479092Y-34952380D01*
X42479092Y-34952380D02*
X42574330Y-34999999D01*
X42574330Y-34999999D02*
X42764806Y-35047618D01*
X42764806Y-35047618D02*
X42907663Y-35047618D01*
X42907663Y-35047618D02*
X43098139Y-34999999D01*
X43098139Y-34999999D02*
X43193377Y-34952380D01*
X43193377Y-34952380D02*
X43288615Y-34857142D01*
X43288615Y-34857142D02*
X43336234Y-34714285D01*
X43336234Y-34714285D02*
X43336234Y-34619047D01*
X43336234Y-34619047D02*
X43288615Y-34476190D01*
X43288615Y-34476190D02*
X43240996Y-34428571D01*
X43336234Y-33809523D02*
X43336234Y-33619047D01*
X43336234Y-33619047D02*
X43288615Y-33523809D01*
X43288615Y-33523809D02*
X43193377Y-33428571D01*
X43193377Y-33428571D02*
X43002901Y-33380952D01*
X43002901Y-33380952D02*
X42669568Y-33380952D01*
X42669568Y-33380952D02*
X42479092Y-33428571D01*
X42479092Y-33428571D02*
X42383854Y-33523809D01*
X42383854Y-33523809D02*
X42336234Y-33619047D01*
X42336234Y-33619047D02*
X42336234Y-33809523D01*
X42336234Y-33809523D02*
X42383854Y-33904761D01*
X42383854Y-33904761D02*
X42479092Y-33999999D01*
X42479092Y-33999999D02*
X42669568Y-34047618D01*
X42669568Y-34047618D02*
X43002901Y-34047618D01*
X43002901Y-34047618D02*
X43193377Y-33999999D01*
X43193377Y-33999999D02*
X43288615Y-33904761D01*
X43288615Y-33904761D02*
X43336234Y-33809523D01*
X42336234Y-32952380D02*
X43336234Y-32952380D01*
X43336234Y-32952380D02*
X42336234Y-32380952D01*
X42336234Y-32380952D02*
X43336234Y-32380952D01*
X42336234Y-31904761D02*
X43336234Y-31904761D01*
X43336234Y-31904761D02*
X42336234Y-31333333D01*
X42336234Y-31333333D02*
X43336234Y-31333333D01*
X42860044Y-30857142D02*
X42860044Y-30523809D01*
X42336234Y-30380952D02*
X42336234Y-30857142D01*
X42336234Y-30857142D02*
X43336234Y-30857142D01*
X43336234Y-30857142D02*
X43336234Y-30380952D01*
X42431473Y-29380952D02*
X42383854Y-29428571D01*
X42383854Y-29428571D02*
X42336234Y-29571428D01*
X42336234Y-29571428D02*
X42336234Y-29666666D01*
X42336234Y-29666666D02*
X42383854Y-29809523D01*
X42383854Y-29809523D02*
X42479092Y-29904761D01*
X42479092Y-29904761D02*
X42574330Y-29952380D01*
X42574330Y-29952380D02*
X42764806Y-29999999D01*
X42764806Y-29999999D02*
X42907663Y-29999999D01*
X42907663Y-29999999D02*
X43098139Y-29952380D01*
X43098139Y-29952380D02*
X43193377Y-29904761D01*
X43193377Y-29904761D02*
X43288615Y-29809523D01*
X43288615Y-29809523D02*
X43336234Y-29666666D01*
X43336234Y-29666666D02*
X43336234Y-29571428D01*
X43336234Y-29571428D02*
X43288615Y-29428571D01*
X43288615Y-29428571D02*
X43240996Y-29380952D01*
X43336234Y-29095237D02*
X43336234Y-28523809D01*
X42336234Y-28809523D02*
X43336234Y-28809523D01*
X43336234Y-27999999D02*
X43336234Y-27809523D01*
X43336234Y-27809523D02*
X43288615Y-27714285D01*
X43288615Y-27714285D02*
X43193377Y-27619047D01*
X43193377Y-27619047D02*
X43002901Y-27571428D01*
X43002901Y-27571428D02*
X42669568Y-27571428D01*
X42669568Y-27571428D02*
X42479092Y-27619047D01*
X42479092Y-27619047D02*
X42383854Y-27714285D01*
X42383854Y-27714285D02*
X42336234Y-27809523D01*
X42336234Y-27809523D02*
X42336234Y-27999999D01*
X42336234Y-27999999D02*
X42383854Y-28095237D01*
X42383854Y-28095237D02*
X42479092Y-28190475D01*
X42479092Y-28190475D02*
X42669568Y-28238094D01*
X42669568Y-28238094D02*
X43002901Y-28238094D01*
X43002901Y-28238094D02*
X43193377Y-28190475D01*
X43193377Y-28190475D02*
X43288615Y-28095237D01*
X43288615Y-28095237D02*
X43336234Y-27999999D01*
X42336234Y-26571428D02*
X42812425Y-26904761D01*
X42336234Y-27142856D02*
X43336234Y-27142856D01*
X43336234Y-27142856D02*
X43336234Y-26761904D01*
X43336234Y-26761904D02*
X43288615Y-26666666D01*
X43288615Y-26666666D02*
X43240996Y-26619047D01*
X43240996Y-26619047D02*
X43145758Y-26571428D01*
X43145758Y-26571428D02*
X43002901Y-26571428D01*
X43002901Y-26571428D02*
X42907663Y-26619047D01*
X42907663Y-26619047D02*
X42860044Y-26666666D01*
X42860044Y-26666666D02*
X42812425Y-26761904D01*
X42812425Y-26761904D02*
X42812425Y-27142856D01*
X52545180Y-46714285D02*
X52545180Y-46142857D01*
X51545180Y-46428571D02*
X52545180Y-46428571D01*
X51545180Y-45809523D02*
X52545180Y-45809523D01*
X52068990Y-45809523D02*
X52068990Y-45238095D01*
X51545180Y-45238095D02*
X52545180Y-45238095D01*
X51545180Y-44761904D02*
X52545180Y-44761904D01*
X51592800Y-44333333D02*
X51545180Y-44190476D01*
X51545180Y-44190476D02*
X51545180Y-43952381D01*
X51545180Y-43952381D02*
X51592800Y-43857143D01*
X51592800Y-43857143D02*
X51640419Y-43809524D01*
X51640419Y-43809524D02*
X51735657Y-43761905D01*
X51735657Y-43761905D02*
X51830895Y-43761905D01*
X51830895Y-43761905D02*
X51926133Y-43809524D01*
X51926133Y-43809524D02*
X51973752Y-43857143D01*
X51973752Y-43857143D02*
X52021371Y-43952381D01*
X52021371Y-43952381D02*
X52068990Y-44142857D01*
X52068990Y-44142857D02*
X52116609Y-44238095D01*
X52116609Y-44238095D02*
X52164228Y-44285714D01*
X52164228Y-44285714D02*
X52259466Y-44333333D01*
X52259466Y-44333333D02*
X52354704Y-44333333D01*
X52354704Y-44333333D02*
X52449942Y-44285714D01*
X52449942Y-44285714D02*
X52497561Y-44238095D01*
X52497561Y-44238095D02*
X52545180Y-44142857D01*
X52545180Y-44142857D02*
X52545180Y-43904762D01*
X52545180Y-43904762D02*
X52497561Y-43761905D01*
X51592800Y-42619047D02*
X51545180Y-42476190D01*
X51545180Y-42476190D02*
X51545180Y-42238095D01*
X51545180Y-42238095D02*
X51592800Y-42142857D01*
X51592800Y-42142857D02*
X51640419Y-42095238D01*
X51640419Y-42095238D02*
X51735657Y-42047619D01*
X51735657Y-42047619D02*
X51830895Y-42047619D01*
X51830895Y-42047619D02*
X51926133Y-42095238D01*
X51926133Y-42095238D02*
X51973752Y-42142857D01*
X51973752Y-42142857D02*
X52021371Y-42238095D01*
X52021371Y-42238095D02*
X52068990Y-42428571D01*
X52068990Y-42428571D02*
X52116609Y-42523809D01*
X52116609Y-42523809D02*
X52164228Y-42571428D01*
X52164228Y-42571428D02*
X52259466Y-42619047D01*
X52259466Y-42619047D02*
X52354704Y-42619047D01*
X52354704Y-42619047D02*
X52449942Y-42571428D01*
X52449942Y-42571428D02*
X52497561Y-42523809D01*
X52497561Y-42523809D02*
X52545180Y-42428571D01*
X52545180Y-42428571D02*
X52545180Y-42190476D01*
X52545180Y-42190476D02*
X52497561Y-42047619D01*
X51545180Y-41619047D02*
X52545180Y-41619047D01*
X51545180Y-41142857D02*
X52545180Y-41142857D01*
X52545180Y-41142857D02*
X52545180Y-40904762D01*
X52545180Y-40904762D02*
X52497561Y-40761905D01*
X52497561Y-40761905D02*
X52402323Y-40666667D01*
X52402323Y-40666667D02*
X52307085Y-40619048D01*
X52307085Y-40619048D02*
X52116609Y-40571429D01*
X52116609Y-40571429D02*
X51973752Y-40571429D01*
X51973752Y-40571429D02*
X51783276Y-40619048D01*
X51783276Y-40619048D02*
X51688038Y-40666667D01*
X51688038Y-40666667D02*
X51592800Y-40761905D01*
X51592800Y-40761905D02*
X51545180Y-40904762D01*
X51545180Y-40904762D02*
X51545180Y-41142857D01*
X52068990Y-40142857D02*
X52068990Y-39809524D01*
X51545180Y-39666667D02*
X51545180Y-40142857D01*
X51545180Y-40142857D02*
X52545180Y-40142857D01*
X52545180Y-40142857D02*
X52545180Y-39666667D01*
X52545180Y-38619047D02*
X52545180Y-38047619D01*
X51545180Y-38333333D02*
X52545180Y-38333333D01*
X52545180Y-37523809D02*
X52545180Y-37333333D01*
X52545180Y-37333333D02*
X52497561Y-37238095D01*
X52497561Y-37238095D02*
X52402323Y-37142857D01*
X52402323Y-37142857D02*
X52211847Y-37095238D01*
X52211847Y-37095238D02*
X51878514Y-37095238D01*
X51878514Y-37095238D02*
X51688038Y-37142857D01*
X51688038Y-37142857D02*
X51592800Y-37238095D01*
X51592800Y-37238095D02*
X51545180Y-37333333D01*
X51545180Y-37333333D02*
X51545180Y-37523809D01*
X51545180Y-37523809D02*
X51592800Y-37619047D01*
X51592800Y-37619047D02*
X51688038Y-37714285D01*
X51688038Y-37714285D02*
X51878514Y-37761904D01*
X51878514Y-37761904D02*
X52211847Y-37761904D01*
X52211847Y-37761904D02*
X52402323Y-37714285D01*
X52402323Y-37714285D02*
X52497561Y-37619047D01*
X52497561Y-37619047D02*
X52545180Y-37523809D01*
X52545180Y-36761904D02*
X51545180Y-36523809D01*
X51545180Y-36523809D02*
X52259466Y-36333333D01*
X52259466Y-36333333D02*
X51545180Y-36142857D01*
X51545180Y-36142857D02*
X52545180Y-35904762D01*
X51830895Y-35571428D02*
X51830895Y-35095238D01*
X51545180Y-35666666D02*
X52545180Y-35333333D01*
X52545180Y-35333333D02*
X51545180Y-35000000D01*
X51545180Y-34095238D02*
X52021371Y-34428571D01*
X51545180Y-34666666D02*
X52545180Y-34666666D01*
X52545180Y-34666666D02*
X52545180Y-34285714D01*
X52545180Y-34285714D02*
X52497561Y-34190476D01*
X52497561Y-34190476D02*
X52449942Y-34142857D01*
X52449942Y-34142857D02*
X52354704Y-34095238D01*
X52354704Y-34095238D02*
X52211847Y-34095238D01*
X52211847Y-34095238D02*
X52116609Y-34142857D01*
X52116609Y-34142857D02*
X52068990Y-34190476D01*
X52068990Y-34190476D02*
X52021371Y-34285714D01*
X52021371Y-34285714D02*
X52021371Y-34666666D01*
X51545180Y-33666666D02*
X52545180Y-33666666D01*
X52545180Y-33666666D02*
X52545180Y-33428571D01*
X52545180Y-33428571D02*
X52497561Y-33285714D01*
X52497561Y-33285714D02*
X52402323Y-33190476D01*
X52402323Y-33190476D02*
X52307085Y-33142857D01*
X52307085Y-33142857D02*
X52116609Y-33095238D01*
X52116609Y-33095238D02*
X51973752Y-33095238D01*
X51973752Y-33095238D02*
X51783276Y-33142857D01*
X51783276Y-33142857D02*
X51688038Y-33190476D01*
X51688038Y-33190476D02*
X51592800Y-33285714D01*
X51592800Y-33285714D02*
X51545180Y-33428571D01*
X51545180Y-33428571D02*
X51545180Y-33666666D01*
X51592800Y-32714285D02*
X51545180Y-32571428D01*
X51545180Y-32571428D02*
X51545180Y-32333333D01*
X51545180Y-32333333D02*
X51592800Y-32238095D01*
X51592800Y-32238095D02*
X51640419Y-32190476D01*
X51640419Y-32190476D02*
X51735657Y-32142857D01*
X51735657Y-32142857D02*
X51830895Y-32142857D01*
X51830895Y-32142857D02*
X51926133Y-32190476D01*
X51926133Y-32190476D02*
X51973752Y-32238095D01*
X51973752Y-32238095D02*
X52021371Y-32333333D01*
X52021371Y-32333333D02*
X52068990Y-32523809D01*
X52068990Y-32523809D02*
X52116609Y-32619047D01*
X52116609Y-32619047D02*
X52164228Y-32666666D01*
X52164228Y-32666666D02*
X52259466Y-32714285D01*
X52259466Y-32714285D02*
X52354704Y-32714285D01*
X52354704Y-32714285D02*
X52449942Y-32666666D01*
X52449942Y-32666666D02*
X52497561Y-32619047D01*
X52497561Y-32619047D02*
X52545180Y-32523809D01*
X52545180Y-32523809D02*
X52545180Y-32285714D01*
X52545180Y-32285714D02*
X52497561Y-32142857D01*
X51545180Y-30952380D02*
X52545180Y-30952380D01*
X52545180Y-30952380D02*
X51830895Y-30619047D01*
X51830895Y-30619047D02*
X52545180Y-30285714D01*
X52545180Y-30285714D02*
X51545180Y-30285714D01*
X52545180Y-29619047D02*
X52545180Y-29428571D01*
X52545180Y-29428571D02*
X52497561Y-29333333D01*
X52497561Y-29333333D02*
X52402323Y-29238095D01*
X52402323Y-29238095D02*
X52211847Y-29190476D01*
X52211847Y-29190476D02*
X51878514Y-29190476D01*
X51878514Y-29190476D02*
X51688038Y-29238095D01*
X51688038Y-29238095D02*
X51592800Y-29333333D01*
X51592800Y-29333333D02*
X51545180Y-29428571D01*
X51545180Y-29428571D02*
X51545180Y-29619047D01*
X51545180Y-29619047D02*
X51592800Y-29714285D01*
X51592800Y-29714285D02*
X51688038Y-29809523D01*
X51688038Y-29809523D02*
X51878514Y-29857142D01*
X51878514Y-29857142D02*
X52211847Y-29857142D01*
X52211847Y-29857142D02*
X52402323Y-29809523D01*
X52402323Y-29809523D02*
X52497561Y-29714285D01*
X52497561Y-29714285D02*
X52545180Y-29619047D01*
X52545180Y-28904761D02*
X52545180Y-28333333D01*
X51545180Y-28619047D02*
X52545180Y-28619047D01*
X52545180Y-27809523D02*
X52545180Y-27619047D01*
X52545180Y-27619047D02*
X52497561Y-27523809D01*
X52497561Y-27523809D02*
X52402323Y-27428571D01*
X52402323Y-27428571D02*
X52211847Y-27380952D01*
X52211847Y-27380952D02*
X51878514Y-27380952D01*
X51878514Y-27380952D02*
X51688038Y-27428571D01*
X51688038Y-27428571D02*
X51592800Y-27523809D01*
X51592800Y-27523809D02*
X51545180Y-27619047D01*
X51545180Y-27619047D02*
X51545180Y-27809523D01*
X51545180Y-27809523D02*
X51592800Y-27904761D01*
X51592800Y-27904761D02*
X51688038Y-27999999D01*
X51688038Y-27999999D02*
X51878514Y-28047618D01*
X51878514Y-28047618D02*
X52211847Y-28047618D01*
X52211847Y-28047618D02*
X52402323Y-27999999D01*
X52402323Y-27999999D02*
X52497561Y-27904761D01*
X52497561Y-27904761D02*
X52545180Y-27809523D01*
X51545180Y-26380952D02*
X52021371Y-26714285D01*
X51545180Y-26952380D02*
X52545180Y-26952380D01*
X52545180Y-26952380D02*
X52545180Y-26571428D01*
X52545180Y-26571428D02*
X52497561Y-26476190D01*
X52497561Y-26476190D02*
X52449942Y-26428571D01*
X52449942Y-26428571D02*
X52354704Y-26380952D01*
X52354704Y-26380952D02*
X52211847Y-26380952D01*
X52211847Y-26380952D02*
X52116609Y-26428571D01*
X52116609Y-26428571D02*
X52068990Y-26476190D01*
X52068990Y-26476190D02*
X52021371Y-26571428D01*
X52021371Y-26571428D02*
X52021371Y-26952380D01*
X44727288Y-46299999D02*
X45727288Y-46299999D01*
X45727288Y-46299999D02*
X45727288Y-46061904D01*
X45727288Y-46061904D02*
X45679669Y-45919047D01*
X45679669Y-45919047D02*
X45584431Y-45823809D01*
X45584431Y-45823809D02*
X45489193Y-45776190D01*
X45489193Y-45776190D02*
X45298717Y-45728571D01*
X45298717Y-45728571D02*
X45155860Y-45728571D01*
X45155860Y-45728571D02*
X44965384Y-45776190D01*
X44965384Y-45776190D02*
X44870146Y-45823809D01*
X44870146Y-45823809D02*
X44774908Y-45919047D01*
X44774908Y-45919047D02*
X44727288Y-46061904D01*
X44727288Y-46061904D02*
X44727288Y-46299999D01*
X45251098Y-45299999D02*
X45251098Y-44966666D01*
X44727288Y-44823809D02*
X44727288Y-45299999D01*
X44727288Y-45299999D02*
X45727288Y-45299999D01*
X45727288Y-45299999D02*
X45727288Y-44823809D01*
X44774908Y-44442856D02*
X44727288Y-44299999D01*
X44727288Y-44299999D02*
X44727288Y-44061904D01*
X44727288Y-44061904D02*
X44774908Y-43966666D01*
X44774908Y-43966666D02*
X44822527Y-43919047D01*
X44822527Y-43919047D02*
X44917765Y-43871428D01*
X44917765Y-43871428D02*
X45013003Y-43871428D01*
X45013003Y-43871428D02*
X45108241Y-43919047D01*
X45108241Y-43919047D02*
X45155860Y-43966666D01*
X45155860Y-43966666D02*
X45203479Y-44061904D01*
X45203479Y-44061904D02*
X45251098Y-44252380D01*
X45251098Y-44252380D02*
X45298717Y-44347618D01*
X45298717Y-44347618D02*
X45346336Y-44395237D01*
X45346336Y-44395237D02*
X45441574Y-44442856D01*
X45441574Y-44442856D02*
X45536812Y-44442856D01*
X45536812Y-44442856D02*
X45632050Y-44395237D01*
X45632050Y-44395237D02*
X45679669Y-44347618D01*
X45679669Y-44347618D02*
X45727288Y-44252380D01*
X45727288Y-44252380D02*
X45727288Y-44014285D01*
X45727288Y-44014285D02*
X45679669Y-43871428D01*
X44727288Y-43442856D02*
X45727288Y-43442856D01*
X45679669Y-42442857D02*
X45727288Y-42538095D01*
X45727288Y-42538095D02*
X45727288Y-42680952D01*
X45727288Y-42680952D02*
X45679669Y-42823809D01*
X45679669Y-42823809D02*
X45584431Y-42919047D01*
X45584431Y-42919047D02*
X45489193Y-42966666D01*
X45489193Y-42966666D02*
X45298717Y-43014285D01*
X45298717Y-43014285D02*
X45155860Y-43014285D01*
X45155860Y-43014285D02*
X44965384Y-42966666D01*
X44965384Y-42966666D02*
X44870146Y-42919047D01*
X44870146Y-42919047D02*
X44774908Y-42823809D01*
X44774908Y-42823809D02*
X44727288Y-42680952D01*
X44727288Y-42680952D02*
X44727288Y-42585714D01*
X44727288Y-42585714D02*
X44774908Y-42442857D01*
X44774908Y-42442857D02*
X44822527Y-42395238D01*
X44822527Y-42395238D02*
X45155860Y-42395238D01*
X45155860Y-42395238D02*
X45155860Y-42585714D01*
X44727288Y-41966666D02*
X45727288Y-41966666D01*
X45727288Y-41966666D02*
X44727288Y-41395238D01*
X44727288Y-41395238D02*
X45727288Y-41395238D01*
X45251098Y-40919047D02*
X45251098Y-40585714D01*
X44727288Y-40442857D02*
X44727288Y-40919047D01*
X44727288Y-40919047D02*
X45727288Y-40919047D01*
X45727288Y-40919047D02*
X45727288Y-40442857D01*
X44727288Y-40014285D02*
X45727288Y-40014285D01*
X45727288Y-40014285D02*
X45727288Y-39776190D01*
X45727288Y-39776190D02*
X45679669Y-39633333D01*
X45679669Y-39633333D02*
X45584431Y-39538095D01*
X45584431Y-39538095D02*
X45489193Y-39490476D01*
X45489193Y-39490476D02*
X45298717Y-39442857D01*
X45298717Y-39442857D02*
X45155860Y-39442857D01*
X45155860Y-39442857D02*
X44965384Y-39490476D01*
X44965384Y-39490476D02*
X44870146Y-39538095D01*
X44870146Y-39538095D02*
X44774908Y-39633333D01*
X44774908Y-39633333D02*
X44727288Y-39776190D01*
X44727288Y-39776190D02*
X44727288Y-40014285D01*
X45727288Y-38347618D02*
X44727288Y-38109523D01*
X44727288Y-38109523D02*
X45441574Y-37919047D01*
X45441574Y-37919047D02*
X44727288Y-37728571D01*
X44727288Y-37728571D02*
X45727288Y-37490476D01*
X44727288Y-37109523D02*
X45727288Y-37109523D01*
X45727288Y-36776190D02*
X45727288Y-36204762D01*
X44727288Y-36490476D02*
X45727288Y-36490476D01*
X44727288Y-35871428D02*
X45727288Y-35871428D01*
X45251098Y-35871428D02*
X45251098Y-35300000D01*
X44727288Y-35300000D02*
X45727288Y-35300000D01*
D11*
%TO.C,G\u002A\u002A\u002A*%
G36*
X60052529Y-42298657D02*
G01*
X60052529Y-42584394D01*
X59766790Y-42584394D01*
X59481043Y-42584394D01*
X59481043Y-42298657D01*
X59481043Y-42012918D01*
X59766790Y-42012918D01*
X60052529Y-42012918D01*
X60052529Y-42298657D01*
G37*
G36*
X60654899Y-37410161D02*
G01*
X60654899Y-37533724D01*
X60190246Y-37533724D01*
X60147396Y-37533783D01*
X60034164Y-37534498D01*
X59933582Y-37535968D01*
X59849306Y-37538073D01*
X59784976Y-37540716D01*
X59744232Y-37543783D01*
X59730740Y-37547167D01*
X59732014Y-37548996D01*
X59751374Y-37568064D01*
X59792853Y-37605591D01*
X59855219Y-37660524D01*
X59937218Y-37731771D01*
X60037628Y-37818279D01*
X60155198Y-37918957D01*
X60288695Y-38032722D01*
X60436874Y-38158533D01*
X60474886Y-38191727D01*
X60527250Y-38240711D01*
X60568795Y-38283443D01*
X60592891Y-38313353D01*
X60597363Y-38321120D01*
X60621252Y-38384426D01*
X60639289Y-38472547D01*
X60650727Y-38580607D01*
X60654785Y-38703721D01*
X60654899Y-38846583D01*
X60037085Y-38846583D01*
X59419264Y-38846583D01*
X59419264Y-38723030D01*
X59419264Y-38599457D01*
X59885015Y-38599457D01*
X60350776Y-38599457D01*
X60321354Y-38566861D01*
X60314342Y-38559920D01*
X60284529Y-38532854D01*
X60235802Y-38489924D01*
X60171247Y-38433833D01*
X60093953Y-38367257D01*
X60007012Y-38292855D01*
X59913514Y-38213332D01*
X59864920Y-38172047D01*
X59774000Y-38094472D01*
X59691013Y-38023198D01*
X59619090Y-37960973D01*
X59561371Y-37910500D01*
X59520985Y-37874506D01*
X59501081Y-37855711D01*
X59482958Y-37834661D01*
X59456515Y-37793593D01*
X59438240Y-37744935D01*
X59426817Y-37682920D01*
X59420925Y-37601747D01*
X59419264Y-37495612D01*
X59419264Y-37286591D01*
X60037085Y-37286591D01*
X60654899Y-37286591D01*
X60654899Y-37410161D01*
G37*
G36*
X59592195Y-39531990D02*
G01*
X59593189Y-39625365D01*
X59594707Y-39739776D01*
X59596516Y-39829347D01*
X59598844Y-39897662D01*
X59601944Y-39948356D01*
X59606054Y-39985010D01*
X59611409Y-40011236D01*
X59618265Y-40030636D01*
X59626857Y-40046818D01*
X59654190Y-40081784D01*
X59702169Y-40113405D01*
X59768834Y-40130895D01*
X59859453Y-40136286D01*
X59967571Y-40136286D01*
X59971676Y-39700093D01*
X59975778Y-39263881D01*
X60052254Y-39225145D01*
X60084006Y-39209410D01*
X60119722Y-39192820D01*
X60136961Y-39186387D01*
X60137963Y-39189936D01*
X60139908Y-39218394D01*
X60141642Y-39272239D01*
X60143106Y-39347772D01*
X60144225Y-39441287D01*
X60144948Y-39549083D01*
X60145202Y-39667438D01*
X60145202Y-40148476D01*
X60247720Y-40138899D01*
X60295249Y-40133695D01*
X60345839Y-40124153D01*
X60385998Y-40108515D01*
X60416995Y-40083696D01*
X60440111Y-40046579D01*
X60456627Y-39994076D01*
X60467791Y-39923080D01*
X60474889Y-39830496D01*
X60479194Y-39713222D01*
X60481971Y-39568150D01*
X60488057Y-39169914D01*
X60563238Y-39131809D01*
X60593748Y-39116693D01*
X60629408Y-39100150D01*
X60646659Y-39093721D01*
X60647685Y-39097434D01*
X60649586Y-39126187D01*
X60651258Y-39180299D01*
X60652636Y-39256084D01*
X60653646Y-39349826D01*
X60654244Y-39457823D01*
X60654366Y-39576382D01*
X60653620Y-39740258D01*
X60651480Y-39880048D01*
X60647584Y-39995834D01*
X60641531Y-40091058D01*
X60632947Y-40169208D01*
X60621459Y-40233708D01*
X60606675Y-40288047D01*
X60588208Y-40335685D01*
X60565682Y-40380076D01*
X60563190Y-40384461D01*
X60498349Y-40468796D01*
X60416024Y-40527783D01*
X60316849Y-40560923D01*
X60306892Y-40562639D01*
X60242798Y-40569467D01*
X60159381Y-40573874D01*
X60065013Y-40575858D01*
X59968025Y-40575438D01*
X59876782Y-40572616D01*
X59799636Y-40567436D01*
X59744937Y-40559878D01*
X59732162Y-40556931D01*
X59633381Y-40517615D01*
X59552302Y-40453468D01*
X59490161Y-40365774D01*
X59448175Y-40255795D01*
X59447913Y-40254770D01*
X59440193Y-40220939D01*
X59434050Y-40183013D01*
X59429293Y-40137124D01*
X59425753Y-40079479D01*
X59423248Y-40006259D01*
X59421592Y-39913602D01*
X59420624Y-39797729D01*
X59420150Y-39654772D01*
X59419264Y-39157821D01*
X59503385Y-39112261D01*
X59587501Y-39066685D01*
X59592195Y-39531990D01*
G37*
G36*
X59788371Y-33791311D02*
G01*
X59862578Y-33826114D01*
X59927093Y-33886557D01*
X59953850Y-33923133D01*
X59984271Y-33972634D01*
X60014661Y-34032251D01*
X60046720Y-34105898D01*
X60082128Y-34197495D01*
X60122564Y-34310977D01*
X60169737Y-34450261D01*
X60178322Y-34475953D01*
X60219342Y-34595581D01*
X60253737Y-34688886D01*
X60282953Y-34758771D01*
X60308459Y-34808107D01*
X60331703Y-34839778D01*
X60354118Y-34856665D01*
X60377183Y-34861646D01*
X60400964Y-34854385D01*
X60434668Y-34823883D01*
X60461925Y-34776691D01*
X60465110Y-34758263D01*
X60469099Y-34711886D01*
X60473157Y-34642986D01*
X60477085Y-34556044D01*
X60480628Y-34455564D01*
X60483575Y-34346039D01*
X60492720Y-33946272D01*
X60573803Y-33900488D01*
X60654899Y-33854722D01*
X60654591Y-34354315D01*
X60654426Y-34437955D01*
X60653135Y-34601148D01*
X60650300Y-34737989D01*
X60645578Y-34851562D01*
X60638612Y-34944968D01*
X60629058Y-35021308D01*
X60616568Y-35083689D01*
X60600792Y-35135215D01*
X60581406Y-35178965D01*
X60558030Y-35218062D01*
X60531360Y-35252066D01*
X60466110Y-35305559D01*
X60391726Y-35335824D01*
X60314567Y-35340842D01*
X60240965Y-35318614D01*
X60200783Y-35293612D01*
X60158828Y-35256423D01*
X60118929Y-35206871D01*
X60079540Y-35142054D01*
X60039075Y-35058974D01*
X59995964Y-34954724D01*
X59948652Y-34826357D01*
X59895558Y-34670917D01*
X59881425Y-34628569D01*
X59850040Y-34535476D01*
X59821861Y-34453194D01*
X59798503Y-34386374D01*
X59781559Y-34339634D01*
X59772660Y-34317610D01*
X59750593Y-34290577D01*
X59708827Y-34267879D01*
X59665791Y-34267186D01*
X59658231Y-34269803D01*
X59641301Y-34278647D01*
X59627720Y-34293030D01*
X59617030Y-34316149D01*
X59608817Y-34351149D01*
X59602618Y-34401200D01*
X59597990Y-34469480D01*
X59594501Y-34559148D01*
X59591708Y-34673366D01*
X59589163Y-34815311D01*
X59581436Y-35286409D01*
X59500339Y-35329861D01*
X59419264Y-35373313D01*
X59419491Y-34773818D01*
X59419585Y-34683675D01*
X59420263Y-34527176D01*
X59421860Y-34396738D01*
X59424677Y-34289183D01*
X59429044Y-34201299D01*
X59435277Y-34129888D01*
X59443696Y-34071757D01*
X59454611Y-34023717D01*
X59468342Y-33982543D01*
X59485223Y-33945066D01*
X59505552Y-33908082D01*
X59508790Y-33902689D01*
X59564689Y-33837840D01*
X59633718Y-33797465D01*
X59710178Y-33781861D01*
X59788371Y-33791311D01*
G37*
G36*
X59057262Y-40173549D02*
G01*
X59085331Y-40212931D01*
X59125445Y-40279347D01*
X59130431Y-40287925D01*
X59200507Y-40399195D01*
X59280936Y-40512801D01*
X59369156Y-40626214D01*
X59462624Y-40736931D01*
X59558762Y-40842466D01*
X59655026Y-40940292D01*
X59748853Y-41027901D01*
X59837668Y-41102805D01*
X59918921Y-41162492D01*
X59990056Y-41204444D01*
X60048509Y-41226169D01*
X60091721Y-41225154D01*
X60099617Y-41220067D01*
X60125305Y-41191365D01*
X60157647Y-41144320D01*
X60191896Y-41085515D01*
X60265208Y-40964193D01*
X60343890Y-40866538D01*
X60425672Y-40798226D01*
X60511795Y-40758522D01*
X60603474Y-40746624D01*
X60701920Y-40761763D01*
X60756370Y-40787047D01*
X60818076Y-40843348D01*
X60872550Y-40924381D01*
X60918861Y-41026996D01*
X60956094Y-41148071D01*
X60983304Y-41284462D01*
X60999586Y-41433029D01*
X61003988Y-41590646D01*
X60995594Y-41754180D01*
X60980717Y-41888763D01*
X60939843Y-42124831D01*
X60881523Y-42340217D01*
X60804826Y-42538679D01*
X60786067Y-42577350D01*
X60762688Y-42618377D01*
X60745339Y-42640801D01*
X60742442Y-42642929D01*
X60714918Y-42656538D01*
X60680786Y-42667570D01*
X60651736Y-42672852D01*
X60639456Y-42669252D01*
X60639779Y-42667691D01*
X60648842Y-42645894D01*
X60667853Y-42605464D01*
X60693409Y-42553710D01*
X60699792Y-42540828D01*
X60755086Y-42408505D01*
X60798289Y-42265998D01*
X60829198Y-42118012D01*
X60847612Y-41969325D01*
X60853318Y-41824631D01*
X60846099Y-41688680D01*
X60825753Y-41566194D01*
X60792088Y-41461913D01*
X60744871Y-41380570D01*
X60739558Y-41374091D01*
X60678219Y-41322563D01*
X60605107Y-41293219D01*
X60528347Y-41288075D01*
X60456042Y-41309143D01*
X60424953Y-41329223D01*
X60365202Y-41385696D01*
X60301529Y-41466082D01*
X60237014Y-41566756D01*
X60228283Y-41581674D01*
X60183722Y-41654469D01*
X60148074Y-41702723D01*
X60116936Y-41729062D01*
X60085937Y-41736043D01*
X60050708Y-41726237D01*
X60006862Y-41702243D01*
X59971452Y-41679148D01*
X59865176Y-41594062D01*
X59754639Y-41484404D01*
X59642533Y-41354142D01*
X59531566Y-41207195D01*
X59424434Y-41047520D01*
X59323838Y-40879034D01*
X59232456Y-40705712D01*
X59153017Y-40531472D01*
X59088175Y-40360251D01*
X59069779Y-40304437D01*
X59051011Y-40244733D01*
X59038196Y-40200557D01*
X59033388Y-40178767D01*
X59033583Y-40171845D01*
X59040319Y-40160185D01*
X59057262Y-40173549D01*
G37*
G36*
X59580740Y-35512096D02*
G01*
X59582790Y-35536486D01*
X59584924Y-35586685D01*
X59587028Y-35658911D01*
X59589003Y-35749382D01*
X59590751Y-35854296D01*
X59592176Y-35969868D01*
X59592281Y-35980342D01*
X59593847Y-36112329D01*
X59595645Y-36217249D01*
X59597890Y-36298670D01*
X59600806Y-36360156D01*
X59604609Y-36405279D01*
X59609527Y-36437610D01*
X59615782Y-36460718D01*
X59623581Y-36478174D01*
X59645576Y-36507669D01*
X59702762Y-36546437D01*
X59780833Y-36568786D01*
X59875534Y-36573108D01*
X59967571Y-36568378D01*
X59971691Y-36144911D01*
X59972664Y-36061443D01*
X59975043Y-35934173D01*
X59978282Y-35835708D01*
X59982447Y-35764706D01*
X59987602Y-35719824D01*
X59993824Y-35699721D01*
X60004063Y-35690393D01*
X60036048Y-35668518D01*
X60076343Y-35644986D01*
X60113697Y-35626168D01*
X60136858Y-35618483D01*
X60137869Y-35622027D01*
X60139842Y-35650459D01*
X60141596Y-35704283D01*
X60143075Y-35779796D01*
X60144215Y-35873290D01*
X60144942Y-35981060D01*
X60145202Y-36099411D01*
X60145202Y-36580334D01*
X60245583Y-36572275D01*
X60294187Y-36566013D01*
X60349019Y-36553303D01*
X60385887Y-36538068D01*
X60400726Y-36527658D01*
X60423038Y-36507111D01*
X60440592Y-36480948D01*
X60454003Y-36445561D01*
X60463948Y-36397327D01*
X60471057Y-36332645D01*
X60475992Y-36247920D01*
X60479402Y-36139509D01*
X60481930Y-36003830D01*
X60487965Y-35609182D01*
X60562126Y-35567492D01*
X60592631Y-35550793D01*
X60628020Y-35532796D01*
X60645594Y-35525809D01*
X60648309Y-35532769D01*
X60651504Y-35566133D01*
X60653781Y-35623246D01*
X60655206Y-35699870D01*
X60655828Y-35791759D01*
X60655688Y-35894690D01*
X60654837Y-36004425D01*
X60653324Y-36116722D01*
X60651209Y-36227336D01*
X60648519Y-36332034D01*
X60645323Y-36426593D01*
X60641657Y-36506767D01*
X60637568Y-36568307D01*
X60633124Y-36606998D01*
X60609771Y-36707887D01*
X60568527Y-36811692D01*
X60512462Y-36891239D01*
X60439747Y-36948991D01*
X60348537Y-36987415D01*
X60340505Y-36989672D01*
X60299885Y-36998307D01*
X60250331Y-37003954D01*
X60186365Y-37006895D01*
X60102507Y-37007410D01*
X59993292Y-37005779D01*
X59957624Y-37004986D01*
X59865825Y-37002421D01*
X59797871Y-36999165D01*
X59748398Y-36994589D01*
X59712082Y-36988086D01*
X59683608Y-36979033D01*
X59657611Y-36966802D01*
X59628811Y-36950316D01*
X59559216Y-36895266D01*
X59504886Y-36824141D01*
X59462759Y-36732205D01*
X59429742Y-36614715D01*
X59428785Y-36605851D01*
X59427068Y-36567958D01*
X59425439Y-36505291D01*
X59423952Y-36421805D01*
X59422682Y-36321460D01*
X59421695Y-36208196D01*
X59421045Y-36085965D01*
X59419264Y-35588110D01*
X59495970Y-35549235D01*
X59527969Y-35533360D01*
X59563335Y-35516793D01*
X59580076Y-35510360D01*
X59580740Y-35512096D01*
G37*
G36*
X59829442Y-30352370D02*
G01*
X59901329Y-30406325D01*
X59935481Y-30444512D01*
X59968451Y-30491342D01*
X60000885Y-30549481D01*
X60034500Y-30622662D01*
X60070985Y-30714567D01*
X60112047Y-30828912D01*
X60159368Y-30969394D01*
X60172269Y-31008403D01*
X60211669Y-31125677D01*
X60244020Y-31217361D01*
X60270856Y-31286520D01*
X60293738Y-31336227D01*
X60314166Y-31369539D01*
X60333707Y-31389545D01*
X60353890Y-31399292D01*
X60376261Y-31401862D01*
X60392386Y-31400945D01*
X60423633Y-31387483D01*
X60449017Y-31351669D01*
X60452166Y-31345288D01*
X60459831Y-31323938D01*
X60465918Y-31294662D01*
X60470677Y-31253614D01*
X60474405Y-31196997D01*
X60477363Y-31120968D01*
X60479846Y-31021698D01*
X60482120Y-30895363D01*
X60488637Y-30489261D01*
X60563529Y-30451302D01*
X60593764Y-30436328D01*
X60629400Y-30419787D01*
X60646659Y-30413361D01*
X60648868Y-30422192D01*
X60651187Y-30457799D01*
X60652903Y-30516764D01*
X60654064Y-30594849D01*
X60654668Y-30687806D01*
X60654771Y-30791380D01*
X60654385Y-30901319D01*
X60653524Y-31013371D01*
X60652234Y-31123293D01*
X60650523Y-31226840D01*
X60648432Y-31319752D01*
X60645979Y-31397779D01*
X60643194Y-31456685D01*
X60640094Y-31492205D01*
X60627737Y-31564362D01*
X60596019Y-31681169D01*
X60553058Y-31770538D01*
X60497949Y-31833680D01*
X60429824Y-31871781D01*
X60347771Y-31886046D01*
X60302118Y-31884806D01*
X60255921Y-31872140D01*
X60206291Y-31842066D01*
X60179453Y-31820860D01*
X60137578Y-31777230D01*
X60097559Y-31720175D01*
X60057670Y-31646351D01*
X60016168Y-31552437D01*
X59971345Y-31435064D01*
X59921457Y-31290903D01*
X59908692Y-31252715D01*
X59867757Y-31131438D01*
X59834523Y-31035618D01*
X59807679Y-30962108D01*
X59785920Y-30907787D01*
X59767910Y-30869535D01*
X59752338Y-30844218D01*
X59737904Y-30828708D01*
X59723274Y-30819875D01*
X59713945Y-30816162D01*
X59671445Y-30810844D01*
X59639069Y-30831889D01*
X59612827Y-30881543D01*
X59606263Y-30902292D01*
X59600659Y-30930475D01*
X59596493Y-30968065D01*
X59593637Y-31018650D01*
X59591949Y-31085805D01*
X59591312Y-31173103D01*
X59591572Y-31284142D01*
X59592609Y-31422485D01*
X59596887Y-31898740D01*
X60122031Y-32218374D01*
X60647171Y-32538017D01*
X60646866Y-32730634D01*
X60646813Y-32750145D01*
X60645741Y-32828684D01*
X60642572Y-32885273D01*
X60636289Y-32927336D01*
X60625875Y-32962260D01*
X60610321Y-32997477D01*
X60597439Y-33022206D01*
X60580774Y-33047991D01*
X60559173Y-33073232D01*
X60529542Y-33100246D01*
X60488786Y-33131380D01*
X60433834Y-33168959D01*
X60361606Y-33215344D01*
X60268988Y-33272839D01*
X60152922Y-33343815D01*
X60147929Y-33346851D01*
X60045892Y-33409095D01*
X59938255Y-33474883D01*
X59833019Y-33539335D01*
X59738175Y-33597540D01*
X59661732Y-33644591D01*
X59628836Y-33664818D01*
X59560941Y-33706092D01*
X59503533Y-33740343D01*
X59461876Y-33764464D01*
X59441186Y-33775363D01*
X59436719Y-33776414D01*
X59428981Y-33771482D01*
X59424100Y-33752951D01*
X59421690Y-33716501D01*
X59421338Y-33657825D01*
X59422674Y-33572594D01*
X59426985Y-33361076D01*
X59890082Y-33100482D01*
X59977744Y-33050927D01*
X60079940Y-32992575D01*
X60170798Y-32940036D01*
X60247169Y-32895165D01*
X60305943Y-32859798D01*
X60343989Y-32835785D01*
X60358162Y-32824943D01*
X60356250Y-32822512D01*
X60334415Y-32806869D01*
X60291553Y-32779290D01*
X60231720Y-32742195D01*
X60158988Y-32697993D01*
X60077433Y-32649092D01*
X59991131Y-32597902D01*
X59904147Y-32546829D01*
X59820565Y-32498279D01*
X59744445Y-32454660D01*
X59679860Y-32418393D01*
X59630893Y-32391861D01*
X59601607Y-32377518D01*
X59598489Y-32384412D01*
X59594774Y-32417047D01*
X59591815Y-32471963D01*
X59589871Y-32544199D01*
X59589163Y-32628834D01*
X59589163Y-32885309D01*
X59516632Y-32931313D01*
X59486376Y-32949791D01*
X59450424Y-32969611D01*
X59431128Y-32977307D01*
X59430889Y-32977109D01*
X59428897Y-32958736D01*
X59427113Y-32912109D01*
X59425566Y-32839610D01*
X59424266Y-32743621D01*
X59423237Y-32626502D01*
X59422486Y-32490648D01*
X59422037Y-32338425D01*
X59421899Y-32172209D01*
X59422103Y-31994383D01*
X59422659Y-31807312D01*
X59422977Y-31724694D01*
X59423826Y-31516923D01*
X59424686Y-31337046D01*
X59425608Y-31182854D01*
X59426651Y-31052153D01*
X59427893Y-30942748D01*
X59429373Y-30852420D01*
X59431168Y-30778997D01*
X59433324Y-30720250D01*
X59435919Y-30673993D01*
X59439011Y-30638004D01*
X59442648Y-30610116D01*
X59446903Y-30588117D01*
X59451837Y-30569779D01*
X59457505Y-30552942D01*
X59485645Y-30489306D01*
X59540042Y-30411744D01*
X59605296Y-30358066D01*
X59677740Y-30329449D01*
X59753684Y-30327148D01*
X59829442Y-30352370D01*
G37*
%TD*%
M02*
